<svg xmlns="http://www.w3.org/2000/svg" xmlns:xlink="http://www.w3.org/1999/xlink" version="1.1" id="Layer_1" x="0px" y="0px" width="100px" height="90.4761904762px" viewBox="0 0 105 95.834" enable-background="new 0 0 105 95.834" xml:space="preserve">
<g>
	<g>
		<circle cx="58.117" cy="53.229" r="4.435"/>
		<circle cx="41.674" cy="53.229" r="4.435"/>
	</g>
	<path d="M50.533,67.55c-3.618,0-6.916-1.135-9.407-2.999c0.248,4.091,4.32,7.345,9.308,7.345c4.925,0,8.955-3.174,9.294-7.192   C57.262,66.476,54.05,67.55,50.533,67.55z"/>
	<circle cx="49.833" cy="47.001" r="2.007"/>
	<path d="M73.938,68.599c2.088-3.864,3.275-8.283,3.275-12.975c0-4.49-1.093-8.726-3.016-12.469L50.183,28.252   c-0.116-0.001-0.231-0.009-0.349-0.009c-15.098,0-27.381,12.283-27.381,27.381c0,4.714,1.198,9.154,3.306,13.031   c-2.337,0.639-4.135,4.721-4.135,9.367c0,0.133,0.007-0.355,0.01,0.645h9.622c0.004-1,0.011-0.512,0.011-0.645   c0-0.754-0.053-1.607-0.142-2.309c4.899,4.594,11.479,7.353,18.709,7.353c7.356,0,14.04-2.953,18.965-7.69   c-0.11,0.774-0.175,1.82-0.175,2.662c0,0.133,0.007-0.371,0.01,0.629h9.622c0.004-1,0.011-0.512,0.011-0.645   C78.267,73.247,76.369,69.07,73.938,68.599z M49.834,79.004c-12.892,0-23.381-10.488-23.381-23.38c0-2.563,0.171-5.029,0.937-7.339   c4.912-4.354,11.943-7.246,19.943-7.657v-8.293c1-0.057,1.326-0.092,2.001-0.092c0.674,0,1.999,0.035,1.999,0.092v8.293   c9,0.41,15.532,3.303,20.444,7.657c0.766,2.31,1.312,4.775,1.312,7.339C73.089,68.516,62.726,79.004,49.834,79.004z"/>
	<path d="M80.251,41.61c-0.45,0-0.906-0.122-1.316-0.377L51.021,23.911c-1.173-0.729-1.534-2.27-0.806-3.443   c0.729-1.173,2.271-1.532,3.442-0.805l27.913,17.322c1.173,0.729,1.534,2.27,0.806,3.442C81.904,41.19,81.087,41.61,80.251,41.61z"/>
	<path d="M79.255,30.889c-0.45,0-0.906-0.122-1.316-0.376L60.336,19.589c-1.173-0.729-1.534-2.27-0.806-3.442   s2.271-1.534,3.442-0.806l17.603,10.924c1.173,0.728,1.534,2.269,0.806,3.441C80.908,30.47,80.091,30.889,79.255,30.889z"/>
</g>
</svg>