<svg xmlns="http://www.w3.org/2000/svg" xmlns:xlink="http://www.w3.org/1999/xlink" version="1.1" x="0px" y="0px" width="100px" height="100px" viewBox="0 0 100 100" enable-background="new 0 0 100 100" xml:space="preserve">
<g id="Captions">
</g>
<g id="Your_Icon">
	<polygon points="34.929,60 28.301,60 31.642,63.317  "/>
	<polygon points="45.525,60 38.897,60 42.239,63.317  "/>
	<polygon points="56.122,60 49.495,60 52.834,63.317  "/>
	<polygon points="66.719,60 60.09,60 63.432,63.317  "/>
	<polygon points="77.316,60 70.688,60 74.028,63.317  "/>
	<polygon points="87.912,60 81.283,60 84.626,63.317  "/>
	<polygon points="98.51,60 91.881,60 95.222,63.317  "/>
	<path d="M95.228,64.673L90.521,60h-1.259l-4.631,4.673L79.923,60h-1.256l-4.634,4.673L69.327,60h-1.258l-4.632,4.673L58.729,60   h-1.257l-4.633,4.673L48.134,60h-1.259l-4.631,4.673L37.538,60h-1.259l-4.632,4.99c0,0-5.301-4.922-5.301-5.292   S26.613,59,27.275,59H100v-8.006c0-4.764-3.907-10.432-8.671-10.432L84.58,42H67.874c-26.821-5-28.66-14.191-41.998-14.191   C12.21,27.809,1.02,36,0.066,49h0.141C0.072,50,0,50.35,0,50.994v10.781C0,66.538,3.861,70,8.625,70h82.659   c4.765,0,8.716-3.462,8.716-8.226V60 M91.969,43.475c1.369,0,2.756,0.735,2.756,2.141c0,0.263-0.215,0.479-0.479,0.479   c-0.266,0-0.48-0.216-0.48-0.479c0-0.812-0.931-1.182-1.796-1.182s-1.798,0.37-1.798,1.182c0,0.263-0.215,0.479-0.479,0.479   c-0.264,0-0.479-0.216-0.479-0.479C89.213,44.21,90.6,43.475,91.969,43.475z M23.808,38.349c3.195,0,5.805,1.651,5.982,5.651   H17.825C18.002,40,20.612,38.349,23.808,38.349z"/>
</g>
</svg>