<svg xmlns="http://www.w3.org/2000/svg" xmlns:xlink="http://www.w3.org/1999/xlink" xmlns:sketch="http://www.bohemiancoding.com/sketch/ns" width="30px" height="38px" viewBox="0 0 30 38" version="1.1">
    <title>apple</title>
    <description>Created with Sketch (http://www.bohemiancoding.com/sketch)</description>
    <defs/>
    <g id="Fruits" stroke="none" stroke-width="1" fill="none" fill-rule="evenodd" sketch:type="MSPage">
        <path d="M14.2906028,11.1127062 C14.0359449,9.29389232 13.3259647,4.43664153 12.9404297,3.94244036 C12.4650213,3.3330341 11.742809,3.11517171 11.7428089,2.25568181 C11.7428089,1.39619192 13.7017933,0.582652819 14.3845881,2.25568182 C15.0673829,3.92871082 15.0891336,9.62642071 15.0891336,9.62642071 C15.0891336,9.62642071 15.6610437,3.71697436 18.9379441,1.75035512 C22.2148444,-0.216264209 27.5504261,0.956498577 27.5504261,0.956498577 C27.5504261,0.956498577 25.869229,6.29660904 21.4900566,7.3871628 C17.1108845,8.4777169 15.2321555,10.5478513 15.2321555,10.5478513 L15.2882716,11.138472 C18.4399948,11.0119419 19.6071751,8.86190199 24.2151451,10.820012 C28.9609375,12.8366886 30,16.7259876 30,20 C30,24.8730375 25.6765661,35.1006228 18.755558,37.0599728 C17.8326547,37.3212484 16.1633301,36.5 15,36.5 C13.8366699,36.5000002 12.2835077,37.5631599 11.0143443,37.0599718 C4.66464964,34.5424944 0,24.6028416 0,20 C0,16.7534536 1.7907151,12.1838943 5.78215122,10.5652043 C9.48811999,9.06228287 11.315217,10.8493909 14.2906028,11.1127062 Z" id="apple" fill="#000000" sketch:type="MSShapeGroup"/>
    </g>
</svg>