<svg xmlns="http://www.w3.org/2000/svg" xmlns:xlink="http://www.w3.org/1999/xlink" version="1.1" id="Capa_1" x="0px" y="0px" width="100px" height="100px" viewBox="0 0 100 100" enable-background="new 0 0 100 100" xml:space="preserve">
<g id="Capa_22">
	<g>
		<g>
			<path d="M55.027,57.176c2.406,2.405,3.731,5.617,3.731,9.045s-1.325,6.639-3.731,9.045c-2.561,2.562-3.971,5.978-3.971,9.623     c0,3.645,1.41,7.063,3.971,9.621l0.578-0.578c-2.404-2.404-3.731-5.617-3.731-9.043c0-3.428,1.327-6.641,3.731-9.047     c2.562-2.559,3.97-5.977,3.97-9.621c0-3.644-1.408-7.063-3.97-9.621L55.027,57.176z"/>
			<path d="M52.873,5.49c-10.308,0-18.667,9.474-18.667,21.157c0,11.687,8.359,28.818,18.667,28.818     c10.313,0,18.669-17.131,18.669-28.818C71.542,14.964,63.186,5.49,52.873,5.49z M41.519,24.434     c-0.906,4.091-0.727,9.289,0.442,14.021c-1.94-3.963-3.104-8.51-3.104-12.302c0-8.864,6.341-16.048,14.159-16.048     c0.945,0,1.871,0.107,2.764,0.308C49.138,11.216,43.222,16.736,41.519,24.434z"/>
			<path d="M52.391,59.662h1.477c1.266-0.025,1.559-0.646,0.879-1.334c-0.523-0.53-0.553-1.42-0.502-2.008h-2.23     c0.049,0.588,0.021,1.478-0.504,2.008C50.825,59.016,51.123,59.637,52.391,59.662z"/>
		</g>
		<g>
			<path d="M90.318,38.459c1.41,1.411,2.186,3.294,2.186,5.301c0,2.009-0.773,3.891-2.186,5.301c-1.5,1.501-2.325,3.503-2.325,5.641     c0,2.135,0.825,4.137,2.325,5.638l0.338-0.339c-1.407-1.408-2.186-3.292-2.186-5.299c0-2.011,0.777-3.892,2.186-5.302     c1.501-1.5,2.328-3.503,2.328-5.641c0-2.138-0.827-4.139-2.328-5.638L90.318,38.459z"/>
			<path d="M89.059,8.168c-6.043,0-10.941,5.552-10.941,12.399c0,6.851,4.898,16.89,10.941,16.89S100,27.418,100,20.567     C100,13.72,95.102,8.168,89.059,8.168z"/>
			<path d="M88.773,39.918h0.867c0.738-0.017,0.912-0.38,0.512-0.782c-0.309-0.312-0.321-0.832-0.295-1.177h-1.307     c0.03,0.345,0.012,0.866-0.296,1.177C87.855,39.539,88.031,39.902,88.773,39.918z"/>
		</g>
		<g>
			<path d="M14.328,63.828c1.653,1.656,2.563,3.865,2.563,6.224s-0.91,4.565-2.563,6.224c-1.763,1.763-2.734,4.111-2.734,6.621     c0,2.508,0.971,4.859,2.734,6.617l0.395-0.395c-1.655-1.654-2.567-3.864-2.567-6.225c0-2.357,0.912-4.566,2.567-6.225     c1.761-1.761,2.73-4.111,2.73-6.619c0-2.51-0.969-4.857-2.73-6.619L14.328,63.828z"/>
			<path d="M12.845,28.267C5.751,28.267,0,34.786,0,42.823C0,50.866,5.751,62.65,12.845,62.65c7.095,0,12.845-11.785,12.845-19.828     C25.69,34.786,19.94,28.267,12.845,28.267z"/>
			<path d="M12.514,65.541h1.014c0.871-0.02,1.073-0.445,0.604-0.92c-0.362-0.365-0.378-0.977-0.345-1.381h-1.535     c0.034,0.404,0.015,1.016-0.347,1.381C11.433,65.096,11.641,65.521,12.514,65.541z"/>
		</g>
	</g>
</g>
</svg>