<svg xmlns="http://www.w3.org/2000/svg" xmlns:xlink="http://www.w3.org/1999/xlink" version="1.1" id="bee" x="0px" y="0px" width="100px" height="100px" viewBox="0 0 100 100" enable-background="new 0 0 100 100" xml:space="preserve">
<g>
	<path d="M41.308,76.828c1.197,2.07,2.931,3.953,5.371,5.497c0,0,1.453,1.163,3.373,1.108c1.918,0.051,3.375-1.107,3.375-1.107   c2.289-1.446,3.958-3.192,5.146-5.112c-2.274,0.496-4.875,0.754-7.556,0.754C47.714,77.968,44.316,77.583,41.308,76.828z"/>
</g>
<g>
	<path d="M39.051,68.36c0.055,1.736,0.307,3.47,0.818,5.141c5.94,2.063,15.1,2.206,20.244,0.407c0.563-1.692,0.85-3.453,0.93-5.221   c-2.995,0.938-6.551,1.364-10.114,1.364C46.659,70.052,42.394,69.434,39.051,68.36z"/>
</g>
<g>
	<path d="M50.929,62.06c-3.902,0-7.81-0.511-11.006-1.419c-0.373,1.537-0.658,3.156-0.795,4.812   c5.78,2.114,15.619,2.598,21.868,0.309c-0.119-1.662-0.384-3.297-0.745-4.846C57.427,61.692,54.187,62.06,50.929,62.06z"/>
</g>
<g>
	<path d="M59.514,58.241c-0.571-1.815-1.232-3.435-1.862-4.75c-2.599,0.543-5.42,0.809-8.212,0.809   c-2.458,0-4.881-0.204-7.097-0.579c-0.564,1.205-1.146,2.646-1.665,4.246C46.062,59.501,53.848,59.813,59.514,58.241z"/>
</g>
<path d="M58.786,38.047c-0.651-1.481-1.406-2.589-1.406-2.589c-0.11-0.123-0.253-0.232-0.394-0.342  c0.422-1.017,0.659-2.14,0.659-3.324c0-3.374-1.896-6.271-4.6-7.523l2.116-7.369l6.143-0.228c0.215-0.007,0.382-0.188,0.378-0.405  c-0.008-0.215-0.19-0.375-0.406-0.378l-6.396,0.238c-0.152,0.006-0.287,0.095-0.346,0.239l-3.563,7.305  c-0.302-0.039-0.607-0.065-0.92-0.065c-0.314,0-0.621,0.026-0.924,0.066l-3.565-7.308c-0.058-0.138-0.193-0.23-0.349-0.237  l-6.393-0.236c-0.216-0.001-0.396,0.161-0.407,0.376c-0.006,0.218,0.163,0.398,0.38,0.405l6.143,0.23l2.118,7.368  c-2.703,1.252-4.598,4.147-4.597,7.52c0,1.184,0.239,2.307,0.659,3.323c-0.148,0.11-0.288,0.223-0.393,0.344  c0,0-0.739,1.108-1.38,2.663C29.184,41.662-2.639,46.12,0.916,55.936c3.944,10.877,25.455,7.546,29.052,4.598  c5.007-4.104,9.231-7.95,11.843-11c0.224,0.512,0.459,0.979,0.694,1.396c4.583,0.822,10.289,0.82,14.998-0.245  c0.166-0.346,0.332-0.731,0.496-1.137c2.625,3.011,6.768,6.769,11.648,10.77c3.596,2.949,25.106,6.275,29.048-4.599  C102.202,46.038,71.295,41.566,58.786,38.047z"/>
</svg>