<svg xmlns="http://www.w3.org/2000/svg" xmlns:xlink="http://www.w3.org/1999/xlink" version="1.1" id="Layer_1" x="0px" y="0px" width="100px" height="100px" viewBox="0 0 100 100" enable-background="new 0 0 100 100" xml:space="preserve">
<g>
	<path d="M15.9,24.3c0,0-4.4-5.6-9.5,0.9C6.5,25.3,11.4,33.2,15.9,24.3z"/>
	<path d="M42.7,24.3c0,0,4.4-5.6,9.5,0.9C52.2,25.3,47.3,33.2,42.7,24.3z"/>
	<path d="M34.4,55.8c1.5,0,2.8,1.2,2.8,2.8c0,1.5-1.2,2.8-2.8,2.8c-1.5,0-2.8-1.2-2.8-2.8C31.6,57,32.8,55.8,34.4,55.8z"/>
	<path d="M25.2,61.3c-1.5,0-2.8-1.2-2.8-2.8c0-1.5,1.2-2.8,2.8-2.8c1.5,0,2.8,1.2,2.8,2.8S26.7,61.3,25.2,61.3z"/>
	<path d="M91,71.1c-0.4,0-0.7,0.2-1,0.4c-0.2-0.1-0.3-0.1-0.5-0.1c-1,0-1.8-0.3-2.4-0.9c-1.3-1.3-1.2-3.8-1.2-3.9V53.7   c0-12-6.7-12.6-6.9-12.6c-0.4,0-0.7,0.1-1,0.3c-2.5-2.6-5.8-2.9-5.8-2.9H45.1c0,0-1.5-11.2-2.5-12.7c-0.5-0.7-0.6-0.8-1-0.9   c0.2-0.1,0.4-0.3,0.5-0.4l0.6-0.8c0.3-0.4,0.4-1.1,0.4-1.6c0-1.8-1.4-3.2-3.2-3.2c-1.8,0-3.2,1.4-3.2,3.2c0,0.6,0.2,1.2,0.5,1.8   c-3.5-0.4-7.4-0.3-7.4-0.3h-1.5c0,0-3.2-0.1-6.5,0.2c0.3-0.5,0.5-1.1,0.5-1.7c0-1.8-1.4-3.2-3.2-3.2c-1.8,0-3.2,1.4-3.2,3.2   c0,1.1,0.4,1.9,1.2,2.5c-0.6,0.2-1.1,0.4-1.4,0.8C13.5,27.5,12,49.7,12,49.7s0,0.7,0.2,1.8l0,0c0.8,4.9,5.3,13.3,16.8,15v13.4v0.5   v1.8h4v-1.8c0,0,0-8.7,6.7-8.7c6.7,0,6,8.1,6,8.1v2.3h4.5v-2.3h-0.1v-6.1c0-3.2,1.5-4.6,2.8-5c0.4,1.5,1.1,3.7,3.4,5.1v1.5   c0,0.5,0.4,1.1,1.1,1.1c0.5,0,1.1-0.4,1.1-1.1v-0.5c0.5,0.2,1.1,0.3,1.8,0.3v0.2c0,0.5,0.4,1.1,1.1,1.1c0.6,0,1.1-0.4,1.1-1.1v-0.2   c0.7-0.1,1.2-0.2,1.8-0.3v0.5c0,0.5,0.4,1.1,1.1,1.1c0.7,0,1.1-0.4,1.1-1.1v-1.5c2.3-1.5,3.1-3.8,3.4-5.2c6,1.3,5.3,11.2,5.3,11.2   H75v2.3h6v-2.3c0,0,0-19.3,0-30c0-2.4-0.4-4.3-1.1-5.8c1.3,0.8,3.4,3.2,3.4,9.5v13.1c0,0.2-0.1,3.5,2,5.7c1.1,1.1,2.5,1.7,4.2,1.7   c0.2,0,0.3-0.1,0.5-0.1c0.3,0.3,0.6,0.4,1,0.4c0.9,0,3.9-1.6,3.9-1.6S91.8,71.1,91,71.1z M37.9,39.3c1.1,0,2.1,1,2.1,2.1   s-0.9,2.1-2.1,2.1c-1.1,0-2.1-1-2.1-2.1S36.8,39.3,37.9,39.3z M21.4,39.3c1.1,0,2.1,1,2.1,2.1s-1,2.1-2.1,2.1s-2.1-1-2.1-2.1   S20.3,39.3,21.4,39.3z M30.2,65.6c-11.5-1.2-16.1-9.1-17-13.9h32.4C44.9,55.6,42.2,64.5,30.2,65.6z"/>
</g>
</svg>