<?xml version="1.0" encoding="utf-8"?>
<!-- Generator: Adobe Illustrator 16.0.0, SVG Export Plug-In . SVG Version: 6.00 Build 0)  -->
<!DOCTYPE svg PUBLIC "-//W3C//DTD SVG 1.1//EN" "http://www.w3.org/Graphics/SVG/1.1/DTD/svg11.dtd">
<svg version="1.1" id="Layer_1" xmlns="http://www.w3.org/2000/svg" xmlns:xlink="http://www.w3.org/1999/xlink" x="0px" y="0px"
	 width="100px" height="79.29px" viewBox="0.659 12.104 100 79.29" enable-background="new 0.659 12.104 100 79.29"
	 xml:space="preserve">
<g>
	<g>
		<circle cx="37.194" cy="46.5" r="3.974"/>
		<circle cx="65.082" cy="46.5" r="3.974"/>
		<path d="M36.399,64.384c0,7.885,8.166,14.282,14.277,14.282c6.111,0,14.28-6.397,14.28-14.282
			C64.956,56.5,36.399,56.5,36.399,64.384z"/>
		<path d="M100.659,42.526c-9.083-28.637-34.646-30.306-43.947-29.92c-1.93-0.323-3.935-0.503-6.034-0.503
			c-2.171,0-4.188,0.181-6.067,0.503c-9.299-0.387-34.867,1.279-43.952,29.92c0,0,2.469,8.597,14.729,9.255
			c-0.775,3.45-1.324,6.718-1.324,8.962c0,18.046,15.247,30.65,37.077,30.65c21.829,0,37.075-12.604,37.075-30.65
			c0-2.271-0.555-5.556-1.339-9.012C98.336,50.702,100.659,42.526,100.659,42.526z M51.139,86.646
			c-16.09,0-32.327-8.009-32.327-25.9c0-2.71,1.074-7.764,2.354-12.563c5.087-6.791,12.715-21.385,19.399-29.519
			c2.853-1.112,6.173-1.808,10.112-1.808c3.825,0,7.093,0.62,9.941,1.643c7.361,8.878,15.897,25.73,20.932,31.409
			c1.076,4.235,1.913,8.434,1.913,10.838C83.464,78.637,67.229,86.646,51.139,86.646z"/>
	</g>
</g>
</svg>
