<svg xmlns="http://www.w3.org/2000/svg" xmlns:xlink="http://www.w3.org/1999/xlink" version="1.1" id="Layer_1" x="0px" y="0px" width="100px" height="100px" viewBox="0 0 100 100" enable-background="new 0 0 100 100" xml:space="preserve">
<path fill="#000000" d="M28.336,34.614c-1.439,0-2.606,1.167-2.606,2.606c0,1.439,1.167,2.605,2.606,2.605  c1.439,0,2.606-1.167,2.606-2.605C30.941,35.781,29.775,34.614,28.336,34.614z M84.163,72.448c-0.205-0.312-0.553-0.502-0.926-0.502  h-2.179c1.72-3.893,1.273-10.563,1.204-11.446c-0.03-0.39-0.265-0.736-0.62-0.906c-0.351-0.168-0.771-0.138-1.096,0.08  c-0.09,0.065-9.941,6.679-21.144,5.601c-8.512-0.807-10.139-5.65-10.452-7.594c10.406-2.877,17.587-12.252,17.587-23.13  c0-6.808-2.86-12.95-7.426-17.326c0.471-0.371,1.54-0.836,3.703-0.935c0.609-0.026,1.079-0.543,1.051-1.15  c-0.026-0.607-0.448-1.115-1.15-1.051c-2.993,0.136-4.494,0.909-5.271,1.675c-0.118-0.094-0.243-0.179-0.363-0.271  c0.718-2.542,2.726-7.465,5.832-7.889c0.603-0.082,1.025-0.637,0.943-1.24c-0.082-0.605-0.65-1.031-1.24-0.943  c-4.289,0.583-6.565,6.063-7.434,8.757c-0.512-0.319-1.03-0.629-1.567-0.91c0.62-1.481,1.318-4.289-0.523-7.326  c-0.314-0.521-0.993-0.683-1.514-0.372c-0.521,0.317-0.687,0.995-0.373,1.514c1.314,2.167,0.847,4.176,0.416,5.25  c-2.812-1.157-5.884-1.805-9.108-1.805c-13.249,0-24.025,10.777-24.025,24.023c0,3.352,0.689,6.558,1.938,9.479  c-2.331,0.66-5.297,1.189-6.35,0.663c-0.945-0.469-1.537-0.073-1.751,0.121c-0.349,0.319-0.67,0.937-0.222,2.084  c0.922,2.368,4.752,6.782,9.836,6.782h0.03l5.982-0.022c2.082,1.578,4.437,2.84,7.016,3.687c-3.355,3.331-7.736,10.383-7.736,16.595  c0,2.185,0.7,21.353,24.917,21.353c22.111,0,31.996-21.575,32.095-21.793C84.396,73.156,84.365,72.762,84.163,72.448z   M21.962,51.473H21.94c-3.409,0-6.085-2.707-7.239-4.403c2.199,0.203,5.143-0.557,6.71-1.029c1.081,1.988,2.426,3.817,4.016,5.419  L21.962,51.473z M52.149,93.086c-21.616,0-22.712-15.951-22.712-19.148c0-6.242,5.463-14.215,8.309-16.097  c0.103-0.052,0.213-0.133,0.295-0.215c0.284-0.282,0.392-0.698,0.284-1.083c-0.11-0.385-0.42-0.68-0.81-0.771  c-9.905-2.328-16.823-11.052-16.823-21.222c0-12.03,9.788-21.818,21.82-21.818c12.03,0,21.818,9.788,21.818,21.818  c0,10.178-6.925,18.905-16.838,21.224c-0.491,0.116-0.827,0.553-0.835,1.059c-0.002,0.082,0.007,0.161,0.024,0.239  c0.082,1.473,1.07,9.31,12.512,10.398c9.295,0.881,17.566-3.06,20.957-4.978c0.078,3.591-0.334,8.324-1.88,9.745  c-0.334,0.308-0.446,0.788-0.28,1.212c0.166,0.424,0.573,0.702,1.027,0.702h2.409C78.771,78.929,69.442,93.086,52.149,93.086z   M68.671,69.289c-0.013,0-0.904,0.039-2.257,0.039c-2.543,0-7.252-0.144-10.238-1.122c-1.897-0.62-3.198-1.458-4.455-2.269  c-1.682-1.085-3.273-2.112-5.766-2.192l-0.349-0.004c-3.622,0-4.995,1.895-5.381,2.597c-1.692,1.813-2.45,6.193-0.894,10.077  c0.98,2.442,3.693,6.541,10.869,6.541c12.781,0,18.554-9.056,19.57-12.23c0.11-0.344,0.043-0.719-0.174-1.006  C69.375,69.433,69.045,69.255,68.671,69.289z M50.201,80.751c-5.583,0-7.881-2.806-8.824-5.157c-1.294-3.23-0.558-6.783,0.517-7.81  c0.101-0.097,0.196-0.243,0.256-0.372c0.026-0.06,0.691-1.466,3.456-1.466l0.278,0.004c1.884,0.06,3.101,0.846,4.642,1.841  c1.311,0.844,2.797,1.804,4.965,2.513c3.111,1.016,7.657,1.229,10.923,1.229c0.213,0,0.415,0,0.605-0.002  C65.18,74.943,60.019,80.751,50.201,80.751z"/>
</svg>