<svg xmlns="http://www.w3.org/2000/svg" xmlns:xlink="http://www.w3.org/1999/xlink" version="1.1" x="0px" y="0px" width="100px" height="100px" viewBox="0 0 100 100" enable-background="new 0 0 100 100" xml:space="preserve">
<g id="Captions">
</g>
<g id="Your_Icon">
	<path d="M4.806,66.128c-9.537-14.496,0.104,2.342,15.056-4.531c14.949-6.872,37.486-12.008,30.08-23.917   c-7.407-11.905-20.809-22.874,2.966-34.836C76.683-9.123,80.695,20.543,80.695,20.543s-8.28,21.393,0.603,23.144   c8.591,1.694,44.463,32.177-20.504,53.6c-26.467,8.727-38.27-7.309-47.544-21.457C10.703,71.943,6.86,69.249,4.806,66.128z"/>
	<path fill-rule="evenodd" clip-rule="evenodd" d="M66.929,25.531c-6.117-5.594,2.968-1.141,6.658-4.825   c3.693-3.688,4.566-2.887,13.353-5.126c8.787-2.237,13.428-3.451,7.223,4.035l-2.702,3.307l5.285,1.944   C99.138,29.62,73.049,31.125,66.929,25.531z"/>
	<circle fill="#000000" stroke="#FFFFFF" stroke-width="4" stroke-miterlimit="3.8637" cx="68.733" cy="11.902" r="2.648"/>
</g>
</svg>