<svg xmlns="http://www.w3.org/2000/svg" xmlns:xlink="http://www.w3.org/1999/xlink" version="1.1" id="Layer_1" x="0px" y="0px" width="100px" height="100px" viewBox="0 0 100 100" enable-background="new 0 0 100 100" xml:space="preserve">
<path d="M98.843,48.244L90,27.708v-0.001C89,23.92,85.585,21,81.541,21h-9.188l-4.344-1.864c-3.842-1.688-7.863-1.014-8.982,1.53  L58.871,21h0.435l-7.225,16.496c-0.485,1.104-0.28,2.467,0.576,3.799c0.891,1.383,2.365,2.587,4.152,3.373l12.99,5.5  c1.323,0.58,3.2,0.752,4.2,0.752v0.006c2,0,3.3-0.545,4.036-1.7l0.214,0.989C77.285,51.303,75.6,52,73.647,52  c-0.001,0-0.008,0-0.008,0c-1.414,0-2.918-0.336-4.341-0.961l-12.808-5.63c-1.928-0.847-3.529-2.147-4.503-3.66  c-1.006-1.563-1.232-3.216-0.637-4.574L58.436,21H36.891c-2.171-1-4.477-0.981-6.869-0.981c-30.692,0-29.34,42.737-29.34,42.737  C0.653,62.863,0.64,62.98,0.64,63.088c0,0.537,0.358,1.033,0.902,1.18c0.65,0.177,1.321-0.203,1.498-0.854l4.285-15.122  C7.503,49.146,7,53.156,7,54.553v26.339c0,1.812,0.553,3.447,1.738,4.634c1.186,1.185,3.199,1.92,5.008,1.92  c1.94,0,3.253-0.844,5.253-2.183v-15.67c0-0.461-0.09-0.835,0.371-0.835c0.231,0,0.338,0.093,0.49,0.243  c0.15,0.152,0.139,0.36,0.139,0.592v15.923c0,0.092,0.034,0.18,0.121,0.265c1.184,1.187,2.671,1.921,4.48,1.921  c3.62,0,6.399-2.935,6.399-6.554V70h-0.087l0.518-0.35c2.569-0.371,5.171-3.155,7.475-4.403l0.58-0.068  c-0.377,5.285,6.064,5.246,5.166,15.305c0.042,2.181,0.743,3.428,1.929,4.615c1.184,1.184,2.944,1.909,4.752,1.909  c3.618,0,6.668-2.943,6.668-6.562V61.839c1-0.1,2-1.774,2-1.936v21.184c0,1.809,0.585,3.448,1.774,4.634  c1.182,1.186,2.843,1.919,4.651,1.919c3.617,0,6.574-2.935,6.574-6.553V54.746C73,54.63,73.014,54,73.115,54h8.426  c5.011,0,0.22-5.085,1.115-5.406c0.894-0.32,2.203,4.456,4.193,3.333l0.571,1.278c0.194,0.446,0.673,26.489,0.673,26.489  c0,1.101,0.446,2.088,1.167,2.809c0.72,0.721,1.717,1.162,2.816,1.162c2.199,0,4.028-1.785,4.028-3.985  C96.105,79.68,100.225,51.416,98.843,48.244z M87.164,40.433c-0.502,0.609-1,0.959-1.785,0.959c-1.442,0-2.379-1.172-2.379-2.613  c0-0.021,0-0.043,0-0.065c0-1.402,0.968-2.546,2.379-2.546c1.44,0,2.49,1.172,2.49,2.612C87.869,39.38,87.543,39.967,87.164,40.433z  "/>
</svg>