<svg xmlns="http://www.w3.org/2000/svg" xmlns:xlink="http://www.w3.org/1999/xlink" version="1.1" id="Your_Icon" x="0px" y="0px" viewBox="0 0 100 100" enable-background="new 0 0 100 100" xml:space="preserve" height="100px" width="100px">
<g>
	<g>
		<g>
		</g>
	</g>
	<g>
	</g>
</g>
<path fill="#000000" d="M77.651,61.454l6.613,0.627l-10.263-6.799L95.107,50l-15.421-3.86l6.041-2.763l-12.287-0.757l15.637-15.128  l-15.285,4.368l3.85-5.413l-11.019,5.489L72.6,11.017L61.547,22.442l0.627-6.613l-6.799,10.263L50.093,4.986l-3.86,15.421  l-2.763-6.041l-0.757,12.287L27.586,11.017l4.368,15.285l-5.413-3.85l5.489,11.019l-20.919-5.978l11.425,11.053l-6.613-0.627  l10.263,6.799L5.079,50l15.421,3.86l-6.041,2.763l12.287,0.756L11.109,72.507l15.285-4.368l-3.85,5.413l11.019-5.489l-5.978,20.919  l11.053-11.425l-0.627,6.613l6.799-10.263l5.283,21.106l3.86-15.421l2.763,6.041l0.757-12.287L72.6,88.983l-4.368-15.285l5.413,3.85  l-5.489-11.02l20.919,5.978L77.651,61.454z M59.324,59.053l2.434,8.214l-5.177-3.682l-0.112,1.819l-2.908-2.948l-1.999,8.33  l-2.643-5.777l-1.007,1.519l-1.045-4.007l-5.896,6.215l0.6-6.325l-1.631,0.813l1.099-3.992l-8.214,2.434l3.682-5.177l-1.819-0.112  l2.948-2.908l-8.33-1.999l5.777-2.643l-1.519-1.007l4.007-1.045l-6.215-5.896l6.325,0.6l-0.813-1.631l3.992,1.099l-2.434-8.214  l5.177,3.682l0.112-1.819l2.908,2.948l1.999-8.33l2.643,5.777l1.007-1.519l1.044,4.007l5.896-6.215l-0.6,6.325l1.631-0.813  l-1.099,3.992l8.214-2.434l-3.682,5.177l1.819,0.112l-2.948,2.908l8.33,1.999l-5.777,2.643l1.519,1.007l-4.007,1.045l6.215,5.896  l-6.325-0.6l0.813,1.631L59.324,59.053z"/>
</svg>