<svg xmlns="http://www.w3.org/2000/svg" xmlns:xlink="http://www.w3.org/1999/xlink" version="1.1" x="0px" y="0px" width="100px" height="68.254px" viewBox="0 0 100 68.254" enable-background="new 0 0 100 68.254" xml:space="preserve">
<g id="Layer_7">
	<path d="M89.381,59.782c-0.942-0.31-7.786-3.489-15.635-6.537c3.102-4.093,2.789-11.188,2.789-16.926   c0-3.262-3.787-10.94-3.572-11.348c3.901-7.413,0.253-21.441-5.375-24.403C61.96-2.394,56.482,6.832,52.581,14.246   c-2.747,5.22-3.104,10.419-0.719,14.885c1.537,2.878,0.756,6.578,0.756,9.435c0,3.508-2.305,6.398-3.693,8.834   c-8.135,0.429-13.259,3.899-18.399,3.891c-5.728-0.01-15.841-5.204-19.037-5.74c-4.334-0.726-6.255,2.391-8.548,2.867   c-8.169,1.697,2.812,4.772,7.146,5.498c2.55,0.427,10.805-1.899,15.881,0.962c3.379,1.905,14.546,9.447,27.282,11.766   c13.997,2.549,29.676,2.102,33.856-1.577c0.157,0.058,0.311,0.116,0.477,0.171c4.174,1.374,11.895,2.472,12.391,0.964   S93.554,61.156,89.381,59.782z"/>
</g>
<g id="Layer_8">
</g>
<g id="Layer_4" display="none">
</g>
</svg>