<svg xmlns="http://www.w3.org/2000/svg" xmlns:xlink="http://www.w3.org/1999/xlink" version="1.1" id="Your_Icon" x="0px" y="0px" width="67px" height="61.679px" viewBox="0 0 67 61.679" enable-background="new 0 0 67 61.679" xml:space="preserve">
<path fill-rule="evenodd" clip-rule="evenodd" d="M30.834,61.679C21.26,61.679,19.822,54.195,13,48C6.08,41.715,1.818,42.496,3,32  c17.764-9.237,33.223-20.777,49-32c5.59,1.41,6.402,7.598,9,12c-2.801,0.532-5.199,1.468-8,2c-1.376,3.027,0.477,3.572,0,8  c-2.375,1.645-4.299-3.845-8-4c2.368,2.632,5.623,4.377,6,9c-0.479,4.521-4.076,5.924-6,9c-0.438,9.771,1.271,17.395,4,24  c-0.744,2.256-5.609,0.391-8,1c-1.902-1.131-1.969-5.58-7-6c-2.859-4.945,0.361-11.336,1-16c-3.492-1.697-8.077,2.922-14,2  c2.17,7.83,8.206,12.472,11.874,16.011c1.166,1.125,3.596,1.042,3.557,2.501C36.377,61.511,32.584,61.679,30.834,61.679z"/>
<path fill-rule="evenodd" clip-rule="evenodd" d="M54,15c1.753-0.914,4.99-0.344,6-2c0.625,4.477,3.957,15.752-6,14  C51.447,23.718,55.167,20.024,54,15"/>
<path fill-rule="evenodd" clip-rule="evenodd" d="M52,28c1.793-0.127,2.109,1.225,4,1c2.333,11.334,9.008,18.326,11,30  c-2.006,2.994-8.209,1.791-13,2c0.014-1.987,2.729-1.271,2-4c-6.367-3.633-4.016-15.984-9-21C48.014,32.68,52.535,32.868,52,28"/>
<path fill-rule="evenodd" clip-rule="evenodd" d="M7.5,33.666c7.76,0.24,3.014,21.82,6.5,26.334c-2.566,1.848-11.361,1.399-14,0  C0.475,53.809,6.088,38.921,7.5,33.666"/>
</svg>