<svg xmlns="http://www.w3.org/2000/svg" xmlns:xlink="http://www.w3.org/1999/xlink" version="1.1" id="Layer_1" x="0px" y="0px" width="50px" height="50px" viewBox="0 0 50 50" enable-background="new 0 0 50 50" xml:space="preserve">
<g>
	<path fill="#000000" d="M597.934,411.09c-0.291-0.193-0.606-0.354-0.947-0.46c-0.338-0.106-0.693-0.171-1.066-0.171   c-0.365,0-0.79,0.055-1.238,0.156h-4.938c-1.285,0-2.334,1.363-2.334,3.04v9.313c0,1.674,1.049,3.036,2.334,3.036h2.721l0.41,3.935   l0.801-0.258l2.242,6.988c0.658,2.049,2.852,3.178,4.9,2.52c2.051-0.654,3.181-2.853,2.523-4.9l-0.197-0.611c0,0,0,0.001,0,0.002   l-2.051-6.395l3.592-1.161c0.121,0.022,0.246,0.04,0.369,0.063c11.22,2.243,19.706,7.816,19.706,7.816v-34.48   C619.076,406.889,603.92,410.086,597.934,411.09z"/>
	<rect x="626.053" y="398.879" fill="#000000" width="2.346" height="36.637"/>
	<path fill="#000000" d="M585.92,413.492c0-0.635,0.152-1.223,0.409-1.709h-2.101c-2.029,0-3.729,1.331-4.328,3.158h2.631   c0.424,0,0.768,0.341,0.768,0.765c0,0.027-0.012,0.049-0.012,0.072c0,0.017,0.008,0.031,0.008,0.047   c0,0.427-0.342,0.769-0.766,0.769h-2.877v0.877h2.879c0.424,0,0.768,0.34,0.768,0.764c0,0.025-0.012,0.046-0.012,0.069   c0,0.019,0.008,0.033,0.008,0.05c0,0.425-0.342,0.767-0.766,0.767h-2.877v0.877h2.879c0.424,0,0.768,0.344,0.768,0.768   c0,0.022-0.012,0.042-0.012,0.067c0,0.017,0.008,0.035,0.008,0.049c0,0.427-0.342,0.768-0.766,0.768l-2.699,0.023   c0.552,1.838,2.365,3.169,4.398,3.169h2.307c-0.379-0.544-0.615-1.251-0.615-2.038V413.492z"/>
</g>
<g>
	<path fill-rule="evenodd" clip-rule="evenodd" fill="#000000" d="M41.731,2.799c1.1,0.756,1.863,1.549,2.236,2.381   c-0.483,0.807-1.121,1.707-1.914,2.68c-0.797,0.968-1.669,1.761-2.636,2.397l-0.612,0.043l-6.941,10.705   c1.599,1.244,2.674,2.461,3.219,3.68c0.725,1.749,0.631,3.288-0.27,4.598c-0.909,1.32-1.721,2.154-2.436,2.537   c-1.298,0.639-2.02,1.055-2.145,1.236c-0.559,0.814-0.74,1.762-0.578,2.853c0.333,2.318-0.046,4.826-1.131,7.542   c-1.079,2.701-3.325,4.352-6.743,4.93c-2.109,0.373-5.115-0.783-9.035-3.444c-3.925-2.737-6.081-5.129-6.451-7.21   c-0.709-3.414,0.018-6.11,2.169-8.072c2.163-1.978,4.367-3.228,6.653-3.746c1.073-0.242,1.896-0.745,2.455-1.559   c0.125-0.183,0.254-1.006,0.402-2.437c0.063-0.832,0.553-1.887,1.471-3.2c0.914-1.3,2.33-1.93,4.248-1.862   c1.257,0.024,2.766,0.581,4.551,1.667l7.547-10.289l-0.216-0.613c0.251-1.129,0.665-2.236,1.29-3.325   c0.61-1.101,1.221-2.016,1.828-2.74C39.604,1.604,40.618,2.036,41.731,2.799L41.731,2.799z M26.799,24.272   c-1.916-1.317-3.477-1.037-4.703,0.853c-1.316,1.913-1.035,3.517,0.855,4.817c1.877,1.293,3.474,0.979,4.79-0.936   C28.967,27.117,28.649,25.545,26.799,24.272L26.799,24.272z M13.758,35.799l-0.836,1.259l6.879,4.733l0.859-1.246L13.758,35.799z    M37.141,6.587L37.141,6.587c0.141,0.062,0.262,0.017,0.378-0.153c0.114-0.167,0.089-0.313-0.086-0.431   c-0.184-0.129-0.342-0.108-0.455,0.056c-0.117,0.171-0.104,0.307,0.014,0.427l-0.816,2.06L14.933,37.87l0.149,0.101L36.312,8.642   L37.141,6.587z M39.067,3.627L39.067,3.627l-2.213,5.387L16.017,38.615l0.188,0.131l20.798-29.63l2.214-5.388   c0.141,0.061,0.269,0.008,0.377-0.15c0.117-0.169,0.087-0.313-0.085-0.431c-0.185-0.125-0.342-0.114-0.459,0.056   C38.941,3.36,38.951,3.509,39.067,3.627L39.067,3.627z M41.748,5.469c0.14,0.061,0.269,0.008,0.38-0.15   c0.115-0.17,0.084-0.313-0.089-0.431c-0.185-0.129-0.341-0.114-0.456,0.056c-0.11,0.158-0.102,0.307,0.018,0.424l-4.016,4.15   L17.143,39.389l0.146,0.102l20.44-29.874L41.748,5.469z M39.934,8.509c0.177,0.085,0.321,0.057,0.439-0.113   c0.114-0.167,0.073-0.321-0.11-0.447c-0.175-0.121-0.319-0.091-0.434,0.072c-0.099,0.147-0.102,0.255-0.018,0.348l-1.534,1.624   L18.23,40.137l0.134,0.094L38.41,10.084L39.934,8.509z"/>
</g>
</svg>