<svg xmlns:dc="http://purl.org/dc/elements/1.1/" xmlns:cc="http://creativecommons.org/ns#" xmlns:rdf="http://www.w3.org/1999/02/22-rdf-syntax-ns#" xmlns:svg="http://www.w3.org/2000/svg" xmlns="http://www.w3.org/2000/svg" xmlns:xlink="http://www.w3.org/1999/xlink" xmlns:sodipodi="http://sodipodi.sourceforge.net/DTD/sodipodi-0.dtd" xmlns:inkscape="http://www.inkscape.org/namespaces/inkscape" width="100" height="100" viewBox="0 0 80 80" version="1.1" id="svg2" inkscape:version="0.48.2 r9819" sodipodi:docname="horse.svg">
  <metadata id="metadata10">
    <rdf:RDF>
      <cc:Work rdf:about="">
        <dc:format>image/svg+xml</dc:format>
        <dc:type rdf:resource="http://purl.org/dc/dcmitype/StillImage"/>
        <dc:title/>
      </cc:Work>
    </rdf:RDF>
  </metadata>
  <defs id="defs8"/>
  <sodipodi:namedview pagecolor="#ffffff" bordercolor="#666666" borderopacity="1" objecttolerance="10" gridtolerance="10" guidetolerance="10" inkscape:pageopacity="0" inkscape:pageshadow="2" inkscape:window-width="1600" inkscape:window-height="853" id="namedview6" showgrid="false" inkscape:zoom="6.63" inkscape:cx="36.387629" inkscape:cy="63.482723" inkscape:window-x="-4" inkscape:window-y="-4" inkscape:window-maximized="1" inkscape:current-layer="g3066"/>
  <g inkscape:groupmode="layer" id="layer2" inkscape:label="Layer" style="display:none">
    <path style="fill:none;stroke:#000000;stroke-width:1px;stroke-linecap:butt;stroke-linejoin:miter;stroke-opacity:1" d="m 17.301549,39.547156 2.119953,-0.889012 0.205157,1.778025 1.84641,-1.025784" id="path4703" inkscape:connector-curvature="0" transform="scale(0.8,0.8)"/>
  </g>
  <g inkscape:groupmode="layer" id="layer1" inkscape:label="draw">
    <g id="g3066" transform="matrix(0.06816302,0,0,0.06816302,-1.4478425,4.6069918)">
      <path style="fill:#000000;stroke:none" d="m 1087.6016,44.083658 c -10.6595,8.075407 -19.8216,18.89936 -33.3884,22.129518 -10.7672,4.414561 -21.3487,9.323867 -32.2236,13.200064 -1.8305,-2.691807 -3.0469,-6.515117 -6.6001,-7.376506 -24.97989,-1.615079 -49.281,5.715882 -74.15326,5.823557 -7.10635,0.215301 -12.1326,6.34223 -19.02362,6.988269 -6.891,0.108085 -12.39039,4.66194 -18.63538,6.600032 -23.36485,5.491289 -44.09425,18.810208 -62.50619,33.776638 -8.61377,7.42938 -19.46975,11.11801 -28.72955,17.47067 -13.56668,15.72012 -31.79493,25.88338 -46.9767,39.98843 -8.29075,8.39843 -19.81553,11.61392 -29.50602,17.85891 -9.36747,4.95291 -18.02447,10.85713 -27.1766,15.91772 -9.47515,4.52222 -10.39017,17.75741 -20.18833,21.74128 -18.62728,9.04446 -39.71906,11.3241 -60.17677,11.64712 -52.22098,-0.96904 -104.43116,-5.88146 -155.6831,-15.14125 -39.83869,-6.99868 -82.47571,-13.09045 -121.13,1.55295 -28.10242,10.87488 -53.42119,27.37728 -77.64743,45.03551 -9.36747,7.96773 -22.64087,7.60419 -32.22368,15.14125 -12.59765,9.15213 -25.96211,18.07309 -35.32959,30.67073 -7.32169,8.82911 -10.85713,19.77309 -15.91772,29.89426 -5.27594,11.09024 -8.32896,22.88207 -10.4824,34.94135 -2.79949,17.01219 -8.91286,33.17806 -12.03536,50.08259 -1.83041,12.16695 -2.87396,24.65037 -6.21179,36.4943 -2.04577,8.61377 -5.6113,17.00988 -7.76474,25.62365 -4.52223,15.50479 -12.77557,29.14249 -17.08244,44.64728 -3.76853,12.81298 -13.20316,23.4235 -15.14125,36.88253 -2.79947,11.84393 -11.3955,21.30634 -15.91772,32.61192 -7.214039,14.3204 -12.677139,30.00078 -22.905999,42.70609 -15.720126,22.50346 -32.98356,46.05088 -36.106052,74.1533 -3.230163,13.67437 -8.002858,26.65985 -8.541218,40.7649 -2.584131,9.47515 2.188563,18.84031 8.541218,25.62365 2.368787,2.47646 5.506716,7.50078 9.705929,4.27061 6.029639,-1.61508 10.015436,-6.82154 14.753013,-10.4824 12.59763,-8.18309 26.02733,-15.33268 35.717819,-27.17661 8.39842,-11.30557 20.26899,-19.4273 30.2825,-29.11778 9.36747,-8.61377 15.80581,-20.28559 26.78836,-27.1766 10.22885,-7.3217 20.45849,-14.96412 27.56484,-25.62366 -2.36879,12.27462 -7.51003,23.93912 -10.09416,36.10606 -1.07676,16.36618 -3.06345,32.44405 -3.49414,48.91788 -3.10797,7.88604 -13.16304,12.52576 -16.30596,13.5883 -4.57996,2.2298 -12.46148,2.90969 -11.25888,7.37651 2.79948,11.62859 9.60135,21.9327 11.64712,33.77663 1.9381,8.18309 4.73024,16.0802 8.92945,23.29423 12.27462,-4.84523 19.14365,-17.55134 26.78837,-27.56484 6.42617,-13.11635 12.84876,-28.91576 20.57657,-39.21195 8.18308,-11.84393 14.38753,-25.56037 15.14125,-39.98843 1.18434,-19.05797 5.39596,-37.84 7.76474,-56.68262 4.95291,-22.71881 13.09433,-45.36664 27.95307,-63.6709 16.2585,-21.21142 39.7646,-34.59749 61.72971,-48.91788 11.52092,-7.42937 22.19049,-16.10296 33.3884,-24.07071 6.02964,12.92066 7.14148,27.54399 8.54122,41.54138 1.39974,28.42543 -4.7179,56.70618 -1.16471,85.02394 2.47645,6.24499 7.40545,11.18015 12.03535,15.91772 17.65822,16.58152 32.31361,35.76839 48.14141,53.96497 8.82912,10.33652 18.36408,20.79076 24.0707,33.3884 2.58413,5.38361 4.29646,11.31059 6.98827,16.69419 5.92197,9.90584 12.99398,19.03907 19.02362,28.72955 11.41324,-1.93809 25.74676,-7.42628 35.32958,1.94119 5.38361,2.90716 5.78111,9.47709 6.2118,14.75301 -1.18906,3.9799 -4.30039,9.27641 -3.88237,12.03535 22.93415,5.38362 47.33677,3.61532 70.27092,-1.55294 -0.98941,-13.99499 -13.23447,-23.31362 -18.24714,-31.44722 -7.53705,-10.87488 -20.18099,-16.1485 -29.11779,-25.62365 -11.1979,-11.73626 -22.68639,-23.48565 -33.77663,-35.32958 -8.72145,-9.36747 -15.67227,-19.81554 -24.07071,-29.50603 -13.02833,-13.35134 -23.23827,-29.38368 -28.72955,-47.36493 -3.44551,-15.61246 -7.24607,-31.71003 -6.60003,-47.75317 -0.43073,-19.381 5.82665,-38.01289 7.76474,-57.07086 2.26111,-19.704 1.82928,-40.6198 12.81183,-57.84734 2.26112,-2.36878 3.67321,-8.08776 7.76474,-7.76475 12.81299,0.96904 25.27673,3.32741 37.65901,6.98827 24.97994,7.3217 50.14549,14.52108 76.09448,17.85891 43.93023,6.78334 88.63154,1.16161 132.77711,-0.77647 5.70662,-0.10809 11.37581,0.17293 17.08244,0.38824 3.23017,9.79816 6.99444,19.53497 10.87064,29.11778 3.8762,12.48996 5.67653,25.6225 8.15298,38.43548 3.66086,20.02702 10.50516,39.33083 11.25888,59.78853 -0.32301,9.04446 3.03759,17.85158 0.77647,26.78836 -2.6918,7.64472 -7.40853,14.56662 -13.97653,19.41186 -16.04316,12.92066 -29.16526,28.83607 -45.42375,41.54138 -3.1225,3.66086 -7.66325,1.31483 -11.64712,0.77647 -0.86505,-3.46361 -4.7963,-5.29747 -7.3765,-7.76474 -6.30726,-1.58186 -13.18425,-1.95964 -17.85891,3.49413 -8.18309,8.82912 -15.76027,18.19429 -25.23542,25.62365 -4.6299,4.6299 -9.96681,9.13439 -11.25888,15.91773 9.39502,3.63678 19.0209,6.12377 28.72955,8.54122 -0.072,0.15715 -0.3163,0.23095 -0.38823,0.38823 0.53421,-0.041 1.02047,-0.3327 1.55294,-0.38823 0.27382,0.0683 0.50291,0.31978 0.77648,0.38823 0.0509,-0.1056 -0.0509,-0.28288 0,-0.38823 13.35746,-1.56571 25.97585,-7.14533 39.60019,-5.82356 5.59895,0.32301 10.70701,3.55936 16.30596,3.88237 8.72145,-0.96904 16.46844,-6.13307 23.68247,-10.87064 8.50609,-5.49128 14.00856,-14.3119 20.57657,-21.74128 8.50609,-9.69049 17.18278,-18.86617 26.01189,-28.34131 5.27594,-6.35266 13.68247,-9.6303 18.63538,-16.30597 11.84393,-13.45902 10.40058,-32.61692 13.20007,-49.30612 -1.18447,-35.5318 6.48194,-70.64952 13.5883,-105.21227 15.8278,20.24235 30.43455,41.57534 44.64727,62.89442 7.32171,11.73627 15.73132,22.97005 20.57657,36.10606 1.93809,6.67567 8.20159,11.16046 11.64712,17.08243 5.06058,8.93679 11.57148,16.59889 18.24714,24.45895 13.91998,16.86393 37.22658,36.77754 66.77677,90.07102 6.1373,1.83043 10.5538,6.73665 14.753,11.25888 -1.5074,4.84525 -4.5056,10.36122 -3.1059,15.52948 1.6905,3.66712 2.4804,6.0631 3.4942,8.54122 18.6273,2.6918 37.8172,1.7818 55.9061,-3.49413 3.8763,-1.72275 10.6326,-3.65353 10.0942,-8.92946 -4.5223,-8.07542 -10.7722,-14.91549 -16.6942,-22.12952 -0.1484,0.0982 -0.2399,0.28972 -0.3883,0.38824 -7.451,-12.85955 -23.6816,-16.67156 -31.4472,-29.11779 -8.6138,-12.92065 -17.4436,-25.81507 -27.5648,-37.659 -12.92069,-18.08891 -23.67509,-37.77788 -32.61189,-58.23558 -9.47516,-21.85744 -23.99817,-40.99453 -32.61195,-63.28266 -4.84525,-12.38229 -10.59624,-24.06954 -14.36477,-36.88253 -8.5061,-24.22622 -14.81091,-49.08537 -24.07071,-72.98858 -0.96904,-2.90715 -2.71766,-5.80696 -2.71766,-8.92946 0.86133,-11.62859 6.49545,-22.36338 8.54122,-33.77663 2.15345,-9.90584 1.46805,-19.88076 2.32943,-29.89426 0.96904,-13.24367 7.34024,-25.27672 11.64711,-37.65901 11.73627,-31.97862 30.73789,-60.76452 45.81203,-91.23573 10.4442,-21.21141 18.4084,-45.07989 38.43539,-59.40029 12.49,10.98255 27.2014,18.75231 42.7061,24.45894 16.4739,11.09023 33.8044,21.19559 51.2473,30.67074 8.3985,3.98387 9.2193,13.94334 15.1413,20.18833 2.907,3.23017 6.0679,6.58034 10.4824,7.76474 8.8291,4.73758 18.9739,1.81075 28.3413,1.16472 7.5371,-1.83042 14.3057,-7.58144 17.8589,-14.36478 3.7686,-7.32171 9.2359,-13.60065 12.0354,-21.35304 2.3688,-8.18309 -2.0323,-15.97253 -5.0471,-23.29423 -8.5061,-26.37967 -29.6323,-45.39867 -41.1532,-70.27093 -4.4145,-6.67567 -3.1059,-14.9807 -3.1059,-22.51776 1.0768,-16.5815 -1.0921,-34.10158 -9.7059,-48.52964 -8.8291,-16.90453 -24.9082,-28.020229 -36.106,-43.094329 -1.1845,-5.598951 -2.8906,-11.375809 -3.1059,-17.082435 0.2153,-5.598952 1.4193,-11.41826 -1.1648,-16.694198 z M 272.3036,446.6856 c 5.27594,16.47384 8.84147,33.63153 7.76475,50.85907 -5.49128,13.67436 -15.26745,25.33575 -26.78837,34.16487 1.18434,-12.05928 6.21488,-23.37798 8.15298,-35.32958 3.01482,-16.68919 6.88677,-33.22052 10.87064,-49.69436 z" id="path3032" inkscape:connector-curvature="0" sodipodi:nodetypes="ccccccccccccccccccccccccccccccccccccccccccccccccccccccccccccccccccccccccccccccccccccccccccccccccccccccccccccccccccccccccccccccccccccccccccccc"/>
    </g>
  </g>
</svg>