<svg xmlns="http://www.w3.org/2000/svg" xmlns:xlink="http://www.w3.org/1999/xlink" version="1.1" x="0px" y="0px" width="100px" height="100px" viewBox="0 0 100 100" enable-background="new 0 0 100 100" xml:space="preserve">
<g id="Captions">
</g>
<g id="Your_Icon">
</g>
<g id="Layer_1">
	<path d="M73.348,23.821c-0.152,0-0.298,0.019-0.447,0.027c0.01-0.265,0.032-0.525,0.032-0.793C72.933,9.912,63.072,0,50.002,0   C37.093,0,27.334,9.672,27.093,22.571c-0.147-0.01-0.291-0.03-0.44-0.03c-4.475,0-8.114,3.762-8.114,8.389   c0,4.625,3.64,8.388,8.114,8.388c0.538,0,1.067-0.073,1.59-0.185c1.761,6.115,4.785,16.522,7.887,26.848   C46.351,100,47.127,100,49.431,100c2.281,0,3.051,0,13.861-33.982c3.091-9.717,6.111-19.505,8.016-25.724   c0.663,0.182,1.339,0.305,2.04,0.305c4.475,0,8.114-3.764,8.114-8.387C81.462,27.584,77.822,23.821,73.348,23.821z M31.945,23.055   c0-10.535,7.594-18.181,18.057-18.181c10.462,0,18.056,7.646,18.056,18.181c0,1.033-0.092,2.042-0.234,3.032   c-0.286,0.279-0.562,0.574-0.808,0.898c-0.946-0.394-1.963-0.6-3.007-0.6c-2.458,0-4.713,1.146-6.217,3.024   c-2.497-1.079-5.575-0.727-7.792,0.888c-2.115-1.542-5.013-1.953-7.462-1.014c-1.488-2.12-3.889-3.448-6.547-3.448   c-0.887,0-1.76,0.152-2.59,0.448c-0.385-0.6-0.847-1.139-1.361-1.614C31.999,24.135,31.945,23.602,31.945,23.055z M36.077,48.656   l1.252-1.341l3.035,3.248l-2.836,3.035C37.04,51.939,36.556,50.293,36.077,48.656z M34.94,44.758l1.276,1.366l-0.67,0.719   C35.343,46.141,35.143,45.452,34.94,44.758z M40.526,43.894c0.961,0.737,2.078,1.249,3.287,1.486l0.698,0.746l-3.037,3.246   l-3.033-3.248L40.526,43.894z M55.631,45.481c1.302-0.16,2.515-0.65,3.567-1.391l1.9,2.034l-3.037,3.248l-3.033-3.246   L55.631,45.481z M56.951,50.563l-3.035,3.25l-3.035-3.249l3.035-3.247L56.951,50.563z M49.77,69.508l3.034,3.25l-3.035,3.248   l-3.035-3.248L49.77,69.508z M45.622,71.566l-3.036-3.248l3.036-3.25l3.035,3.25L45.622,71.566z M50.881,68.318l3.035-3.25   l3.035,3.25l-3.035,3.248L50.881,68.318z M49.77,67.127l-3.036-3.248l3.036-3.248l3.034,3.248L49.77,67.127z M45.622,56.191   l3.035,3.248l-3.035,3.25l-3.035-3.248L45.622,56.191z M41.475,58.252l-3.033-3.25l3.033-3.25l3.037,3.25L41.475,58.252z    M50.881,59.439l3.035-3.248l3.035,3.25l-3.035,3.248L50.881,59.439z M55.028,55.002l3.033-3.25l3.037,3.25l-3.037,3.25   L55.028,55.002z M52.804,55.002l-3.034,3.25l-3.036-3.25l3.036-3.25L52.804,55.002z M45.622,53.812l-3.035-3.25l3.035-3.246   l3.035,3.247L45.622,53.812z M38.744,57.705l1.62,1.736l-0.838,0.895C39.267,59.461,39.006,58.586,38.744,57.705z M41.475,60.631   l3.035,3.248l-2.965,3.176c-0.489-1.619-0.982-3.256-1.479-4.916L41.475,60.631z M42.683,70.801l1.827,1.957l-0.925,0.99   C43.288,72.781,42.987,71.799,42.683,70.801z M45.622,73.947l3.035,3.25l-2.997,3.207c-0.491-1.555-0.998-3.172-1.522-4.867   L45.622,73.947z M46.854,84.143l1.804,1.93l-0.867,0.93C47.49,86.102,47.178,85.146,46.854,84.143z M46.733,81.635l3.036-3.248   l3.034,3.248l-3.034,3.248L46.733,81.635z M51.973,84.904c-0.203,0.594-0.397,1.148-0.591,1.707l-0.501-0.539L51.973,84.904z    M53.594,80.1l-2.713-2.902l3.035-3.25l1.263,1.35C54.635,76.961,54.104,78.568,53.594,80.1z M55.028,72.758l1.498-1.605   c-0.261,0.803-0.518,1.602-0.771,2.383L55.028,72.758z M57.883,66.934l-2.854-3.055l3.033-3.248l1.365,1.457   C58.907,63.727,58.392,65.338,57.883,66.934z M59.174,59.441l1.643-1.758c-0.276,0.879-0.552,1.752-0.828,2.627L59.174,59.441z    M62.074,53.668l-2.9-3.105l3.035-3.248l1.384,1.48C63.092,50.411,62.586,52.035,62.074,53.668z M63.32,46.125l1.641-1.756   c-0.27,0.874-0.54,1.755-0.815,2.64L63.32,46.125z M62.209,44.936l-1.78-1.907c0.156-0.165,0.313-0.331,0.457-0.511   c0.937,0.406,1.95,0.614,2.993,0.632L62.209,44.936z M50,44.01c0.522,0.381,1.093,0.672,1.684,0.917l1.12,1.199l-3.034,3.248   l-3.036-3.248l0.874-0.937C48.463,44.932,49.273,44.54,50,44.01z M38.784,42.093c0.171,0.244,0.355,0.475,0.55,0.696l-2.005,2.146   l-2.224-2.381c0.292,0.033,0.586,0.059,0.886,0.059C36.953,42.614,37.896,42.436,38.784,42.093z M48.375,88.754l1.395-1.492   l1.007,1.08c-0.474,1.332-0.914,2.553-1.303,3.578C49.144,91.004,48.771,89.918,48.375,88.754z M73.348,35.724   c-0.812,0-1.593-0.336-2.199-0.948c-0.607-0.616-1.497-0.86-2.334-0.647c-0.838,0.212-1.499,0.854-1.738,1.685   c-0.427,1.48-1.662,2.476-3.067,2.476c-0.828,0-1.618-0.345-2.225-0.97c-0.598-0.614-1.473-0.871-2.311-0.675   c-0.834,0.197-1.504,0.819-1.763,1.638c-0.452,1.428-1.674,2.387-3.041,2.387c-1.04,0-2.023-0.553-2.634-1.479   c-0.451-0.686-1.216-1.099-2.034-1.099l0,0c-0.819,0-1.584,0.413-2.034,1.095c-0.612,0.929-1.6,1.482-2.638,1.482   c-1.471,0-2.754-1.089-3.122-2.648c-0.2-0.854-0.845-1.534-1.687-1.78c-0.843-0.249-1.752-0.021-2.382,0.589   c-0.429,0.416-1.148,0.911-2.148,0.911c-1.539,0-2.872-1.19-3.17-2.831c-0.162-0.878-0.787-1.598-1.636-1.877   c-0.848-0.279-1.78-0.071-2.431,0.538c-0.424,0.399-1.134,0.872-2.103,0.872c-1.787,0-3.24-1.575-3.24-3.513   c0-1.938,1.453-3.514,3.24-3.514c1.539,0,2.872,1.188,3.17,2.829c0.162,0.878,0.787,1.598,1.635,1.877   c0.849,0.278,1.779,0.073,2.431-0.538c0.425-0.397,1.134-0.872,2.104-0.872c1.471,0,2.755,1.088,3.123,2.648   c0.199,0.854,0.844,1.534,1.688,1.781c0.841,0.246,1.752,0.02,2.38-0.592c0.429-0.414,1.146-0.909,2.148-0.909   c1.038,0,2.025,0.556,2.636,1.482c0.452,0.684,1.216,1.095,2.036,1.095l0,0c0.818,0,1.583-0.413,2.034-1.097   c1.098-1.666,3.493-1.917,4.858-0.509c0.596,0.615,1.471,0.867,2.31,0.672c0.835-0.196,1.504-0.818,1.763-1.637   c0.452-1.427,1.674-2.387,3.042-2.387c0.812,0,1.593,0.338,2.199,0.949c0.607,0.615,1.498,0.861,2.334,0.647   c0.838-0.213,1.499-0.854,1.739-1.686c0.427-1.479,1.659-2.475,3.066-2.475c1.787,0,3.24,1.577,3.24,3.516   C76.588,34.147,75.135,35.724,73.348,35.724z"/>
</g>
<g id="Layer_2">
</g>
</svg>