<svg xmlns="http://www.w3.org/2000/svg" xmlns:xlink="http://www.w3.org/1999/xlink" version="1.1" id="Layer_1" x="0px" y="0px" width="100px" height="100px" viewBox="0 0 100 100" enable-background="new 0 0 100 100" xml:space="preserve">
<path d="M86.191,16.459c-1.318-2.615-6.072-6.362-13.168-2.158c-3.123,1.85-2.73,4.24-4.093,6.958  c-0.706,1.411-1.08,1.536-1.08,1.536c0-0.001-0.344,0.293-0.879,0.569c0,0-0.675,0.107-1.684-0.086  c-0.967-0.522-2.167-1.406-3.229-0.871c-1.313,0.663-0.765,2.886-2.636,3.83c-1.819,0.918-3.089-1.099-4.565-0.354  c-1.415,0.714-0.313,2.66-2.74,3.883c-1.99,1.003-3.017-1.031-4.916-0.074c-1.606,0.811-0.416,2.476-2.708,3.632  c-1.752,0.884-3.169-0.458-4.326,0.125c-1.28,0.646-1.043,2.448-2.728,3.667c-1.279,0.285-2.816-0.952-4.071-0.379  c-1.605,0.733-1.158,2.533-2.376,3.853c-0.065,0.035-0.124,0.067-0.192,0.105c-1.294,0.351-2.865-0.942-4.144-0.359  c-1.474,0.673-1.239,2.216-2.023,3.598c-0.61,0.791-1.375,1.287-2.179,1.834c-3.174,1.302-7.039,4.54-8.867,9.999  c-1.488,4.442-1.99,11.684,4.067,20.947c3.561,5.448,8.692,9.227,14.571,10.868c1.93,0.539,3.939,0.847,6.002,0.908  c8.449,0.252,16.749-3.699,21.659-10.312c4.68-6.304,6.698-12.528,5.682-17.53c-0.563-2.776-2.066-5.004-4.227-6.273  c-2.779-1.634-6.073-1.844-8.811-0.565c-3.138,1.461-5.273,4.674-6.012,9.045c-0.204,1.216,0.634,2.368,1.829,2.573  c1.216,0.205,2.368-0.614,2.573-1.828c0.487-2.881,1.729-4.922,3.496-5.747c1.408-0.656,3.152-0.516,4.665,0.371  c1.068,0.627,1.8,1.774,2.113,3.314c0.749,3.689-1.032,8.785-4.891,13.98c-4.055,5.459-10.93,8.719-17.944,8.511  c-6.964-0.21-12.993-3.674-16.971-9.757c-5.079-7.768-4.744-13.581-3.57-17.09c1.035-3.09,2.939-5.198,4.734-6.413  c0.46-0.266,4.978-2.658,12.13,0.908c0.039,0.019,0.073,0.036,0.11,0.053c0.048,0.025,0.094,0.043,0.143,0.067l0.001-0.002  c0.491,0.216,0.82,0.29,0.82,0.29c0.772,0.216,1.668,0.936,1.814,2.491c0.214,2.28,0.834,5.082,0.08,6.175  c-0.754,1.096-3.371,3.591-2.434,4.393c0.745,0.637,1.957-2.483,2.748-2.078c0.79,0.406-0.775,3.217,0.574,3.413  c1.209,0.176,0.714-2.953,1.117-3.068c0.403-0.112,1.486,3.416,2.221,2.901c1.028-0.72-0.125-1.461-0.619-2.53  c-0.495-1.069-0.683-1.738-0.333-5.124c0.304-2.922,0.849-5.166,0.992-5.725c0.401-1.555,8.353,0.412,16.237-3.565  c6.947-3.503,10.855-8.925,11.688-10.167c0,0,0.484-0.677,0.944-0.179c0.461,0.497,1.01,0.978,1.797,1.403  c2.229,1.208,5.401,1.728,6.774,1.973c1.373,0.244,3.846,2.825,4.435,1.514c0.407-0.912-2.751-1.894-2.067-2.239  c0.685-0.345,3.401,0.55,3.49-0.979c0.064-1.122-4.303,0.296-3.215-0.644s3.3-1.664,2.486-2.659  c-0.815-0.995-2.429,1.38-4.361,1.574s-5.49-0.355-5.783-4.19c-0.294-3.834,4.651-7.5,4.651-7.5  c5.539-3.575,7.305-6.731,7.085-7.322c-0.222-0.592-6.166,2.485-6.604,2.081c-0.438-0.404,4.262-3.165,5.756-4.074  C86.723,17.05,86.191,16.459,86.191,16.459z"/>
</svg>