<svg xmlns="http://www.w3.org/2000/svg" xmlns:xlink="http://www.w3.org/1999/xlink" xmlns:a="http://ns.adobe.com/AdobeSVGViewerExtensions/3.0/" version="1.1" x="0px" y="0px" width="100px" height="100px" viewBox="-3.316 -0.194 100 100" enable-background="new -3.316 -0.194 100 100" xml:space="preserve">
<defs>
</defs>
<path fill="#000000" d="M81.271,99.341c-1.989,1.216-4.421-1.368-2.139-3.381c7.497-4.744,2.36-19.367-2.11-28.385  C72.455,93.47,55.804,94.74,47.366,94.803v0.003l-1.239-0.003c-8.498-0.063-25.329-1.353-29.753-27.792  c-4.527,8.962-10.017,24.52-2.396,28.949c1.962,1.266,0.955,4.513-2.139,3.381c-14.176-8.972,3.02-37.669,3.745-38.873l0.02,0.255  c-0.546-6.667,0.143-11.322,2.274-16.078c-1.455,0.197-3.161,0.626-4.375,1.497c-0.356,0.447-0.581,2.797-0.745,4.513  c-0.552,5.771-1.33,14.453-10.046,17.927c-2.654,0.536-3.762-2.368-1.474-3.719c6.385-2.531,7.024-9.217,7.538-14.588  c0.325-3.398,0.582-6.082,2.396-7.383c2.805-2.012,6.665-2.347,8.445-2.388c-0.313-1.196-0.297-2.643,0.043-4.366v0  c0.15-0.758,0.309-1.493,0.476-2.203c-5.927-0.493-10.258-3.206-12.13-7.714c-2.372-5.71-0.134-12.824,5.553-18.026  c2.249-1.702,4.312,1.485,2.661,2.986c-4.35,4.437-6.212,9.432-4.52,13.505c1.358,3.27,4.7,5.116,9.52,5.313  c2.898-9.063,7.373-13.383,11.934-15.406c-0.009-0.017-0.018-0.034-0.026-0.051c-0.396-0.77-0.62-2.033,0.559-3.682  c0.397-0.555,0.882-1.128,1.448-1.691c-0.35-0.007-0.706-0.01-1.061-0.013c-1.539-0.014-3.283-0.029-5.069-0.302  c-3.428-0.525-4.711-0.722-5.189-2.27c-0.433-1.399,0.589-2.354,1.2-2.925c0.761-0.711,1.198-0.868,2.855-2.167  c1.938-1.525,3.75-2.313,3.349-0.225c-0.475,1.546-1.643,2.594-2.328,3.475c0.088,0.014,0.641,0.146,0.719,0.158  c1.502,0.23,3.037,0.486,4.51,0.499c2.104,0.019,4.119-0.206,5.749,0.495c1.904-0.873,4.113-1.441,6.554-1.441  c0.016,0,0.031,0,0.047,0c2.516,0.007,4.822,0.597,6.809,1.465c1.639-0.725,3.713-0.5,5.842-0.519  c1.473-0.013,2.97-0.269,4.472-0.499c0.078-0.012,0.711-0.04,0.8-0.053c-0.686-0.881-1.772-1.667-2.409-3.58  c-0.487-1.465,1.138-1.462,2.95-0.15c2.491,1.804,2.494,1.831,3.255,2.542c0.61,0.571,1.633,1.525,1.2,2.925  c-0.479,1.548-1.762,1.745-5.19,2.27c-1.786,0.273-3.53,0.289-5.069,0.302c-0.282,0.002-0.565,0.005-0.846,0.009  c0.633,0.589,1.146,1.168,1.522,1.695c1.179,1.648,0.955,2.909,0.561,3.676c-0.032,0.062-0.065,0.122-0.101,0.18  c4.574,2.015,9.082,6.289,11.989,15.284c4.83-0.194,8.178-2.041,9.538-5.315c1.691-4.073-0.119-9.316-4.521-13.505  c-2.151-1.501,0.036-5.001,2.66-2.986c5.693,5.072,7.926,12.315,5.554,18.025c-1.873,4.51-6.208,7.223-12.139,7.715  c0.17,0.718,0.331,1.462,0.483,2.23c0.338,1.708,0.356,3.146,0.053,4.339c1.784,0.041,5.637,0.378,8.438,2.387  c1.813,1.301,2.07,3.985,2.396,7.383c0.514,5.372,1.172,11.958,7.538,14.588c2.616,1.38,0.782,4.509-1.475,3.719  c-8.66-3.433-9.494-12.155-10.046-17.927c-0.164-1.716-0.389-4.066-0.801-4.562c-1.242-0.887-2.959-1.283-4.359-1.458  c2.169,4.738,2.844,9.525,2.313,16.152C78.807,62.322,95.192,90.626,81.271,99.341z M48.504,54.413l0.224,36.339  c11.469-0.503,21.989-4.867,24.813-26.89c1.154-9.011,0.461-14.138-2.761-19.813c-1.794,0.739-4.178,0.775-7.048,0.555  c-1.842-0.141-3.431-0.412-5.113-0.699c-1.237-0.211-2.512-0.429-4.021-0.621c0,0.018,0,0.036,0,0.053h-1.043  C52.364,44.15,50.025,48.549,48.504,54.413z M22.69,43.993c-3.169,5.616-3.882,10.937-2.737,19.87  C22.773,85.86,33.273,90.239,44.728,90.75l-0.222-36.028c-1.322-5.241-3.54-10.39-4.859-11.385H38.63c0-0.008,0-0.017,0-0.025  c-1.429,0.179-2.648,0.377-3.835,0.571c-1.657,0.27-3.222,0.525-5.035,0.665C26.873,44.77,24.483,44.734,22.69,43.993z   M42.992,41.119c1.4,1.586,2.567,3.977,3.501,6.462c0.962-2.451,2.21-4.905,3.747-6.518c-0.524-1.3-1.647-1.882-3.494-1.882  C44.502,39.181,43.461,40.021,42.992,41.119z M53.936,39.202c0.155,0,0.311,0.009,0.469,0.028c1.91,0.223,3.492,0.493,4.888,0.731  c1.657,0.283,3.089,0.527,4.746,0.654c1.205,0.093,4.861,0.375,5.728-0.602c0.395-0.445,0.445-1.536,0.142-3.071  c-4.012-20.278-14.39-20.089-21.256-19.961c-0.719,0.013-1.388,0.027-2,0.015c-0.254-0.004-0.518-0.011-0.791-0.02  c-1.92-0.001-3.59-0.009-5.034-0.053c-6.415,0.354-13.928,3.247-17.242,19.992v0c-0.302,1.53-0.254,2.615,0.137,3.055  c0.857,0.965,4.525,0.682,5.732,0.59c1.643-0.126,3.059-0.357,4.698-0.625c1.412-0.23,3.012-0.491,4.949-0.706  c0.126-0.014,0.252-0.021,0.376-0.021c1.233-2.576,3.764-4.026,7.27-4.026c3.39,0,5.838,1.45,7.032,4.025  C53.83,39.204,53.883,39.202,53.936,39.202z M45.923,12.975c0.181,0,0.361,0,0.542,0v-0.033c1.256,0,2.522,0,3.726-0.011  c-0.166-1.522-0.085-2.777,0.244-3.82c-1.209-0.399-2.546-0.654-3.976-0.659c-0.012,0-0.023,0-0.035,0  c-1.338,0-2.568,0.23-3.674,0.601c0.341,1.043,0.43,2.301,0.268,3.831c0.776,0.01,1.51,0.039,2.189,0.064  C45.453,12.958,45.691,12.967,45.923,12.975z M37.358,12.657c0.441,0.073,0.998,0.13,1.638,0.173c0.104-0.781,0.117-1.364,0.082-1.8  C38.371,11.579,37.793,12.146,37.358,12.657z M54.132,10.961c-0.042,0.441-0.034,1.043,0.075,1.864  c0.75-0.043,1.396-0.101,1.898-0.18C55.639,12.137,54.969,11.541,54.132,10.961z"/>
</svg>