<svg xmlns="http://www.w3.org/2000/svg" xmlns:xlink="http://www.w3.org/1999/xlink" xmlns:sketch="http://www.bohemiancoding.com/sketch/ns" width="16px" height="10px" viewBox="0 0 16 10" version="1.1">
    <title>israel_flag</title>
    <description>Created with Sketch (http://www.bohemiancoding.com/sketch)</description>
    <defs/>
    <g id="Page-3" stroke="none" stroke-width="1" fill="none" fill-rule="evenodd" sketch:type="MSPage">
        <path d="M7.68308892,3.85117896 L8.29617192,2.81013997 L8.90925494,3.85117896 L10.1923499,3.85117896 L9.55080242,4.94055173 L10.19235,6.02992462 L8.90925487,6.02992462 L8.29617187,7.07096361 L7.68308886,6.02992462 L6.3999939,6.02992462 L7.04154137,4.94055185 L6.39999381,3.85117896 L7.68308892,3.85117896 Z M0,7.5 L0,8.75 L16,8.75 L16,7.5 L0,7.5 Z M0,1.25 L0,2.5 L16,2.5 L16,1.25 L0,1.25 Z M7.18710543,5.18868274 L6.84935939,5.76218877 L7.52817737,5.76218877 L7.18710543,5.18868274 Z M7.97170939,3.85639446 L8.63099517,3.86309968 L8.29937788,3.30000051 L7.97170939,3.85639446 Z M9.07084156,5.76218877 L9.74939635,5.76218877 L9.40914719,5.18443233 L9.07084156,5.76218877 Z M7.52974462,4.11666617 L6.84935939,4.11666616 L7.19102652,4.69605845 L7.52974462,4.11666617 Z M8.62457818,6.02665152 L7.97738019,6.03208973 L8.29937786,6.57885442 L8.62457818,6.02665152 Z M9.40493466,4.70157562 L9.74939635,4.11666616 L9.07044824,4.11666617 L9.40493466,4.70157562 Z M8.78108107,5.76090349 L9.26276689,4.94298208 L8.7743599,4.11666617 L7.81602652,4.11666617 L7.33408166,4.93974359 L7.81551949,5.75724392 L8.78108107,5.76090349 Z" id="israel_flag" fill="#000000" sketch:type="MSShapeGroup"/>
    </g>
</svg>