<svg xmlns="http://www.w3.org/2000/svg" xmlns:xlink="http://www.w3.org/1999/xlink" version="1.1" id="Calque_4" x="0px" y="0px" viewBox="0 0 100 100" enable-background="new 0 0 100 100" xml:space="preserve" height="100px" width="100px">
<path d="M40.808,38.323c-0.92,0.022-1.706,0.55-2.109,1.315c-0.181,0.342-0.292,0.726-0.292,1.14c0,1.36,1.102,2.462,2.462,2.462  s2.462-1.102,2.462-2.462c0-1.359-1.102-2.462-2.462-2.462C40.848,38.317,40.829,38.322,40.808,38.323z"/>
<circle cx="55.092" cy="40.778" r="2.462"/>
<polygon points="64.681,23.677 46.046,26.011 28.226,28.243 27.017,34.734 67.635,29.647 "/>
<path d="M26.981,15.776l0.584,5.199l-2.237,0.28l2.915,5.759l0.002,0.017l0.005-0.002l0.008,0.016l18.636-2.334l17.82-2.232  l1.231-6.31l-2.218,0.278l-0.716-5.183c1.145-0.237,2.088-1.188,2.281-2.458c0.245-1.613-0.807-3.11-2.35-3.345  c-1.543-0.235-2.993,0.882-3.238,2.495c-0.188,1.233,0.387,2.394,1.356,2.98l-2.917,6.21l-0.279,0.035l-2.773-8.758  c1.088-0.426,1.858-1.523,1.834-2.808c-0.03-1.631-1.319-2.93-2.88-2.901c-1.56,0.029-2.801,1.374-2.771,3.005  c0.023,1.247,0.785,2.295,1.839,2.708l-2.678,9.683l-9.579,1.2l-4.983-8.723c0.919-0.661,1.399-1.864,1.114-3.078  c-0.373-1.588-1.907-2.586-3.427-2.229c-1.519,0.357-2.448,1.934-2.075,3.522c0.294,1.251,1.31,2.124,2.47,2.269l-0.528,9.171  l-0.279,0.035l-4.359-5.299c0.795-0.806,1.065-2.073,0.579-3.222c-0.635-1.502-2.316-2.227-3.753-1.619  c-1.437,0.608-2.087,2.319-1.452,3.821C24.665,15.14,25.814,15.829,26.981,15.776z"/>
<path d="M75.746,73.54c0.247-1.169,1.074-2.128,2.275-2.644c-1.07-0.752-1.682-1.861-1.683-3.056  c-0.001-1.195,0.609-2.306,1.677-3.059c-1.203-0.513-2.033-1.47-2.282-2.639c-0.25-1.169,0.116-2.381,1.004-3.341  c-1.283-0.251-2.293-1.016-2.781-2.107c-0.408-0.914-0.4-1.948,0.006-2.92c-0.859,0.734-1.866,1.208-2.956,1.376  c-0.134,0.021-0.27,0.037-0.405,0.048c-1.195,3.057-3.016,5.834-5.349,8.15c0.084,0.82,0.126,1.643,0.126,2.459  c0,11.1-7.515,20.131-16.752,20.131s-16.752-9.031-16.752-20.131c0-0.809,0.042-1.627,0.124-2.441  c-2.395-2.374-4.254-5.242-5.447-8.4c-0.971-0.326-1.891-0.9-2.712-1.695c-0.067,0.003-0.134,0.005-0.202,0.005l-0.057-0.001  c0.672,1.122,0.78,2.385,0.295,3.477c-0.485,1.092-1.494,1.858-2.776,2.113c0.89,0.957,1.258,2.169,1.011,3.338  c-0.247,1.17-1.075,2.129-2.276,2.644c1.07,0.752,1.682,1.861,1.683,3.056c0.001,1.195-0.608,2.305-1.675,3.059  c1.202,0.512,2.031,1.47,2.281,2.638c0.25,1.169-0.116,2.382-1.004,3.342c1.282,0.251,2.293,1.016,2.78,2.107  c0.487,1.091,0.382,2.353-0.287,3.477c0.025,0,0.049-0.001,0.074-0.001c1.299,0,2.435,0.558,3.119,1.532  c0.673,0.959,0.82,2.198,0.407,3.412c0.323-0.074,0.647-0.112,0.964-0.112c1.082,0,2.051,0.428,2.728,1.205  c0.69,0.792,0.993,1.852,0.857,2.994c0.564-0.262,1.144-0.395,1.724-0.395c1.9,0,3.391,1.444,3.575,3.447  c0.718-0.54,1.531-0.825,2.356-0.825c1.6,0,2.95,1.06,3.461,2.708c0.772-0.886,1.784-1.373,2.858-1.373  c1.321,0,2.52,0.748,3.224,2.006c0.703-1.262,1.903-2.013,3.227-2.013c1.071,0,2.082,0.485,2.854,1.367  c0.508-1.653,1.859-2.716,3.464-2.716c0.822,0,1.633,0.283,2.35,0.819c0.18-2.007,1.672-3.454,3.576-3.454  c0.577,0,1.154,0.131,1.716,0.391c-0.139-1.144,0.163-2.205,0.853-2.999c0.677-0.779,1.648-1.208,2.732-1.208  c0.314,0,0.634,0.037,0.954,0.109c-0.415-1.215-0.27-2.455,0.403-3.415c0.684-0.976,1.822-1.536,3.124-1.536l0.064,0.001  c-0.672-1.121-0.781-2.384-0.295-3.477c0.485-1.092,1.494-1.859,2.776-2.113C75.868,75.921,75.5,74.709,75.746,73.54z"/>
<path d="M22.815,46.403c0.271,1.753,0.921,3.269,1.782,4.423c0.99,1.327,2.264,2.171,3.616,2.257  c1.185,3.749,3.327,6.971,6.093,9.453c-0.159,1.061-0.245,2.153-0.245,3.271c0,9.91,6.521,17.943,14.564,17.943  s14.564-8.033,14.564-17.943c0-1.123-0.087-2.221-0.247-3.286c2.834-2.548,4.988-5.848,6.149-9.638  c0.523,0.15,1.055,0.187,1.58,0.105c1.196-0.185,2.181-0.946,2.869-2.065c0.723-1.176,1.117-2.749,1.055-4.493  c-0.014-0.411-0.049-0.83-0.115-1.256c-0.604-3.905-3.178-6.651-5.888-6.31c-0.978-2.545-2.4-4.808-4.15-6.731  c-0.868,0.051-1.905,0.1-3.063,0.135c2.304,2.057,4.122,4.699,5.235,7.773c0.067,0.186,0.141,0.367,0.203,0.556l0.236,0.72  l0.176,0.535l0.889-0.458l0.286-0.147c0.039-0.02,0.077-0.023,0.116-0.039c0.104-0.043,0.207-0.088,0.311-0.104  c0.953-0.148,2.16,0.819,2.887,2.52c0.238,0.557,0.425,1.191,0.534,1.893c0.007,0.047,0.006,0.089,0.012,0.135  c0.384,2.777-0.695,4.913-1.939,5.105c-0.413,0.064-0.854-0.069-1.311-0.396l-1.365-0.976l-0.389,1.632  c-0.82,3.446-2.538,6.493-4.883,8.913c-1.682-5.972-5.847-10.513-10.979-11.735c0.02,0.139,0.043,0.277,0.043,0.421  c0,1.611-1.306,2.917-2.917,2.917c-1.611,0-2.917-1.306-2.917-2.917c0-0.129,0.022-0.253,0.038-0.378  c-5.039,1.29-9.117,5.791-10.777,11.685c-2.197-2.266-3.871-5.088-4.745-8.333l-0.285-1.06l-1.067,0.256l-0.105,0.029  c-1.334,0.207-3.152-1.698-3.626-4.761c-0.015-0.099-0.014-0.189-0.026-0.286c-0.082-0.674-0.099-1.317-0.04-1.9  c0.197-1.943,1.089-3.294,2.082-3.448c0.628-0.097,1.211,0.267,1.589,0.591l0.051,0.044l0.75,0.641l0.469,0.401l0.276-0.824  l0.255-0.76c0.074-0.222,0.162-0.436,0.244-0.653c0.54-1.436,1.23-2.786,2.066-4.023c-0.784,0.347-1.616,0.617-2.526,0.758l-0.001,0  c-0.191,0.03-0.384,0.052-0.577,0.07c-0.306,0.587-0.596,1.186-0.85,1.806c-0.682-0.292-1.387-0.387-2.09-0.278  c-2.742,0.424-4.429,3.821-3.947,7.818C22.783,46.143,22.794,46.272,22.815,46.403z M44.513,55.268  c1.528,2.418,7.329,1.681,8.801-0.519c0.776-1.16,2.717-0.145,1.931,1.03c-2.376,3.551-10.087,4.607-12.581,0.66  C41.91,55.245,43.759,54.074,44.513,55.268z"/>
</svg>