<svg xmlns="http://www.w3.org/2000/svg" xmlns:xlink="http://www.w3.org/1999/xlink" version="1.1" id="Your_Icon" x="0px" y="0px" width="100px" height="100px" viewBox="0 0 100 100" enable-background="new 0 0 100 100" xml:space="preserve">
<path fill="#000000" d="M48.729,51.449"/>
<g>
	<path fill="#000000" d="M43.877,43.922c-1.281,0-2.324-1.047-2.324-2.332c0-1.281,1.043-2.324,2.324-2.324   c1.285,0,2.332,1.043,2.332,2.324C46.209,42.875,45.162,43.922,43.877,43.922z M43.877,40.868c-0.398,0-0.723,0.324-0.723,0.723   c0,0.402,0.324,0.73,0.723,0.73c0.402,0,0.73-0.328,0.73-0.73C44.607,41.192,44.279,40.868,43.877,40.868z"/>
	<path fill="#000000" d="M55.939,43.922c-1.285,0-2.332-1.047-2.332-2.332c0-1.281,1.047-2.324,2.332-2.324s2.328,1.043,2.328,2.324   C58.268,42.875,57.225,43.922,55.939,43.922z M55.939,40.868c-0.402,0-0.73,0.324-0.73,0.723c0,0.402,0.328,0.73,0.73,0.73   s0.727-0.328,0.727-0.73C56.666,41.192,56.342,40.868,55.939,40.868z"/>
</g>
<path fill="#000000" d="M49.99,51.855c-2.648,0-4.645-1.14-4.645-2.656v-0.801h9.289V49.2C54.635,50.715,52.639,51.855,49.99,51.855  z"/>
<path fill="#000000" d="M58.713,50.864l-1.547,0.39c0.148,0.582,0.246,1.367-0.113,1.824c-0.375,0.473-1.137,0.465-1.27,0.473  c-1.359,0.172-3.855,0.164-4.719-0.598c-0.148-0.129-0.184-0.293-0.211-0.469c0-0.051,0.027-0.09,0.027-0.137h-0.09h-1.512h-0.09  c0,0.047,0.027,0.086,0.027,0.137c-0.027,0.176-0.062,0.34-0.211,0.465c-0.863,0.766-3.359,0.773-4.844,0.594  c-0.008,0.008-0.766,0.016-1.145-0.465c-0.359-0.457-0.262-1.242-0.113-1.824l-1.547-0.39c-0.352,1.359-0.211,2.445,0.418,3.226  c0.863,1.07,2.266,1.07,2.309,1.047c0.172,0.023,0.879,0.105,1.777,0.105c1.359,0,3.148-0.195,4.176-1.074  c1.027,0.883,2.824,1.074,4.156,1.074c0.871,0,1.543-0.082,1.664-0.098c0.145,0.031,1.574,0.016,2.438-1.055  C58.924,53.309,59.064,52.223,58.713,50.864z"/>
<path fill="#000000" d="M69.826,61.746c0.113-0.117,0.242-0.219,0.352-0.344c0.535-0.602,0.41-1.648,0.164-3.305  c-0.035-0.227-0.074-0.512-0.109-0.773c0.859,0.348,1.551,0.602,2.16,0.328c0.316-0.133,0.555-0.387,0.684-0.711  c1.199-2.863,1.203-5.96,0.016-9.445c0.512,0.047,1.105,0.055,1.535-0.336c0.188-0.172,0.406-0.484,0.387-1.031l-0.02-0.258  c-0.074-0.891-0.152-1.855-0.262-2.93c-0.324-2.82-1.238-5.391-2.66-7.691c0.16-0.348,0.309-0.703,0.406-1.082  c0.828-3.188-0.918-6.406-3.891-7.172c-1.742-0.453-3.52,0.047-4.879,1.18c-0.969-0.48-1.984-0.918-3.07-1.258  c-0.715-0.25-1.527,0.008-2.312,0.25c-0.262,0.082-0.672,0.211-0.902,0.242c-0.504-0.984-1.504-1.688-2.652-1.852  c-2.777-0.398-4.723-0.367-4.777-0.367c-0.066,0.008-2.031-0.031-4.809,0.367c-1.172,0.172-2.164,0.883-2.625,1.859  c-0.242-0.031-0.68-0.164-0.961-0.25c-0.762-0.23-1.535-0.477-2.234-0.254c-0.816,0.273-1.836,0.676-2.895,1.156  c-0.125-0.098-0.203-0.238-0.336-0.324c-1.32-0.855-2.852-1.129-4.344-0.742c-2.973,0.773-4.727,3.992-3.906,7.18  c0.066,0.25,0.176,0.477,0.266,0.711c-1.566,2.395-2.562,5.086-2.891,8.055c-0.105,1.066-0.184,2.031-0.258,2.922l-0.02,0.266  c-0.027,0.402,0.102,0.762,0.367,1.016c0.422,0.402,1.016,0.398,1.551,0.34c-1.195,3.426-1.199,6.527-0.012,9.464  c0.539,1.223,1.82,0.789,2.848,0.371c-0.031,0.262-0.07,0.551-0.102,0.785c-0.23,1.648-0.348,2.691,0.18,3.281  c0.051,0.062,0.129,0.125,0.18,0.188c-2.91,3.336-5.512,11.934-5.625,12.312l3.07,0.914c1.199-4.039,3.246-9.055,4.836-10.992  c0.699,0.617,1.441,1.25,2.336,1.941c0.078,0.078,0.172,0.156,0.262,0.234l0.707,0.457l0.336-0.062  c0.551-0.102,0.871-0.582,1.176-1.047c0.016-0.02,0.027-0.039,0.039-0.062c0.16,0.305,0.34,0.695,0.465,0.973  c0.551,1.207,0.922,1.957,1.52,2.227c0.969,0.461,1.941,0.863,2.879,1.254c0.613,0.25,1.207,0.5,1.785,0.758  c0.953,0.406,1.594-0.297,1.922-0.727c0.621,0.766,1.516,1.746,2.707,1.742c0.004,0,0.008,0,0.008,0  c0.184,0.023,0.406,0.031,0.648,0.031c1.008,0,2.375-0.141,2.844-0.188c1.488-0.172,2.121-0.719,2.484-1.434  c0.344,0.422,0.938,0.949,1.781,0.574c0.531-0.227,1.074-0.453,1.629-0.68c1.004-0.414,2.043-0.84,3.059-1.324  c0.617-0.27,0.973-1.012,1.508-2.199c0.129-0.285,0.309-0.688,0.469-0.992c0.004,0.008,0.012,0.016,0.016,0.023  c0.309,0.477,0.629,0.965,1.184,1.07l0.531,0.016l0.281-0.203c0.102-0.078,0.191-0.152,0.281-0.227l0.184-0.156  c0.668-0.531,1.438-1.164,2.207-1.836c2.496,2.223,4.34,8.137,5.055,10.445l3.055-0.945C74.342,69.293,72.525,64.316,69.826,61.746z   M64.904,31.844c0.496-1.27,1.699-2.055,2.883-1.754c1.242,0.324,1.973,1.82,1.598,3.273c-0.184,0.691-0.625,1.238-1.164,1.625  c-0.027,0-0.051,0.004-0.082,0.008c-0.512,0.016-2.879-1.238-3.234-2.938C64.889,31.981,64.912,31.918,64.904,31.844z   M66.521,46.739c0,8.496-6.488,13.984-16.531,13.984c-10.195,0-16.527-5.359-16.527-13.984c0-7.945,7.414-14.414,16.531-14.414  C59.107,32.325,66.521,38.793,66.521,46.739z M32.592,30.106c0.609-0.156,1.234-0.039,1.797,0.324  c0.402,0.262,0.695,0.656,0.93,1.098c0.004,0.078,0.016,0.18,0.016,0.238c0.004,1.504-0.828,3.379-2.938,3.445  c-0.676-0.363-1.203-1.027-1.41-1.828C30.611,31.926,31.346,30.426,32.592,30.106z"/>
</svg>