<svg xmlns="http://www.w3.org/2000/svg" xmlns:xlink="http://www.w3.org/1999/xlink" version="1.1" id="Layer_1" x="0px" y="0px" width="90px" height="90px" viewBox="0 0 90 90" enable-background="new 0 0 90 90" xml:space="preserve">
<path fill-rule="evenodd" clip-rule="evenodd" d="M79.7,14.317c1.247,0.789,2.151,1.739,2.714,2.854  c0.562,1.116,0.839,2.062,0.829,2.838c-0.021,0.765,0.073,2.357,0.279,4.776c0.206,2.408,0.198,4.437-0.023,6.086  c-0.223,1.651-0.875,2.987-1.953,4.009c-1.079,1.022-2.222,1.591-3.427,1.706c-1.205,0.114-2.516-0.284-3.933-1.195  c-1.12-0.72-2.227-1.832-3.317-3.333c-0.208-0.287-0.415-0.586-0.62-0.899c-0.222,0.332-0.438,0.645-0.645,0.938  c-0.372,0.529-0.721,0.997-1.046,1.402c-0.518,0.621-1.055,1.272-1.613,1.954c0.263-0.102,0.715-0.43,1.356-0.984  c0.207-0.179,0.413-0.369,0.62-0.566c0.43-0.421,0.857-0.886,1.279-1.396c0.755,1.809,1.983,3.197,3.683,4.163  c1.702,0.967,4.272,1.899,7.716,2.8c1.799,0.423,3.401,1.199,4.807,2.325c1.396,1.127,2.094,2.589,2.094,4.388  c0,0.734-0.073,1.515-0.217,2.343c-0.238,1.364-0.605,2.031-1.101,1.999c-0.053-0.051-0.079-0.18-0.079-0.387l0.156-2.094  c0-0.113-0.021-0.352-0.062-0.714c-0.031-0.32-0.058-0.532-0.078-0.635c-0.011-0.02-0.017-0.035-0.017-0.048  c0,0.021,0,0.037,0,0.048c-0.021,0.021-0.047,0.031-0.076,0.031c-0.03,0.206-0.094,0.619-0.188,1.24v0.008  c-0.072,0.443-0.154,0.999-0.248,1.667c-0.288,1.406-0.661,2.063-1.116,1.97c0-0.095,0.042-0.362,0.125-0.807  c0.072-0.455,0.107-0.899,0.107-1.333c0-0.29-0.02-0.637-0.062-1.039c-0.051-0.566-0.125-0.915-0.225-1.048l-0.008-0.008  c0-0.01-0.006-0.021-0.015-0.031l-0.078,0.077c-0.063,0.817-0.119,1.483-0.17,2.001c-0.053,0.413-0.1,0.724-0.142,0.931  c-0.228,1.138-0.588,1.686-1.085,1.644c0.021-0.402,0.037-0.775,0.047-1.116c0-0.155,0-0.305,0-0.45  c-0.01-0.838-0.104-1.504-0.279-1.999c-0.082,0.392-0.181,1.027-0.294,1.906c-0.026,0.146-0.049,0.296-0.069,0.45  c-0.003,0.031-0.005,0.062-0.008,0.093c-0.207,0.878-0.471,1.251-0.792,1.116c-0.3,0.31-0.34-0.532-0.123-2.526  c0.217-1.996,0.011-3.443-0.621-4.343c-0.743-0.941-3.737-2.461-8.979-4.559c-0.186-0.072-0.366-0.145-0.543-0.217  c-0.434-0.238-0.682-0.373-0.743-0.404c-1.47-0.63-2.522-1.09-3.163-1.38c-1.055-0.455-2.058-0.985-3.01-1.589  c-0.522,0.387-0.85,0.706-0.978,0.954c-0.196,0.383,0.322,0.859,1.552,1.426c1.076,0.497,2.754,1.2,5.039,2.11  c1.004,0.444,2.425,1.065,4.266,1.861c0.155,0.082,0.31,0.165,0.465,0.247c0.775,0.446,1.375,0.869,1.799,1.271  c1.479,1.386,2.218,2.978,2.218,4.777c0,0.734-0.073,1.515-0.217,2.342c-0.238,1.363-0.606,2.031-1.102,2  c-0.052-0.052-0.077-0.182-0.077-0.388l0.154-2.093c0-0.114-0.021-0.352-0.062-0.714c-0.031-0.32-0.057-0.532-0.077-0.636  c-0.011-0.021-0.016-0.036-0.016-0.047c0,0.021,0,0.037,0,0.047c-0.021,0.02-0.047,0.03-0.079,0.03  c-0.031,0.207-0.093,0.621-0.186,1.242v0.006c-0.073,0.443-0.155,0.999-0.248,1.668c-0.29,1.405-0.661,2.063-1.116,1.969  c0-0.093,0.042-0.36,0.124-0.807c0.072-0.455,0.108-0.899,0.108-1.333c0-0.289-0.021-0.636-0.063-1.039  c-0.051-0.579-0.128-0.93-0.232-1.054c0-0.011-0.006-0.021-0.015-0.031l-0.077,0.077c-0.063,0.816-0.12,1.483-0.171,2  c-0.052,0.414-0.099,0.724-0.141,0.931c-0.227,1.137-0.588,1.686-1.085,1.645c0.021-0.404,0.037-0.775,0.048-1.116  c0-0.156,0-0.307,0-0.45c-0.011-0.838-0.104-1.505-0.28-2.001c-0.083,0.394-0.18,1.028-0.295,1.907  c-0.026,0.147-0.049,0.297-0.069,0.45c-0.002,0.03-0.004,0.062-0.008,0.094c-0.207,0.878-0.47,1.25-0.791,1.116  c-0.113,0.186-0.094-0.755,0.063-2.822c0.144-2.078-0.151-3.505-0.884-4.281c-0.734-0.785-2.193-1.441-4.373-1.969  c-0.259-0.063-0.518-0.118-0.776-0.171c-1.964-0.455-3.929-0.791-5.893-1.008c-2.149-0.186-3.582-0.315-4.295-0.387  c-1.147-0.125-1.918-0.341-2.311-0.652c-0.455-0.361-0.682-1.018-0.682-1.969c0-0.983,0.898-2.926,2.697-5.831  c0.94-1.52,2.155-3.412,3.644-5.675c0-0.021,0.006-0.037,0.017-0.047l-0.543-0.387c-0.013,0.021-0.025,0.042-0.039,0.062  c-2.62,4.359-6.024,6.147-10.212,5.366c-0.03-0.031-0.057-0.056-0.077-0.077c0.021,0.03,0.042,0.056,0.063,0.077  c-0.021,0.01-0.036,0.016-0.047,0.016c0.011,0,0.026,0,0.047,0c0.424,0.733,0.702,1.396,0.837,1.984  c0.176,0.827,0.141,1.758-0.108,2.792c-0.248,1.023-1.556,2.423-3.923,4.202c-2.368,1.767-3.867,2.894-4.498,3.38  c-1.054,0.817-1.582,1.483-1.582,2c0,0.425,0.708,1.097,2.125,2.017c1.406,0.91,2.362,1.529,2.869,1.86  c0.496,0.32,1.571,0.982,3.226,1.985c0.837,0.899,1.819,1.845,2.946,2.838c0.052,0.082,0.104,0.165,0.155,0.248  c0.135,0.207,0.14,0.424,0.016,0.651c-0.455,0-0.858-0.171-1.21-0.513c-0.434-0.423-0.899-0.805-1.396-1.147  c-0.485-0.34-0.956-0.692-1.411-1.054c-0.052,0.011-0.067,0.026-0.047,0.046c0.403,0.538,0.885,1.013,1.442,1.428  c0.427,0.31,0.832,0.63,1.218,0.96c0.092,0.077,0.182,0.154,0.271,0.233c0.166,0.197,0.29,0.378,0.373,0.542  c-0.124,0.331-0.378,0.383-0.761,0.155c-0.126-0.052-0.286-0.148-0.479-0.286c-0.295-0.213-0.667-0.526-1.117-0.938  c-0.424-0.394-0.816-0.719-1.179-0.977c0.031,0.062,0.067,0.129,0.108,0.202c0.073,0.103,0.409,0.438,1.009,1.008  c0.558,0.568,0.837,0.956,0.837,1.163c0,0.124-0.005,0.196-0.016,0.217c-0.011,0.031-0.036,0.057-0.077,0.077  c0.01,0.031,0.016,0.066,0.016,0.108h-0.621c-0.319-0.154-0.553-0.336-0.697-0.542c-0.155-0.207-0.584-0.683-1.287-1.428  c-0.373-0.393-0.661-0.548-0.869-0.466c0.766,0.994,1.35,1.697,1.753,2.11c0.01,0.01,0.026,0.026,0.047,0.047  c0.017,0.015,0.032,0.03,0.046,0.046c0.166,0.152,0.248,0.271,0.248,0.356c0,0.053-0.015,0.093-0.046,0.124  c-0.042,0.031-0.13,0.083-0.264,0.156h-0.264c-0.466-0.219-0.827-0.466-1.086-0.745c-0.765-1.055-1.571-1.83-2.419-2.325  c-0.848-0.508-1.582-0.941-2.202-1.304c-0.621-0.372-1.313-0.833-2.078-1.38c-0.765-0.559-1.473-0.947-2.125-1.162  c-0.992-0.312-1.737-0.565-2.233-0.761c-0.889-0.362-1.333-0.797-1.333-1.303c0-0.383,0.258-1.003,0.775-1.861  c0.724-1.116,1.292-2.005,1.706-2.667c1.654-2.656,2.481-4.87,2.481-6.637c0-0.941-0.212-1.769-0.635-2.481  c-0.094-0.124-0.181-0.249-0.264-0.373c-0.114,1.261-0.388,2.435-0.822,3.52c-1.943,4.136-4.849,6.612-8.715,7.428  c-3.866,0.807-5.805,1.741-5.814,2.807c-0.011,1.064,0.946,2.312,2.869,3.737c1.922,1.417,3.623,2.584,5.102,3.504  c1.096,0.735,1.784,1.309,2.063,1.722c0.104,0.124,0.222,0.274,0.357,0.45c0,0.103-0.005,0.166-0.016,0.186  c-0.031,0.042-0.119,0.063-0.264,0.063c-0.393,0-0.662-0.093-0.806-0.279h-0.031c-0.124-0.176-0.553-0.49-1.287-0.945  c-0.817-0.508-1.396-0.761-1.736-0.761h-0.156c0.393,0.29,0.941,0.666,1.644,1.132c0.559,0.414,0.967,0.838,1.226,1.271v0.466  h-0.776c-0.703-0.559-1.214-0.962-1.535-1.209c-0.568-0.424-1.065-0.745-1.489-0.962c-0.373-0.165-0.579-0.165-0.62,0  c0.145,0.145,0.662,0.6,1.55,1.364c0.037,0.032,0.073,0.064,0.108,0.093c0.755,0.694,1.132,1.165,1.132,1.412  c0,0.134-0.077,0.211-0.232,0.232h-0.356c-0.207,0-0.807-0.409-1.799-1.225c-0.112-0.093-0.22-0.181-0.326-0.265  c-0.873-0.691-1.545-1.073-2.016-1.147h-0.078c0.373,0.259,0.94,0.817,1.706,1.675c0.724,0.827,1.086,1.303,1.086,1.427  c0,0.165-0.104,0.269-0.311,0.311c-0.021,0-0.166,0-0.434,0c-0.228,0-0.693-0.347-1.396-1.04c-0.827-0.816-1.406-1.322-1.737-1.519  h-0.077c0.155,0.186,0.294,0.361,0.418,0.527c0.011,0.01,0.108,0.14,0.295,0.387c0.147,0.208,0.333,0.511,0.558,0.908  c0.046,0.076,0.093,0.155,0.14,0.239c0.279,0.518,0.352,0.89,0.217,1.117c-0.104,0.052-0.222,0.077-0.357,0.077  c-0.414,0-1.034-0.589-1.861-1.767c-0.486-0.745-0.961-1.423-1.427-2.033c-0.02-0.021-0.036-0.035-0.046-0.046v-0.016L22.3,61.055  c-0.103-0.144-0.338-0.635-0.706-1.473c-0.368-0.837-0.876-1.729-1.527-2.675c-0.651-0.946-1.003-1.46-1.054-1.542  c-1.251-1.428-1.876-2.719-1.876-3.877s0.667-2.404,2-3.737c1.861-1.634,3.329-2.946,4.404-3.94c1.943-1.83,3.179-3.69,3.706-5.583  c0.527-1.902,0.517-3.856-0.031-5.861c-0.558-2.016-0.646-3.406-0.263-4.171c-7.785,5.934-13.16,11.724-16.127,17.368  c-2.564,4.879-3.846,10.084-3.846,15.615c0,4.964,0.801,8.711,2.404,11.243c1.437,2.274,3.401,3.411,5.893,3.411  c1.427,0,2.812-0.371,4.155-1.116c0.672-0.383,1.288-0.76,1.846-1.132c0.259,0,0.481,0.078,0.667,0.232  c0.208,0.177,0.311,0.409,0.311,0.698c0,1.364-0.879,2.554-2.636,3.567c-1.53,0.878-3.029,1.317-4.498,1.317  c-3.494,0-6.492-1.447-8.994-4.343c-1.79-2.076-3.072-4.705-3.845-7.884c-1.031-4.772-1.031-9.854,0-15.244  c3.497-14.258,10.351-24.697,20.562-31.316c2.151-1.396,4.632-2.797,7.443-4.202c3.629-1.737,7.015-2.993,10.157-3.769  c2.12-0.518,4.932-0.775,8.437-0.775c3.731,0,7.789,0.376,12.172,1.132c2.048,0.352,4.001,0.728,5.862,1.132  c0.042,0.011,0.089,0.021,0.14,0.03c0.103,0.031,0.389,0.078,0.861,0.14c0.474,0.062,1.367-0.155,2.683-0.651  c1.314-0.496,2.85-0.705,4.604-0.629C76.955,13.098,78.453,13.53,79.7,14.317z M79.909,20.551c0.104-0.062,0.212-0.093,0.324-0.093  c0.228,0,0.42,0.087,0.575,0.264c0.165,0.175,0.249,0.387,0.249,0.635c0,0.114-0.016,0.217-0.048,0.31  c-0.021,0.031-0.036,0.068-0.047,0.108c-0.042,0.073-0.091,0.14-0.154,0.203c-0.155,0.175-0.348,0.263-0.575,0.263  c-0.216,0-0.407-0.087-0.572-0.263c-0.155-0.176-0.232-0.383-0.232-0.621c0-0.249,0.077-0.46,0.232-0.635  c0.063-0.073,0.134-0.129,0.217-0.171H79.909z M81.77,19.481c-0.352-0.341-0.77-0.491-1.256-0.45  c-0.455,0.009-0.775,0.108-0.961,0.294c-0.011,0-0.016,0.005-0.016,0.016c-0.289,0.299-0.444,0.465-0.466,0.495  c-0.31,0.332-0.703,0.497-1.178,0.497c-0.237,0-0.46-0.041-0.666-0.125c-0.219-0.093-0.415-0.217-0.591-0.373  c-0.144-0.175-0.263-0.304-0.355-0.387l-0.031-0.031c-0.384-0.362-0.817-0.542-1.303-0.542c-0.052,0-0.089,0-0.109,0  c-0.042,0-0.077,0-0.108,0c-0.413,0.031-0.76,0.201-1.039,0.511c-0.278,0.291-0.419,0.637-0.419,1.04c-0.01,0.073-0.01,0.15,0,0.232  c0.042,0.486,0.254,0.899,0.636,1.241c0.29,0.259,0.606,0.43,0.946,0.512h0.016c0.053,0.01,0.124,0.046,0.217,0.108  c0.063,0.021,0.124,0.067,0.186,0.14c0.021,0.01,0.037,0.025,0.048,0.045c0.021,0.021,0.047,0.047,0.078,0.079  c0.165,0.237,0.258,0.542,0.278,0.914c0.011,0.094,0.011,0.187,0,0.28c-0.021,0.238-0.082,0.444-0.187,0.621v0.014  c-0.041,0.073-0.072,0.135-0.092,0.187c-0.177,0.341-0.312,0.703-0.404,1.085c-0.021,0.063-0.036,0.124-0.046,0.187  c-0.041,0.217-0.073,0.444-0.094,0.682v0.139c-0.042,0.331-0.047,0.693-0.016,1.086c0.104,1.23,0.564,2.264,1.38,3.101  c0.797,0.817,1.702,1.2,2.714,1.148c1.004-0.062,1.814-0.527,2.436-1.395c0.61-0.879,0.862-1.914,0.759-3.102  c-0.063-0.807-0.284-1.531-0.666-2.171v-0.016c-0.053-0.145-0.104-0.278-0.154-0.402c-0.021-0.052-0.047-0.109-0.078-0.171  c-0.021-0.041-0.037-0.072-0.048-0.093c-0.01-0.011-0.021-0.026-0.031-0.046c-0.02-0.073-0.046-0.135-0.075-0.187  c-0.137-0.207-0.207-0.486-0.219-0.838c-0.02-0.35,0.026-0.661,0.14-0.929c0.053-0.145,0.114-0.253,0.186-0.326  c0.011-0.01,0.026-0.021,0.048-0.031c0.031-0.042,0.057-0.068,0.078-0.077c0.009-0.01,0.02-0.016,0.03-0.016  c0.04-0.031,0.082-0.068,0.124-0.108v-0.016c0.196-0.084,0.376-0.217,0.542-0.404c0.28-0.331,0.404-0.728,0.373-1.193  C82.333,20.23,82.132,19.823,81.77,19.481z M77.258,20.923c0.166,0.186,0.248,0.397,0.248,0.635c0,0.249-0.082,0.46-0.248,0.637  c-0.156,0.175-0.342,0.263-0.559,0.263c-0.228,0-0.424-0.088-0.59-0.263c-0.155-0.177-0.232-0.388-0.232-0.637  c0-0.238,0.077-0.45,0.232-0.635c0.166-0.166,0.362-0.249,0.59-0.249c0.104,0,0.206,0.021,0.31,0.063  C77.102,20.778,77.186,20.841,77.258,20.923z M78.514,24.505l-0.312,0.016c-0.164-0.021-0.278-0.119-0.34-0.294  C77.8,24.04,77.65,23.92,77.413,23.87c0.815-0.011,1.225,0.15,1.225,0.481C78.638,24.412,78.596,24.464,78.514,24.505z   M79.148,24.505c-0.082-0.041-0.122-0.093-0.122-0.154c0-0.331,0.418-0.492,1.255-0.481c-0.238,0.051-0.393,0.17-0.466,0.357  c-0.062,0.175-0.175,0.273-0.34,0.294L79.148,24.505z"/>
</svg>