<?xml version="1.0" encoding="utf-8"?>
<!-- Generator: Adobe Illustrator 16.0.0, SVG Export Plug-In . SVG Version: 6.00 Build 0)  -->
<!DOCTYPE svg PUBLIC "-//W3C//DTD SVG 1.1//EN" "http://www.w3.org/Graphics/SVG/1.1/DTD/svg11.dtd">
<svg version="1.1" id="Layer_1" xmlns="http://www.w3.org/2000/svg" xmlns:xlink="http://www.w3.org/1999/xlink" x="0px" y="0px"
	 width="100px" height="100px" viewBox="0 0 100 100" enable-background="new 0 0 100 100" xml:space="preserve">
<g id="Layer_4">
	<path fill="#010101" d="M91.211,63.163c0,0.981-0.02,1.916-0.066,2.755c-0.047,0.843-0.117,1.583-0.242,2.225
		c-0.086,0.432-0.18,0.812-0.387,1.224v-0.002c-1.022,2-4.049,7.901-4.897,9.559c0,0,0.483,3.38,0.47,4.993
		c-0.005,0.711-0.033,1.3-0.137,1.915c-0.108,0.614-0.26,1.208-0.649,1.795H85.3c-0.468,0.688-1.122,1.169-1.803,1.459
		c-0.685,0.293-1.399,0.414-2.103,0.415c-0.742-0.001-1.471-0.137-2.148-0.406c-0.674-0.271-1.312-0.679-1.803-1.303l-0.019-0.023
		l0.019,0.022c-0.271-0.347-0.495-0.726-0.641-1.138c-0.146-0.408-0.201-0.834-0.201-1.217c0.006-0.678,0.133-1.234,0.242-1.916
		c0.112-0.678,0.234-1.487,0.291-2.599c0.006-0.095,0.008-0.196,0.008-0.308c0.002-0.723-0.11-1.752-0.295-2.874
		c-0.187-1.126-0.44-2.354-0.714-3.534l-1.267-4.885c-0.405-0.053-0.941-0.106-1.578-0.157c-1.271-0.103-2.943-0.19-4.863-0.265
		c-3.839-0.146-8.666-0.228-13.371-0.228c-3.539,0-7.009,0.047-9.933,0.146c-2.917,0.097-5.317,0.25-6.597,0.443l0.54,11.54
		c0,1.021-0.02,1.99-0.069,2.864c-0.05,0.876-0.126,1.652-0.254,2.322c-0.089,0.451-0.19,0.851-0.387,1.262
		c-0.117,0.236-0.265,0.488-0.549,0.744l-0.001,0.001c-1.025,0.907-2.309,1.426-3.623,1.419c-1.319,0-2.61-0.491-3.771-1.334v-0.001
		c-0.426-0.325-0.573-0.634-0.713-0.913c-0.131-0.286-0.222-0.568-0.305-0.885c-0.164-0.621-0.289-1.36-0.4-2.23
		c-0.22-1.736-0.374-3.976-0.486-6.451c-0.223-4.945-0.273-10.816-0.273-15.133c0-2.502,0.017-4.48,0.027-5.445l-7.415-7.115
		c-0.697,0.303-1.772,0.763-2.993,1.254c-2.142,0.857-4.686,1.812-6.596,2.234c-0.554,0.118-1.055,0.199-1.564,0.203
		c-0.343-0.007-0.697-0.025-1.145-0.224l0,0c-0.579-0.265-1.086-0.638-1.477-1.082c-0.393-0.444-0.663-0.944-0.858-1.44
		c-0.387-0.996-0.538-1.992-0.79-3.104l-0.001-0.004l0.001,0.004c-0.045-0.201-0.061-0.393-0.061-0.572
		c0.008-0.648,0.178-1.199,0.405-1.798c0.231-0.593,0.541-1.216,0.908-1.878c0.734-1.321,1.706-2.792,2.748-4.26
		c2.084-2.936,4.439-5.837,5.682-7.256l0.001-0.001l1.292-1.537c0,0-0.291-1.103-0.798-3.027c-0.508-1.924-0.879-3.629-1.08-5.051
		c-0.057-0.412-0.095-0.777-0.096-1.136c0.006-0.552,0.119-1.043,0.274-1.622c0.159-0.571,0.373-1.197,0.625-1.855
		c0.503-1.314,1.155-2.745,1.812-3.969c0.44-0.818,0.872-1.537,1.312-2.107c0.262-0.328,0.496-0.612,0.908-0.889
		c0.223-0.139,0.53-0.311,1.025-0.319c0.245-0.002,0.554,0.059,0.831,0.218c0.278,0.157,0.491,0.396,0.614,0.613
		c0.242,0.444,0.243,0.757,0.251,1.013c-0.001,0.276-0.036,0.509-0.081,0.75c-0.046,0.24-0.107,0.483-0.177,0.739
		c-0.141,0.511-0.323,1.072-0.522,1.67c-0.395,1.191-0.854,2.529-1.146,3.685c-0.195,0.766-0.307,1.457-0.303,1.878
		c-0.001,0.377,0.133,0.81,0.415,1.282c0.278,0.468,0.694,0.949,1.137,1.367c0.885,0.842,2.249,1.658,1.927,1.462
		c-0.322-0.196,0.001,0,0.001,0s1.071,0.18,2.113,0.054c0.351-0.042,1.908,0.01,2.677,0.157l0.601,0.116l0.341,0.508
		c0.028,0.043,0.734,1.099,1.454,2.65c0.128,0.28,0.258,0.576,0.384,0.884l0.369,0.051c0.547,0.898,1.13,1.922,1.733,2.999
		c1.204,2.151,2.489,4.52,3.654,6.458c0.773,1.289,1.503,2.392,2.06,3.056c0.308,0.379,0.585,0.604,0.612,0.61l21.946-0.061
		c10.471,0,20.677,0,20.677,0c1.53,0,2.977,0.397,4.228,1.091l1.393,0.017c1,0.021,2.244,0.018,3.371,0.048
		c0.754,0.022,1.451,0.055,2.049,0.134c0.349,0.051,0.65,0.099,1.025,0.245c0.196,0.088,0.444,0.189,0.737,0.518h0.001l0.002,0.002
		c0.305,0.343,0.498,0.867,0.488,1.322c-0.001,0.354-0.088,0.652-0.19,0.899c-0.106,0.248-0.233,0.453-0.368,0.643
		c-0.271,0.373-0.578,0.686-0.906,0.995c-0.652,0.61-1.404,1.203-2.021,1.753c-0.409,0.361-0.754,0.708-0.938,0.95L91.211,63.163z
		 M90.59,46.712c-1.463-0.032-3.145-0.013-4.296-0.089c-0.337-0.023-0.626-0.051-0.933-0.116c-0.17-0.041-0.34-0.075-0.611-0.221
		h-0.001l0.002,0.001c-0.833-0.461-1.783-0.723-2.806-0.725c0,0-40.824,0-42.932,0c-0.375,0-0.686-0.101-0.938-0.216
		c-0.255-0.12-0.463-0.262-0.657-0.416c-0.384-0.308-0.716-0.669-1.059-1.089c-0.678-0.836-1.38-1.911-2.12-3.131
		c-0.815-1.346-1.668-2.867-2.504-4.372l-0.094,0.305c-0.249,0.75-0.658,1.48-1.244,2.113l0,0c-0.276,0.298-0.572,0.561-0.938,0.768
		c-0.362,0.206-0.812,0.341-1.255,0.338c-0.503,0-0.941-0.155-1.286-0.335c-0.351-0.183-0.637-0.396-0.919-0.619
		c-0.56-0.449-1.11-0.963-1.814-1.515l-0.002-0.001l0.003,0.002c-0.532-0.415-0.938-0.932-1.186-1.482
		c-0.25-0.55-0.344-1.116-0.344-1.629c0.007-1.032,0.338-1.873,0.634-2.488c0.301-0.613,0.59-1,0.627-1.051l2.351,1.761L25.55,31.97
		l0.72,0.53l-0.004,0.006L25.55,31.97l0.72,0.53v0.001l-0.016,0.022l-0.076,0.114c-0.066,0.105-0.161,0.264-0.252,0.45
		c-0.188,0.374-0.341,0.861-0.334,1.196c0.001,0.17,0.028,0.297,0.08,0.412c0.054,0.114,0.132,0.233,0.326,0.388l-0.002-0.002
		l0.002,0.002c1.018,0.805,1.74,1.498,2.12,1.744l0.122-0.064l0,0c0.291-0.317,0.483-0.656,0.616-1.051
		c0.131-0.393,0.197-0.842,0.197-1.336c0.009-1.375-0.541-3.063-1.148-4.384c-0.343-0.756-0.696-1.397-0.946-1.823l-1.52-0.032
		c-0.521,0-1.153,0.004-1.927,0.004h-0.845l-2.916,2.984l-0.545,0.643c-0.638,0.751-1.408,1.597-1.894,2.15l0,0l0.001-0.001
		c-1.519,1.729-5.062,6.146-7.235,9.603c-0.724,1.146-1.295,2.198-1.574,2.919L8.29,47.107c0.198,0.896,0.337,1.642,0.494,2.186
		c0.157,0.551,0.318,0.861,0.489,1.055c0.118,0.129,0.251,0.238,0.505,0.358l0,0l0.694-0.151c0.359-0.072,0.793-0.183,1.268-0.32
		c0.952-0.277,2.067-0.666,3.168-1.08c2.205-0.831,4.358-1.764,5.197-2.133c0.24-0.105,0.369-0.164,0.369-0.164l0.898-0.403
		l9.841,9.317l-0.009,0.644c0,0.002-0.009,0.62-0.017,1.688c-0.009,1.066-0.018,2.58-0.018,4.361c0,5.283,0.078,12.938,0.452,18.193
		c0.123,1.746,0.283,3.232,0.467,4.22c0,0,0.186,1.499,0.309,1.586c0.317,0.224,1.784,0.013,1.784,0.013s1.46-0.074,1.601-0.715
		c0.14-0.641,0.137-0.634,0.19-1.123c0.109-0.986,0.156-2.347,0.156-3.839c0-4.034-0.333-9.062-0.5-11.308
		c-0.056-0.75-0.092-1.188-0.092-1.188l-0.053-0.63l0.419-0.471c0.318-0.337,0.548-0.415,0.75-0.509
		c0.203-0.081,0.39-0.135,0.591-0.184c0.4-0.094,0.857-0.166,1.402-0.23c1.085-0.131,2.508-0.232,4.189-0.313
		c3.359-0.159,7.735-0.231,12.221-0.231c4.146,0,8.383,0.062,11.98,0.176c3.607,0.115,6.544,0.277,8.22,0.499
		c0.49,0.067,0.858,0.126,1.238,0.246l0.733,0.237l0.221,0.74c0.007,0.027,1.461,4.896,2.207,9.104
		c0.248,1.409,0.423,2.737,0.425,3.875c0,0.153-0.003,0.306-0.011,0.454c-0.062,1.255-0.205,2.215-0.328,2.938
		c-0.125,0.724-0.206,1.204-0.2,1.429c0.002,0.133,0.013,0.181,0.032,0.238c0.021,0.059,0.062,0.148,0.188,0.312l0.008,0.011
		l-0.008-0.013c0.072,0.1,0.273,0.265,0.575,0.383c0.299,0.121,0.687,0.197,1.058,0.195c0.354,0,0.691-0.066,0.943-0.178
		c0.256-0.111,0.42-0.246,0.535-0.414l0.004-0.006l-0.005,0.008c0.01,0,0.124-0.246,0.181-0.627c0.062-0.38,0.098-0.886,0.098-1.432
		c0.002-1.925-0.392-4.314-0.486-4.844l-0.021-0.111l-0.093-0.494l0.229-0.447c0.002-0.004,0.981-1.914,2.113-4.121
		c1.131-2.207,2.411-4.705,3.01-5.873v-0.002l0,0l0.009-0.02l0.028-0.088c0.024-0.078,0.051-0.191,0.078-0.331
		c0.055-0.28,0.105-0.663,0.145-1.108c0.078-0.896,0.111-2.055,0.111-3.312c0-3.779-0.297-8.479-0.446-10.576
		c-0.05-0.699-0.082-1.107-0.082-1.109l-0.005-0.059v-0.059c0.007-0.66,0.248-1.158,0.506-1.562
		c0.262-0.408,0.568-0.752,0.896-1.083c0.655-0.653,1.713-1.473,2.344-2.016L90.59,46.712z M18.087,37.093
		c-1.228,0-2.221,0.994-2.221,2.219c0,1.226,0.994,2.221,2.221,2.221c1.226,0,2.22-0.995,2.22-2.221
		C20.307,38.087,19.313,37.093,18.087,37.093z M9.635,50.654H9.622"/>
</g>
</svg>
