<svg xmlns="http://www.w3.org/2000/svg" xmlns:xlink="http://www.w3.org/1999/xlink" version="1.1" id="Your_Icon" x="0px" y="0px" width="100px" height="100px" viewBox="0 0 100 100" enable-background="new 0 0 100 100" xml:space="preserve">
<rect y="49" width="15" height="2"/>
<path d="M17.5,58c-1.378,0-2.5-1.121-2.5-2.5v-10c0-1.378,1.122-2.5,2.5-2.5s2.5,1.122,2.5,2.5v10C20,56.879,18.878,58,17.5,58z   M17.5,44c-0.827,0-1.5,0.673-1.5,1.5v10c0,0.827,0.673,1.5,1.5,1.5s1.5-0.673,1.5-1.5v-10C19,44.673,18.327,44,17.5,44z"/>
<path d="M21.5,58.5c-1.378,0-2.5-1.249-2.5-2.785V44.286c0-1.536,1.122-2.786,2.5-2.786s2.5,1.25,2.5,2.786v11.429  C24,57.251,22.878,58.5,21.5,58.5z M21.5,42.5c-0.827,0-1.5,0.801-1.5,1.786v11.429c0,0.984,0.673,1.785,1.5,1.785  s1.5-0.801,1.5-1.785V44.286C23,43.301,22.327,42.5,21.5,42.5z"/>
<path d="M25.5,58c-1.378,0-2.5-1.121-2.5-2.5v-10c0-1.378,1.122-2.5,2.5-2.5s2.5,1.122,2.5,2.5v10C28,56.879,26.878,58,25.5,58z   M25.5,44c-0.827,0-1.5,0.673-1.5,1.5v10c0,0.827,0.673,1.5,1.5,1.5s1.5-0.673,1.5-1.5v-10C27,44.673,26.327,44,25.5,44z"/>
<rect x="86" y="49" width="14" height="2"/>
<path d="M84.5,58c-1.379,0-2.5-1.121-2.5-2.5v-10c0-1.378,1.121-2.5,2.5-2.5s2.5,1.122,2.5,2.5v10C87,56.879,85.879,58,84.5,58z   M84.5,44c-0.827,0-1.5,0.673-1.5,1.5v10c0,0.827,0.673,1.5,1.5,1.5s1.5-0.673,1.5-1.5v-10C86,44.673,85.327,44,84.5,44z"/>
<path d="M80.5,58.5c-1.379,0-2.5-1.25-2.5-2.786V44.285c0-1.536,1.121-2.785,2.5-2.785s2.5,1.25,2.5,2.785v11.429  C83,57.25,81.879,58.5,80.5,58.5z M80.5,42.5c-0.827,0-1.5,0.801-1.5,1.785v11.429c0,0.985,0.673,1.786,1.5,1.786  s1.5-0.801,1.5-1.786V44.285C82,43.301,81.327,42.5,80.5,42.5z"/>
<path d="M76.5,58c-1.379,0-2.5-1.121-2.5-2.5v-10c0-1.378,1.121-2.5,2.5-2.5s2.5,1.122,2.5,2.5v10C79,56.879,77.879,58,76.5,58z   M76.5,44c-0.827,0-1.5,0.673-1.5,1.5v10c0,0.827,0.673,1.5,1.5,1.5s1.5-0.673,1.5-1.5v-10C78,44.673,77.327,44,76.5,44z"/>
<rect x="27" y="49" width="20" height="2"/>
<path d="M51,86.5c-2.142,0-3.707-0.582-4.783-1.778c-2.515-2.795-1.897-8.632-1.115-16.021c0.569-5.377,1.212-11.464,0.908-17.982  c-0.34-0.114-1.335-0.23-3.982-0.23c-0.868,0-1.798,0.011-2.729,0.021c-0.937,0.011-1.875,0.021-2.751,0.021  c-4.01,0-5.047-0.212-5.047-1.031c0-5.84,0.395-20.259,4.048-27.997C39.357,13.433,46.191,12.5,51,12.5  c4.81,0,11.644,0.933,15.452,9.003C70.105,29.242,70.5,43.66,70.5,49.5c0,0.79-0.562,0.923-8.265,1.006  c-2.678,0.029-6.275,0.068-7.206,0.283c-0.201,6.435,0.486,12.52,1.094,17.898c0.851,7.526,1.522,13.471-0.917,16.201  C54.237,85.973,52.861,86.5,51,86.5z M42.027,49.488c4.179,0,4.936,0.259,4.972,0.987c0.33,6.669-0.325,12.864-0.904,18.33  c-0.755,7.143-1.352,12.784,0.865,15.248C47.836,85.026,49.158,85.5,51,85.5c1.56,0,2.691-0.418,3.46-1.278  c2.142-2.396,1.492-8.145,0.67-15.423c-0.62-5.487-1.323-11.707-1.091-18.316c0.027-0.766,0.585-0.895,8.186-0.977  c2.701-0.029,6.327-0.068,7.275-0.287c-0.013-5.941-0.441-19.854-3.952-27.29C62.021,14.458,55.921,13.5,51,13.5  c-4.92,0-11.021,0.958-14.548,8.43c-3.526,7.468-3.943,21.469-3.952,27.367c0.35,0.117,1.366,0.235,4.047,0.235  c0.873,0,1.807-0.011,2.74-0.021C40.222,49.499,41.156,49.488,42.027,49.488z"/>
<path fill="none" stroke="#000000" stroke-miterlimit="10" d="M41,36"/>
<path fill="none" stroke="#000000" stroke-miterlimit="10" d="M47,37"/>
<path fill="none" stroke="#000000" stroke-miterlimit="10" d="M46,51"/>
<path fill="none" stroke="#000000" stroke-miterlimit="10" d="M46,63"/>
<path d="M47,51.035l-12-0.836v-0.467c0-1.008-0.224-1.952-0.231-2.843c-0.04-4.425-0.177-7.631,0.938-10.907  c0.099-1.805,3.042-4.481,5.639-4.481c1.26,0,4.179,1.167,5.085,3.305c1.053,2.487,0.903,5.866,0.729,10.144  C47.087,46.711,47,48.533,47,50.5V51.035z M35.569,49.264l10.433,0.702c0.011-1.783,0.079-3.445,0.145-5.057  c0.168-4.152,0.301-7.433-0.665-9.713c-0.71-1.677-3.26-2.695-4.191-2.695c-2.161,0-4.695,2.361-4.695,3.572l-0.027,0.163  c-1.083,3.139-1.055,6.287-1.016,10.645C35.56,47.634,35.567,48.426,35.569,49.264z"/>
<path fill="none" stroke="#000000" stroke-miterlimit="10" d="M60.039,36"/>
<path fill="none" stroke="#000000" stroke-miterlimit="10" d="M54.039,37"/>
<path fill="none" stroke="#000000" stroke-miterlimit="10" d="M55.039,51"/>
<path d="M54,51.035V50.5c0-1.967-0.055-3.789-0.126-5.551c-0.174-4.278-0.301-7.657,0.753-10.144  c0.906-2.139,3.856-3.305,5.116-3.305c2.597,0,5.597,2.676,5.694,4.481c1.115,3.275,0.853,6.479,0.812,10.901  C66.242,47.775,66,48.721,66,49.731v0.467L54,51.035z M59.748,32.5c-0.932,0-3.48,1.018-4.191,2.695  c-0.966,2.28-0.832,5.561-0.664,9.713c0.065,1.612,0.133,3.274,0.145,5.057l10.433-0.702c0.002-0.839,0.009-1.634,0.016-2.391  c0.04-4.354,0.068-7.501-1.015-10.638l-0.027-0.163C64.443,34.861,61.909,32.5,59.748,32.5z"/>
<path d="M44,45c0-5.799-1.343-6-3-6s-3,0.201-3,6s1.343,5,3,5S44,50.799,44,45z"/>
<path d="M57,45c0-5.799,1.344-6,3-6s3,0.201,3,6s-1.344,5-3,5S57,50.799,57,45z"/>
<rect x="55" y="49" width="20" height="2"/>
</svg>