<svg xmlns="http://www.w3.org/2000/svg" xmlns:xlink="http://www.w3.org/1999/xlink" version="1.1" x="0px" y="0px" viewBox="0 0 100 125" enable-background="new 0 0 100 100" xml:space="preserve"><path d="M91.508,50.116l5.865-15.399l-13.799-9.011L79.271,9.8l-16.461,0.82L49.977,0.282L37.146,10.62L20.685,9.8l-4.303,15.906  L2.581,34.717L8.45,50.116L2.581,65.516l13.801,9.012l4.303,15.906l16.461-0.819L49.977,99.95l12.833-10.339l16.461,0.82  l4.304-15.904l13.799-9.014L91.508,50.116z M53.906,73.5l-10.075,0.014v-8.757l10.075-0.014V73.5z M53.875,53.891l0.016,6.625  l-10.231,0.016l0.011-13.263l1.464-0.069c8.272-0.329,11.171-2.77,11.171-6.315c0-3.02-2.232-7.348-6.041-7.348  c-3.676,0-6.828,1.51-9.848,4.53l-6.04-6.63c3.808-4.202,8.928-7.09,16.085-7.09c9.453,0,15.887,7.479,15.887,16.277  C66.349,49.026,61.031,52.445,53.875,53.891z"/><text x="0" y="115" fill="#000000" font-size="5px" font-weight="bold" font-family="'Helvetica Neue', Helvetica, Arial-Unicode, Arial, Sans-serif">Created by Brennan Novak</text><text x="0" y="120" fill="#000000" font-size="5px" font-weight="bold" font-family="'Helvetica Neue', Helvetica, Arial-Unicode, Arial, Sans-serif">from the Noun Project</text></svg>