<svg xmlns="http://www.w3.org/2000/svg" xmlns:xlink="http://www.w3.org/1999/xlink" version="1.1" x="0px" y="0px" viewBox="0 0 100 125" enable-background="new 0 0 100 100" xml:space="preserve"><g><path d="M67.855,48.161c0-4.645,0-8.747,0-13.145c-1.012,0-1.841,0-2.669,0c-12.04,0-24.08-0.003-36.12,0.001   c-6.1,0.002-9.886,4.031-9.886,9.923s0.019,6.675,0.019,6.675L5.008,65.557c0,0-0.009-1.887,0.001-2.629   c0.101-7.342-0.265-14.729,0.419-22.017C6.481,29.713,16.62,20.996,27.883,20.947c12.352-0.054,24.705-0.012,37.058-0.012   c0.852,0,1.704,0,2.812,0c0-4.284,0-8.453,0-13.274c7.603,6.99,14.738,13.549,22.075,20.294   C82.509,34.685,75.369,41.251,67.855,48.161z"/><path d="M32.149,79.136c0,4.394,0,8.505,0,13.204c-7.524-6.916-14.659-13.475-22-20.223c7.315-6.727,14.455-13.293,21.966-20.2   c0,4.633,0,8.734,0,13.021c0.929,0.045,1.681,0.112,2.433,0.112c12.196,0.007,24.393,0.01,36.589,0.002   c5.785-0.004,9.647-2.456,9.647-9.675s-0.016-6.942-0.016-6.942l14.201-14.106c0,0,0.007,1.907-0.001,2.569   c-0.091,7.343,0.305,14.733-0.389,22.018C93.471,70.548,83.39,79.106,71.634,79.13c-12.196,0.025-24.393,0.006-36.589,0.006   C34.193,79.136,33.341,79.136,32.149,79.136z"/></g><text x="0" y="115" fill="#000000" font-size="5px" font-weight="bold" font-family="'Helvetica Neue', Helvetica, Arial-Unicode, Arial, Sans-serif">Created by Dimitry Sunseifer</text><text x="0" y="120" fill="#000000" font-size="5px" font-weight="bold" font-family="'Helvetica Neue', Helvetica, Arial-Unicode, Arial, Sans-serif">from the Noun Project</text></svg>