<svg xmlns="http://www.w3.org/2000/svg" xmlns:xlink="http://www.w3.org/1999/xlink" version="1.1" id="Your_Icon" x="0px" y="0px" width="100px" height="100px" viewBox="0 0 100 100" enable-background="new 0 0 100 100" xml:space="preserve">
<path d="M23.61,8.288"/>
<path d="M37.072,23.879c-4.885,0-8.859,3.974-8.859,8.858c0,4.885,3.974,8.859,8.859,8.859c4.885,0,8.859-3.974,8.859-8.859  C45.931,27.853,41.957,23.879,37.072,23.879z M37.072,34.31c-0.869,0-1.572-0.705-1.572-1.571c0-0.869,0.703-1.573,1.572-1.573  c0.868,0,1.571,0.704,1.571,1.573C38.643,33.606,37.94,34.31,37.072,34.31z"/>
<path d="M63.703,23.879c-4.883,0-8.857,3.974-8.857,8.858c0,4.885,3.973,8.859,8.857,8.859s8.859-3.974,8.857-8.859  C72.561,27.853,68.588,23.879,63.703,23.879z M63.703,34.31c-0.868,0-1.57-0.705-1.57-1.571c0-0.869,0.702-1.573,1.57-1.573  c0.869,0,1.572,0.704,1.572,1.573C65.275,33.606,64.572,34.31,63.703,34.31z"/>
<path d="M94,60.326c-7.777-4.921-9.246-12.249-9.523-14.843c0.354-2.616,0.549-5.305,0.549-8.055  c0-11.043-2.974-21.167-7.922-29.065c0,0-10.801,7.668-26.714,7.572c-15.914,0.096-26.717-7.572-26.717-7.572  c-4.948,7.897-7.92,18.022-7.92,29.065c0,2.614,0.176,5.173,0.496,7.667c-0.168,2.152-1.344,10.033-9.56,15.231  c0,0,1.278,4.236,6.819,3.467c0,0-0.375,2.417-5.032,4.745c0,0,5.035,8.062,16.825,0.354c4.115,5.7,9.338,9.99,15.209,12.295  l-0.752,6.127l-3.998,3.179c-0.709,0.563-0.827,1.596-0.263,2.305s1.595,0.826,2.304,0.265l1.387-1.104l-0.2,1.629  c-0.11,0.898,0.529,1.719,1.428,1.828c0.068,0.008,0.135,0.014,0.202,0.014c0.817,0,1.524-0.609,1.626-1.44l0.207-1.688l1.128,1.47  c0.323,0.42,0.81,0.642,1.302,0.642c0.349,0,0.7-0.11,0.998-0.339c0.719-0.553,0.854-1.581,0.302-2.301l-3.16-4.114l0.667-5.435  c2.169,0.562,4.407,0.867,6.701,0.867c2.667,0,5.258-0.41,7.752-1.164l0.702,5.73l-3.159,4.115c-0.552,0.719-0.416,1.748,0.303,2.3  c0.298,0.229,0.648,0.339,0.998,0.339c0.492,0,0.979-0.221,1.302-0.641l1.128-1.471l0.207,1.688c0.104,0.83,0.811,1.439,1.626,1.439  c0.065,0,0.134-0.005,0.202-0.013c0.898-0.11,1.537-0.929,1.428-1.828l-0.2-1.63l1.388,1.104c0.709,0.562,1.742,0.445,2.306-0.264  s0.444-1.74-0.265-2.305l-3.998-3.178l-0.805-6.551C66.74,78.38,71.58,74.275,75.448,68.93c11.747,7.641,16.765-0.393,16.765-0.393  c-4.656-2.328-5.031-4.745-5.031-4.745C92.723,64.562,94,60.326,94,60.326z M51.229,37.005l1.057-6.194  c0.938-5.493,5.652-9.479,11.215-9.479c6.288,0,11.404,5.116,11.404,11.405c0,6.191-4.853,11.192-11.045,11.385l-0.428,0.015  c-0.068-0.005-0.141-0.009-0.24-0.01h-8.143l0.496-0.732c0.548-0.64,0.867-1.385,0.867-2.188  C56.412,39.062,54.156,37.294,51.229,37.005z M44.762,42.719H44.75l0.051,0.073c0.098,0.17,0.209,0.335,0.336,0.496l0.571,0.839  h-8.324c-0.069,0.001-0.137,0.005-0.229,0.009l-0.511-0.021c-6.131-0.25-10.933-5.248-10.933-11.378  c0-6.289,5.116-11.405,11.404-11.405c5.57,0,10.292,3.986,11.226,9.479l1.059,6.21c-2.856,0.333-5.039,2.078-5.039,4.186  C44.361,41.74,44.508,42.249,44.762,42.719z M50.387,77.624c-13.389,0-24.245-14.31-24.245-31.963c0-0.688,0.03-1.365,0.066-2.041  c2.213,2.214,5.102,3.758,8.354,4.295c0,0,5.801,0.836,14.354,0.925L50.387,51l1.465-2.16c4.266-0.045,9.057-0.29,14.07-0.9  c3.387-0.527,6.378-2.144,8.639-4.469c0.041,0.724,0.072,1.452,0.072,2.19C74.634,63.314,63.777,77.624,50.387,77.624z"/>
</svg>