<svg xmlns="http://www.w3.org/2000/svg" xmlns:xlink="http://www.w3.org/1999/xlink" version="1.1" x="0px" y="0px" width="100px" height="100px" viewBox="0 0 100 100" enable-background="new 0 0 100 100" xml:space="preserve">
<g id="Captions">
</g>
<g id="Your_Icon">
	<path fill="none" d="M55.061,30.005c0,0,5.342-0.971,5.975,3.495C61.035,33.5,61.072,26.511,55.061,30.005z"/>
	<path fill="none" d="M55.717,25.168c-3.859,0-6.989,3.129-6.989,6.989c0,3.859,3.129,6.988,6.989,6.988   c3.861,0,6.99-3.129,6.99-6.988C62.707,28.297,59.578,25.168,55.717,25.168z M57.484,36.343c-2.307,0-4.176-1.871-4.176-4.178   s1.869-4.177,4.176-4.177s4.178,1.87,4.178,4.177S59.791,36.343,57.484,36.343z"/>
	<path d="M61.111,24.672c0,0,0.309-10.192,14.893-3.204c0,0-9.387-16.307-22.299-4.367c0,0-3.403-1.752,1.6-4.371   c0,0-10.778-2.035-10.315,11.65c0,0-3.676,0.583-4.373-4.367c0,0-12.438,6.697-4.966,22.131c0,0-21.86-2.154-22.919,4.019   c0,0,2.244,0.669,4.232,0c0,0-5.704,3.844,3.312,4.135c0,0,1.005,0.437,3.19,0.728c0,0-5.717,2.477,1.146,3.35   c0,0,1.264,0.562,2.502,0.936c0.305,0.092,0.608,0.172,0.892,0.229c1.431,0.291-4.785,2.184,8.369,3.35   c0,0-4.826,2.037,0.451,2.328c0,0-3.056,4.514-2.894,5.533c0,0-4.885,1.408-6.535,5.775c0,0,1.359,0.291,3.398-0.775   c0,0-4.174,5.047-3.398,7.377c0,0,2.137-0.195,4.078-3.203c0,0-0.68,3.008,0,4.076c0,0,2.328-0.971,4.27-4.562   c0,0,0.001,1.941,1.068,3.301c0,0,3.106-3.01,3.106-6.697c0,0,0-0.777,0-1.359c0,0,2.548-0.146,4.004-0.729   c0,0-4.731,5.824,0.655,5.314c0,0,3.639-0.779,1.062-2.912c0,0,2.142-2.111,5.054-1.383c0,0,2.403,2.184,4.004,2.84   c0,0,4.877-3.277,0.219-5.971c0,0-2.33-0.51-5.679,0.219c0,0,5.023-1.746,5.824-2.184c0,0,0.873,1.82,3.059,2.402   c0,0,3.713-1.164,2.184-5.605c0,0,2.621-3.785,0.291-8.881c0,0,7.57-0.584,10.92-5.243c0,0-7.426-2.402-6.844-6.261   c0,0,2.258-0.655,4.15-1.966c0,0,5.914-2.445,10.637,5.839C79.459,46.163,84.924,21.177,61.111,24.672z M55.717,39.146   c-3.859,0-6.989-3.129-6.989-6.988c0-3.86,3.129-6.989,6.989-6.989c3.861,0,6.99,3.129,6.99,6.989   C62.707,36.017,59.578,39.146,55.717,39.146z"/>
	<path d="M57.484,27.989c-2.307,0-4.176,1.87-4.176,4.177s1.869,4.178,4.176,4.178s4.178-1.871,4.178-4.178   S59.791,27.989,57.484,27.989z M55.061,30.005c6.012-3.494,5.975,3.495,5.975,3.495C60.402,29.035,55.061,30.005,55.061,30.005z"/>
</g>
</svg>