<svg xmlns="http://www.w3.org/2000/svg" xmlns:xlink="http://www.w3.org/1999/xlink" version="1.1" x="0px" y="0px" width="100px" height="100px" viewBox="0 0 100 100" enable-background="new 0 0 100 100" xml:space="preserve">
<g id="Captions">
</g>
<g id="Your_Icon">
	<path d="M22.659,38.455c-0.596,0.675-2.502,2.323-2.948,2.725c-0.446,0.402-1.317,1.586-0.446,2.792   c0.87,1.207,2.854,0.584,3.283,1.229c0.223,0.336,0.022,1.141-0.313,2.033c-0.334,0.893-0.647,1.273-0.58,2.033   c0.067,0.758,0.58,0.982,0.58,0.982s-0.826,0.646-0.178,1.697c0.422,0.686,0.871,0.893,1.272,1.43   c0.402,0.535-0.245,2.121,0.045,3.127c0.29,1.004,1.385,1.92,4.891,2.121c3.507,0.201,4.914,0.379,6.366,1.229   c1.451,0.848,1.116,3.082,1.474,6.229c0.357,3.15,2.234,7.461,2.255,8.822c0.023,1.363-1.586,2.367-1.586,2.367l-0.043,0.061   c-0.164-0.15-0.383-0.244-0.624-0.244c-0.51,0-0.923,0.414-0.923,0.924c0,0.109,0.021,0.215,0.056,0.314   c-0.14-0.047-0.289-0.072-0.444-0.072c-0.787,0-1.425,0.639-1.425,1.424c0,0.553,0.313,1.029,0.771,1.266l-0.092,0.127   c0,0-2.815,3.395-3.284,3.572c-0.47,0.178-0.618,0.182-1.273,0.357c-1.045,0.281-1.384,0.781-1.317,1.117   c0.067,0.334,0.313,0.424,0.313,0.424s-0.246,0.736-0.781,1.764c-0.536,1.029-1.407,2.256-2.412,2.904   c-1.005,0.646-3.809,2.051-4.434,2.609s-0.671,1.469-0.186,2.15c0.523,0.732,3.304,2.396,6.674,3.438   c2.956,0.912,10.319,0.58,17.465,0.268c7.147-0.313,19.901-4.578,21.887-5.248c1.988-0.67,4.602-1.854,4.602-1.854   s0.045-0.961-0.469-1.9c-0.514-0.938-1.34-1.473-1.34-1.473s0.223-0.469,0.268-1.676c0.045-1.205-0.379-1.607-0.982-2.814   c-0.604-1.205-0.604-2.346-0.736-2.68c-0.135-0.334,0.021-1.094-0.715-1.854c-0.738-0.76-2.121-0.76-2.121-0.76   s-1.006-1.43-2.102-3.395c-1.094-1.965-3.35-6.656-3.797-7.572c-0.314-0.646-0.328-1.025-0.311-1.191   c0.27-0.121,0.457-0.389,0.457-0.703c0-0.426-0.344-0.769-0.768-0.769c-0.02,0-0.037,0.002-0.055,0.002   c-0.004-0.004-0.006-0.008-0.01-0.012c0.025-0.057,0.039-0.119,0.039-0.184c0-0.25-0.201-0.453-0.453-0.453   c-0.047,0-0.092,0.008-0.137,0.021c-0.049-0.051-0.08-0.082-0.08-0.082s-1.027-0.982-1.273-1.766c-0.246-0.781,0-1.898,0-1.898   s0.58-0.066,1.051-0.201c0.469-0.133,0.869-0.58,0.869-0.58s2.391,0.424,5.115-0.982c2.002-1.035,3.797-3.619,3.752-5.049   c-0.045-1.428-0.133-2.232,0.313-3.125c0.447-0.895,0.871-2.592,0.381-3.529c-0.492-0.938-1.273-1.697-1.273-1.697   s0.291-0.113,0.492-0.67c0.201-0.559,0.334-3.307,0.133-4.446c-0.201-1.139-0.49-1.519-0.49-1.519s0.285-0.004,0.4-0.156   c0.229-0.296-0.059-0.667-0.15-0.773c0.055,0.052,0.191,0.137,0.441,0.036c0.336-0.133,0.313-0.67,0.313-0.67   s0.693-0.525,1.689-1.301c0.107,0.104,0.252,0.168,0.414,0.168c0.326,0,0.59-0.265,0.59-0.591c0-0.109-0.031-0.21-0.082-0.298   c0.479-0.375,0.99-0.781,1.51-1.196c0.221,0.265,0.646,0.276,0.951,0.025c0.303-0.249,0.373-0.661,0.166-0.931   c0.119-0.098,0.238-0.194,0.355-0.291c0.293-0.242,0.598-0.507,0.912-0.788c0.252,0.166,0.764,0.145,1.15-0.216   c0.289-0.271,0.314-0.638,0.234-1.074c0.59-0.567,1.178-1.156,1.736-1.726c0.229,0.241,0.641,0.133,0.855-0.094   c0.291-0.305,0.363-0.666,0.141-0.937c1.391-1.455,2.557-2.422,2.406-2.589c-0.15-0.166-0.992-0.199-2.219,0.052   c-1.008,0.204-1.877,0.551-2.791,0.328c-0.916-0.224-1.275-0.647-1.207-0.692c0.066-0.044,0.357-0.335,0.871-1.117   c0.514-0.781,0.543-2.418,0.543-2.418s-1.684-0.432-2.91,0.231c-1.041,0.563-1.34,1.048-1.34,1.048s-0.045-0.179-0.402-0.335   s-0.471-0.135-0.471-0.135s0.516-1.585-0.557-2.344c-0.723-0.512-1.809-0.358-1.809-0.358s-0.381-0.915-0.805-1.429   S66.86,17.93,66.86,17.93l1.943-2.68L58.462,7.478l-2.166,2.725c0,0-0.381-0.045-1.408-0.313C53.86,9.621,53.257,9.6,53.257,9.6   s0.135-0.269,0.313-0.805c0.18-0.536,0.201-1.34,0.201-1.34s-0.914-0.201-1.764-0.134c-0.85,0.066-1.475,0.424-1.475,0.424   s-0.201-0.156-0.848-0.804c-0.648-0.647-1.072-0.781-1.072-0.781s1.264-2.442-0.051-3.126c-1.762-0.917-3.031,1.986-3.031,1.92   c0-0.067-0.268-1.206-0.805-1.43c-0.762-0.318-1.205,1.407-1.316,1.652c-0.113,0.246-0.225,0.446-0.693,0.269   c-0.469-0.18-0.67-0.715-0.67-0.715s2.277-4.4,2.031-4.668C43.833-0.206,43.184,0.441,42.514,1s-2.055,2.703-3.201,5.041   c-1.148,2.337-1.938,4.417-1.98,4.675c-0.076,0.447,0,0.804,0,0.804s-0.246-0.111-0.492,0.09c-0.244,0.201-0.313,0.402-0.313,0.402   l-0.982,0.401c0,0-4.444-0.29-6.544,1.072s-2.568,3.06-2.346,4.713c0.225,1.652,1.854,3.462,1.854,3.462s-0.671,1.071-1.027,1.675   c-0.357,0.603-0.715,1.854-1.072,3.618s-1.273,3.863-1.496,5.092c-0.224,1.229,0.469,2.188,0.446,3.171   C25.339,36.199,24.155,36.758,22.659,38.455z"/>
</g>
</svg>