<svg xmlns="http://www.w3.org/2000/svg" xmlns:xlink="http://www.w3.org/1999/xlink" version="1.1" id="Layer_1" x="0px" y="0px" width="100px" height="100px" viewBox="0 0 100 100" enable-background="new 0 0 100 100" xml:space="preserve">
<path d="M49.99,0C22.381,0,0,22.381,0,49.99c0,27.608,22.381,49.99,49.99,49.99S99.98,77.598,99.98,49.99  C99.98,22.381,77.599,0,49.99,0z M55.301,72.969c0,4.048-3.119,7.166-7.335,7.166c-4.217,0-7.336-3.118-7.336-7.166V72.8  c0-4.048,3.119-7.168,7.336-7.168c4.216,0,7.335,3.12,7.335,7.168V72.969z M70.06,37.467c0,10.709-7.421,15.096-16.611,16.951  l-0.253,3.06c-0.339,2.191-2.11,4.131-4.555,4.131h-2.825c-2.446,0-4.217-1.854-4.553-4.131v-7.277  c-0.422-2.783,2.486-4.724,5.187-5.061c7.335-0.926,10.708-3.203,10.708-7.335v-0.169c0-3.794-2.867-5.987-7.759-5.987  c-3.625,0-6.745,1.097-9.78,3.373c-1.013,0.759-2.362,1.35-3.796,1.35c-3.204,0-5.903-2.7-5.903-5.902  c0-1.604,0.675-3.29,2.194-4.555c4.469-3.709,10.118-6.072,17.538-6.072c12.144,0,20.408,6.24,20.408,17.455V37.467z"/>
</svg>