<svg xmlns="http://www.w3.org/2000/svg" xmlns:xlink="http://www.w3.org/1999/xlink" version="1.1" id="Layer_1" x="0px" y="0px" width="83.332px" height="100px" viewBox="0 0 83.332 100" enable-background="new 0 0 83.332 100" xml:space="preserve">
<path fill="#000000" d="M2.083,100C0.933,100,0,99.068,0,97.917V81.251c0-1.151,0.933-2.083,2.083-2.083h8.333  c9.228,0,12.5-3.271,12.5-12.5c0-0.452,0.146-0.892,0.417-1.249l4.516-6.022l-3.508-1.172c-0.851-0.28-1.424-1.078-1.424-1.973  c0-0.899,0.574-1.693,1.424-1.978l3.508-1.168l-4.516-6.022c-0.474-0.631-0.55-1.477-0.197-2.181  c0.353-0.708,1.074-1.151,1.864-1.151h6.25c0.171,0.012,1.714,0.077,2.382-0.789c0.633-0.822,0.564-2.531-0.192-4.806  c-2.915-8.74-14.399-34.971-14.515-35.236c-0.462-1.054,0.019-2.283,1.072-2.745c1.052-0.464,2.284,0.019,2.745,1.072  c0.475,1.084,11.677,26.671,14.651,35.594c1.254,3.768,1.087,6.697-0.496,8.708c-2.043,2.6-5.438,2.396-5.822,2.359l-1.913,0.004  l3.754,5.005c0.402,0.533,0.521,1.229,0.322,1.868c-0.199,0.643-0.695,1.143-1.33,1.354l-0.321,0.11l0.321,0.105  c0.635,0.212,1.13,0.716,1.33,1.354s0.08,1.335-0.322,1.872l-5.839,7.788c-0.208,11.03-5.371,15.962-16.66,15.962h-6.25v14.583  C4.167,99.068,3.234,100,2.083,100z"/>
<circle fill="#000000" cx="10.417" cy="20.836" r="4.167"/>
<path fill="#000000" d="M74.998,100c-1.151,0-2.083-0.932-2.083-2.083c0-3.536,1.6-5.916,3.144-8.215  c1.597-2.376,3.106-4.622,3.106-8.451v-12.5c0-1.151-0.936-2.083-2.083-2.083s-2.084,0.932-2.084,2.083s-0.932,2.083-2.083,2.083  s-2.083-0.932-2.083-2.083v-2.083c0-1.151-0.936-2.083-2.083-2.083s-2.084,0.932-2.084,2.083s-0.932,2.083-2.083,2.083  s-2.083-0.932-2.083-2.083v-2.083c0-1.151-0.937-2.084-2.084-2.084c-1.146,0-2.083,0.933-2.083,2.084s-0.933,2.083-2.083,2.083  s-2.083-0.932-2.083-2.083V41.669c0-1.152-0.936-2.084-2.084-2.084s-2.083,0.932-2.083,2.084v39.582  c0,2.547,1.373,4.838,2.828,7.259c1.604,2.673,3.422,5.704,3.422,9.407c0,1.151-0.933,2.083-2.083,2.083s-2.084-0.932-2.084-2.083  c0-2.547-1.373-4.838-2.828-7.263c-1.604-2.674-3.422-5.701-3.422-9.403V41.669c0-3.446,2.804-6.25,6.25-6.25  c3.446,0,6.25,2.804,6.25,6.25v17.02c0.651-0.228,1.354-0.354,2.083-0.354c2.21,0,4.155,1.151,5.268,2.889  c0.905-0.513,1.951-0.806,3.066-0.806c2.209,0,4.154,1.151,5.267,2.889c0.905-0.513,1.951-0.806,3.066-0.806  c3.446,0,6.25,2.804,6.25,6.25v12.5c0,5.099-2.116,8.247-3.815,10.778c-1.36,2.022-2.435,3.621-2.435,5.888  C77.082,99.068,76.15,100,74.998,100z"/>
</svg>