<svg xmlns="http://www.w3.org/2000/svg" xmlns:xlink="http://www.w3.org/1999/xlink" version="1.1" id="Your_Icon" x="0px" y="0px" width="100px" height="100px" viewBox="0 0 100 100" enable-background="new 0 0 100 100" xml:space="preserve">
<path d="M68.741,74.73C68.741,65.978,95,67.072,95,58.319c0-10.941-56.894-10.941-56.894-18.6c0-5.471,16.412-8.753,16.412-8.753  S6.376,34.249,6.376,41.907c0,15.317,54.706,13.315,54.706,19.694c0,4.376-14.223,4.376-14.223,10.941  C46.859,84.578,95,87.86,95,87.86S68.741,80.201,68.741,74.73z M78.949,52.849c3.359,0,6.083,0.82,6.083,1.827  c0,0.667-1.182,1.247-2.953,1.564l-3.13-1.564l1.75,1.75c-0.558,0.044-1.138,0.066-1.75,0.066c-3.349,0-6.072-0.811-6.072-1.816  C72.877,53.669,75.601,52.849,78.949,52.849z M73.785,56.372c2.188,0,3.949,0.678,3.949,1.521c0,0.842-1.761,1.521-3.949,1.521  c-0.897,0-1.74-0.121-2.396-0.317l3.009-1.51l-4.289,0.864c-0.186-0.175-0.273-0.371-0.273-0.558  C69.835,57.05,71.607,56.372,73.785,56.372z"/>
<path d="M69.31,46.951c-1.082-0.175-2.177-0.361-3.282-0.536c0.525-4.508-0.568-6.696-1.663-11.072  c-0.798-3.193-5.809-11.658-8.753-13.129c4.377,2.188,8.957,7.76,10.941,12.035C68.396,38.219,69.057,42.537,69.31,46.951  C68.228,46.776,69.299,46.765,69.31,46.951z"/>
<path d="M82.965,28.778c-3.006,1.213-5.784,3.399-7.352,6.261c-2.16,3.944-1.225,8.461-1.456,12.744  c-0.679-0.121-1.378-0.241-2.079-0.361c0.225-4.538-0.792-9.017,1.772-13.118C75.776,31.224,79.323,29.029,82.965,28.778z"/>
<path d="M78.653,13.252c0.547,0.394,0.745,1.138,0.438,1.783l-2.834,5.799c-0.252,0.503-0.732,0.798-1.259,0.809  c-0.776,2.002-1.543,4.202-2.134,6.554c-0.24,0.864-0.415,1.739-0.602,2.636c-0.131,0.908-0.273,1.838-0.426,2.769  c-0.22,1.849-0.405,3.742-0.449,5.635c-0.098,2.746-0.021,5.492,0.328,8.118c-0.35-0.055-0.689-0.12-1.039-0.175  c-0.011-0.065-0.021-0.131-0.032-0.196c0.011,0.054,0,0.12-0.011,0.186c-0.307-0.043-0.613-0.098-0.931-0.153  c0.033-0.394,0.055-0.787,0.055-1.192c0.109-3.556-0.405-7.341-1.247-11.04c-0.405-1.86-0.941-3.687-1.499-5.459  c-0.317-0.887-0.624-1.762-0.941-2.637c-0.339-0.842-0.678-1.674-1.072-2.473c-0.426-0.908-0.875-1.794-1.334-2.637  c-0.044,0.011-0.077,0.011-0.121,0.011c-0.58,0-1.148-0.285-1.499-0.799l-4.573-6.751c-0.448-0.646-0.404-1.477,0.021-2.079  c-0.514-0.711-0.974-1.346-1.378-1.871c-0.767-1.028-1.303-1.718-1.51-1.98c0.328,0.329,1.488,1.597,3.117,3.6  c0.066-0.065,0.143-0.131,0.23-0.186c0.307-0.208,0.667-0.306,1.018-0.306c0.579,0,1.149,0.274,1.499,0.788l4.573,6.75  c0.558,0.832,0.351,1.959-0.481,2.517c-0.032,0.022-0.055,0.044-0.088,0.054c0.472,0.799,0.92,1.62,1.357,2.484  c0.415,0.81,0.776,1.663,1.138,2.538c0.328,0.864,0.646,1.751,0.974,2.637c0.613,1.816,1.182,3.676,1.619,5.558  c0.361,1.4,0.591,2.823,0.777,4.234c0.087-1.794,0.296-3.578,0.525-5.34c0.152-0.93,0.306-1.859,0.459-2.778  c0.197-0.919,0.394-1.828,0.646-2.703c0.679-2.342,1.51-4.508,2.352-6.467c-0.71-0.361-0.994-1.214-0.645-1.915l2.833-5.81  c0.252-0.503,0.767-0.799,1.292-0.799c0.219,0,0.427,0.044,0.635,0.143c0,0,0.011,0,0.011,0.011c0.897-1.586,1.51-2.56,1.651-2.779  c-0.087,0.175-0.503,0.996-1.148,2.32C78.861,12.848,78.764,13.044,78.653,13.252z"/>
<path d="M91.826,88.813C81.806,87.991,44.67,84.195,44.67,72.554c0-4.377,4.935-6.226,8.895-7.725  c2.495-0.941,5.329-2.002,5.329-3.217c0-1.554-11.083-3.151-17.714-4.104C24.703,55.135,4.188,52.182,4.188,41.918  c0-7.604,33.578-10.875,47.015-11.882c0,0-10.92,0.241-22.944,2.024C5.961,35.354,2,39.719,2,41.918  c0,9.836,21.171,13.774,39.388,16.401c4.585,0.656,11.915,1.313,15.318,2.188c-0.656,0.264,4.376,1.095-2.188,3.283  c-4.404,1.468-12.035,2.877-12.035,8.764c0,6.979,9.114,10.689,27.353,14.213c12.102,2.341,24.071,2.526,24.071,2.526L91.826,88.813  z"/>
</svg>