<svg xmlns="http://www.w3.org/2000/svg" xmlns:xlink="http://www.w3.org/1999/xlink" version="1.1" id="Layer_1" x="0px" y="0px" width="100px" height="100px" viewBox="0 0 100 100" enable-background="new 0 0 100 100" xml:space="preserve">
<path d="M44.852,37.325L31.959,3.949c0,0-1.058-2.876-3.083-2.242c-2.025,0.634-1.996,1.429-1.569,2.821  c0.427,1.392,7.481,27.56,7.481,27.56L44.852,37.325z"/>
<path d="M93.405,66.604c1.58-2.57,10.094-12.822-0.68-21.881c0,0-6.834-5.721-16.279-0.426c-9.446,5.294-16.96-0.813-18.194-1.373  c0,0-1.072-0.377-1.854,0.719c0,0-46.021-23.15-46.899-23.574c-0.88-0.423-1.86-0.226-2.294,0.674  c-0.437,0.902-0.843,2.502,0.713,3.517c1.557,1.014,36.942,23.983,37.806,24.555c0.862,0.574,1.313,0.386,1.773,0.251  c0.46-0.134,2.286-0.388,4.829-3.184l2.332,1.069c0,0-0.075,0.313-0.133,0.535c-0.059,0.22,0.133,0.551,0.696,0.876  c0.563,0.321,27.673,16.762,27.673,16.762s0.001,0.748,0.769,1.207c0.77,0.459,2.793,1.491,3.041,1.621  c0.248,0.129,0.837,0.013,1.074-0.141c0.239-0.151,1.095,0.086,1.604,0.292C89.891,68.312,91.825,69.178,93.405,66.604z   M78.244,57.423c-2.888-3.816-1.003-8.499,2.343-10.398c3.912-2.219,8.836-1.819,11.723,1.996c2.887,3.816,2.32,9.109-1.267,11.822  S81.131,61.237,78.244,57.423z"/>
<path d="M57.976,93.021c-0.09-0.542-0.141-1.429,0.061-1.629c0.2-0.199,0.44-0.751,0.366-1.019c-0.072-0.27-0.646-2.468-0.932-3.317  c-0.283-0.852-1.014-1.012-1.014-1.012S46.213,56.038,46.02,55.421c-0.195-0.621-0.478-0.878-0.707-0.868  c-0.227,0.009-0.552,0.014-0.552,0.014L44.22,52.06c0,0,1.344-0.463,2.454-2.093l-8.404-5.132l2.888,10.725  c-1.238,0.527-1.101,1.656-1.101,1.656c0.283,1.325,4.637,9.975-2.56,18.065c-7.198,8.091-3.075,15.991-3.075,15.991  c6.536,12.466,18.377,6.35,21.225,5.357C58.498,95.638,58.068,93.563,57.976,93.021z M39.169,92.882  c-3.439-4.546-2.373-11.071,0.893-13.665c3.014-2.393,7.792-2.537,10.677,0.826c3.762,4.385,3.948,11.275,0.543,14.211  C47.876,97.191,42.274,96.985,39.169,92.882z"/>
</svg>