<svg xmlns="http://www.w3.org/2000/svg" xmlns:xlink="http://www.w3.org/1999/xlink" version="1.1" id="Your_Icon" x="0px" y="0px" width="100px" height="100px" viewBox="0 0 100 100" enable-background="new 0 0 100 100" xml:space="preserve">
<path d="M61.731,64.199L61.731,64.199c1.344,2.994,0.667,6.3-2.152,7.979c-2.82,1.678-6.464,0.754-7.829-1.538l-4.139-6.954  c-0.447-0.75-0.288-1.379,0.199-1.67c0.486-0.289,1.115-0.129,1.404,0.358l2.551,4.286l0.352-0.209l-3.655-6.14  c-0.288-0.487-0.129-1.115,0.357-1.405c0.486-0.288,1.114-0.129,1.405,0.356l3.466,5.826l0.353-0.209l-3.929-6.603  c-0.291-0.485-0.131-1.114,0.356-1.403c0.486-0.29,1.114-0.129,1.403,0.356l3.803,6.387l0.352-0.209l-3.346-5.623  c-0.29-0.485-0.131-1.113,0.356-1.403c0.484-0.289,1.113-0.131,1.403,0.355l4.8,8.066l0.255-0.152l-1.368-3.472  c-0.23-0.516-0.002-1.122,0.514-1.354c0.517-0.231,0.997-0.281,1.354,0.515L61.731,64.199z"/>
<circle fill="#000000" cx="69.842" cy="53.301" r="12.393"/>
<circle fill="#000000" cx="33.993" cy="57.871" r="12.393"/>
<g>
	<path fill="#000000" d="M53.66,49.966L53.66,49.966c-0.621,0-1.133-0.49-1.158-1.117l0,0c-0.025-0.642,0.474-1.183,1.112-1.208l0,0   c0.643-0.026,1.184,0.473,1.208,1.116l0,0c0.025,0.639-0.473,1.18-1.111,1.206C53.694,49.966,53.677,49.966,53.66,49.966z    M51.053,48.955L51.053,48.955c-0.301,0-0.602-0.114-0.825-0.347l0,0c-0.452-0.457-0.449-1.192,0.008-1.644l0,0   c0.457-0.448,1.196-0.444,1.645,0.013l0,0c0.451,0.457,0.448,1.192-0.012,1.644C51.645,48.846,51.348,48.955,51.053,48.955z    M53.001,46.178L53.001,46.178c-0.55,0-1.036-0.389-1.142-0.951l0,0c-0.113-0.631,0.301-1.239,0.934-1.353l0,0   c0.631-0.118,1.239,0.299,1.354,0.93l0,0c0.114,0.634-0.3,1.238-0.931,1.357C53.146,46.173,53.072,46.178,53.001,46.178z    M48.432,46.14L48.432,46.14c-0.309,0-0.618-0.122-0.846-0.367l0,0c-0.439-0.465-0.415-1.201,0.05-1.641l0,0   c0.47-0.439,1.205-0.415,1.645,0.05l0,0c0.439,0.47,0.414,1.206-0.055,1.645C49.001,46.039,48.719,46.14,48.432,46.14z    M45.646,43.502L45.646,43.502c-0.254,0-0.503-0.081-0.719-0.25l0,0c-0.503-0.394-0.596-1.125-0.199-1.628l0,0   c0.393-0.507,1.125-0.6,1.632-0.203l0,0c0.503,0.393,0.596,1.125,0.203,1.632C46.33,43.346,45.988,43.502,45.646,43.502z    M52.586,42.365L52.586,42.365c-0.004,0-0.004,0-0.008,0l0,0c-0.643-0.004-1.158-0.528-1.154-1.171l0,0   c0-0.643,0.529-1.158,1.167-1.154l0,0c0.643,0.003,1.162,0.524,1.158,1.167C53.744,41.844,53.225,42.365,52.586,42.365z    M38.358,42.073L38.358,42.073c-0.639-0.004-1.159-0.524-1.159-1.167l0,0c0.004-0.643,0.524-1.163,1.167-1.158l0,0   c0.643,0,1.163,0.524,1.159,1.163C39.524,41.553,39,42.073,38.358,42.073z M42.196,41.938L42.196,41.938   c-0.022,0-0.047-0.004-0.072-0.004l0,0c-0.643-0.042-1.129-0.596-1.086-1.234l0,0c0.042-0.643,0.596-1.128,1.239-1.086l0,0   c0.638,0.042,1.124,0.596,1.082,1.234C43.32,41.464,42.805,41.938,42.196,41.938z M34.532,41.866L34.532,41.866   c-0.042,0-0.084,0-0.127-0.004l0,0l0,0l0,0c-0.638-0.068-1.099-0.639-1.036-1.277l0,0c0.068-0.638,0.639-1.104,1.277-1.036l0,0   c0.638,0.068,1.103,0.639,1.036,1.277C35.622,41.422,35.115,41.866,34.532,41.866z M30.731,41.27L30.731,41.27   c-0.081,0-0.161-0.009-0.241-0.026l0,0c-0.63-0.135-1.027-0.752-0.896-1.377l0,0c0.135-0.63,0.756-1.031,1.382-0.896l0,0   c0.626,0.135,1.027,0.753,0.892,1.378C31.754,40.897,31.268,41.27,30.731,41.27z M27.033,40.251L27.033,40.251   c-0.127,0-0.254-0.021-0.377-0.064l0,0c-0.608-0.207-0.934-0.866-0.727-1.475l0,0c0.207-0.609,0.871-0.93,1.479-0.723h-0.004   c0.608,0.207,0.934,0.866,0.727,1.475C27.967,39.947,27.514,40.251,27.033,40.251z M53.715,38.793L53.715,38.793   c-0.3,0-0.596-0.115-0.824-0.342l0,0c-0.452-0.453-0.452-1.188,0-1.641l0,0c0.457-0.457,1.191-0.457,1.645-0.004l0,0   c0.457,0.457,0.457,1.192,0,1.645C54.312,38.678,54.012,38.793,53.715,38.793z M23.486,38.772L23.486,38.772   c-0.174,0-0.352-0.038-0.52-0.123l0,0c-0.575-0.292-0.803-0.989-0.516-1.56l0,0c0.288-0.574,0.99-0.807,1.56-0.515l0,0   c0.575,0.288,0.803,0.985,0.516,1.56C24.323,38.539,23.913,38.772,23.486,38.772z M20.214,36.772L20.214,36.772   c-0.241,0-0.486-0.072-0.693-0.228l0,0c-0.516-0.381-0.625-1.107-0.241-1.627l0,0c0.38-0.512,1.108-0.622,1.624-0.241l0,0   c0.516,0.38,0.625,1.111,0.246,1.627C20.92,36.612,20.569,36.772,20.214,36.772z M56.915,36.679L56.915,36.679   c-0.355,0-0.705-0.161-0.934-0.465l0,0c-0.385-0.516-0.279-1.243,0.237-1.628l0,0c0.511-0.384,1.242-0.279,1.626,0.233l0,0   c0.385,0.515,0.279,1.242-0.235,1.631C57.401,36.603,57.156,36.679,56.915,36.679z M17.394,34.177L17.394,34.177   c-0.325,0-0.655-0.14-0.884-0.411l0,0l0,0l0,0c-0.418-0.486-0.359-1.221,0.127-1.636l0,0c0.49-0.418,1.222-0.359,1.641,0.127l0,0   c0.418,0.49,0.359,1.222-0.127,1.64C17.931,34.083,17.661,34.177,17.394,34.177z M59.706,34.054L59.706,34.054   c-0.262,0-0.525-0.088-0.745-0.266l0,0c-0.489-0.411-0.562-1.142-0.151-1.636l0,0c0.409-0.495,1.142-0.566,1.636-0.157l0,0   c0.495,0.41,0.566,1.142,0.156,1.636l0,0l0,0C60.369,33.91,60.04,34.054,59.706,34.054z M15.369,30.934L15.369,30.934   c-0.457,0-0.888-0.271-1.074-0.718l0,0c-0.25-0.592,0.034-1.272,0.625-1.518l0,0c0.596-0.246,1.272,0.034,1.522,0.625l0,0   c0.245,0.592-0.038,1.272-0.63,1.518C15.67,30.904,15.517,30.934,15.369,30.934z M61.667,30.773L61.667,30.773   c-0.14,0-0.282-0.026-0.419-0.08l0,0c-0.6-0.237-0.896-0.909-0.663-1.505l0,0c0.236-0.6,0.908-0.896,1.505-0.664l0,0   c0.601,0.237,0.896,0.909,0.663,1.51C62.571,30.49,62.132,30.773,61.667,30.773z M14.608,27.197L14.608,27.197   c-0.643,0-1.163-0.52-1.163-1.163l0,0c0-0.009,0-0.021,0-0.029l0,0c0-0.013,0-0.025,0-0.034l0,0   c0.004-0.644,0.528-1.158,1.171-1.155l0,0c0.643,0,1.159,0.525,1.154,1.167l0,0c0,0.008,0,0.013,0,0.021l0,0   c0,0.009,0,0.021,0,0.029C15.771,26.678,15.251,27.197,14.608,27.197z M62.352,27.02L62.352,27.02   c-0.634,0-1.149-0.507-1.162-1.142l0,0c-0.013-0.642,0.498-1.17,1.141-1.184l0,0c0.643-0.012,1.171,0.5,1.185,1.138l0,0l0,0l0,0   c0.013,0.643-0.498,1.175-1.142,1.188C62.365,27.02,62.356,27.02,62.352,27.02z M13.446,25.972L13.446,25.972L13.446,25.972   L13.446,25.972L13.446,25.972L13.446,25.972z M15.391,23.409L15.391,23.409c-0.153,0-0.305-0.029-0.453-0.092l0,0   c-0.592-0.25-0.866-0.931-0.617-1.522l0,0c0.25-0.592,0.93-0.872,1.522-0.622l0,0c0.592,0.254,0.871,0.935,0.617,1.526   C16.274,23.143,15.843,23.409,15.391,23.409z M61.522,23.296L61.522,23.296c-0.447,0-0.874-0.259-1.065-0.698l0,0   c-0.257-0.587,0.014-1.272,0.605-1.53l0,0c0.588-0.253,1.272,0.017,1.525,0.604l0,0c0.259,0.588-0.012,1.273-0.6,1.53   C61.837,23.266,61.68,23.296,61.522,23.296z M17.433,20.176L17.433,20.176c-0.271,0-0.537-0.093-0.757-0.283l0,0   c-0.49-0.418-0.541-1.15-0.127-1.636l0,0c0.423-0.486,1.154-0.541,1.641-0.123l0,0c0.49,0.419,0.541,1.155,0.123,1.636   C18.083,20.04,17.758,20.176,17.433,20.176z M59.452,20.083L59.452,20.083c-0.325,0-0.647-0.131-0.875-0.397v0.003   c-0.423-0.486-0.373-1.221,0.11-1.64l0,0c0.481-0.427,1.217-0.376,1.64,0.106l0,0c0.423,0.481,0.371,1.217-0.11,1.64   C59.997,19.99,59.723,20.083,59.452,20.083z M20.26,17.589L20.26,17.589c-0.355,0-0.71-0.166-0.935-0.474l0,0   c-0.384-0.52-0.27-1.247,0.245-1.627l0,0c0.516-0.376,1.243-0.266,1.628,0.25l0,0c0.376,0.52,0.267,1.247-0.25,1.627   C20.743,17.517,20.501,17.589,20.26,17.589z M56.603,17.517L56.603,17.517c-0.237,0-0.474-0.072-0.681-0.224l0,0   c-0.52-0.376-0.634-1.104-0.258-1.619l0,0c0.376-0.524,1.104-0.638,1.623-0.262l0,0c0.52,0.381,0.634,1.108,0.258,1.624   C57.316,17.352,56.966,17.517,56.603,17.517z M23.541,15.597L23.541,15.597c-0.427,0-0.837-0.236-1.04-0.643l0,0   c-0.287-0.574-0.055-1.272,0.52-1.56l0,0c0.575-0.287,1.272-0.055,1.56,0.521l0,0c0.288,0.575,0.056,1.272-0.52,1.56   C23.892,15.559,23.718,15.597,23.541,15.597z M53.313,15.542L53.313,15.542c-0.174,0-0.351-0.038-0.516-0.119l0,0   c-0.574-0.288-0.812-0.985-0.524-1.56l0,0c0.283-0.575,0.98-0.812,1.556-0.524l0,0c0.575,0.283,0.812,0.98,0.525,1.556   C54.155,15.305,53.741,15.542,53.313,15.542z M27.083,14.126L27.083,14.126c-0.482,0-0.935-0.305-1.1-0.791l0,0   c-0.207-0.609,0.123-1.268,0.727-1.475l0,0c0.609-0.203,1.268,0.123,1.476,0.727l0,0c0.207,0.609-0.119,1.272-0.727,1.475l0,0   C27.337,14.105,27.21,14.126,27.083,14.126z M49.758,14.088L49.758,14.088c-0.118,0-0.245-0.021-0.367-0.06h0.003   c-0.608-0.207-0.938-0.866-0.735-1.475l0,0c0.204-0.608,0.862-0.938,1.472-0.731l0,0c0.608,0.203,0.938,0.863,0.731,1.471   C50.701,13.78,50.249,14.088,49.758,14.088z M30.791,13.111L30.791,13.111c-0.541,0-1.023-0.372-1.138-0.921l0,0   c-0.131-0.626,0.271-1.243,0.896-1.379l0,0c0.63-0.131,1.248,0.271,1.379,0.896l0,0c0.134,0.63-0.267,1.248-0.896,1.378   C30.951,13.104,30.871,13.111,30.791,13.111z M46.056,13.086L46.056,13.086c-0.081,0-0.161-0.004-0.237-0.021l0,0   c-0.63-0.132-1.035-0.749-0.904-1.378l0,0c0.131-0.626,0.748-1.032,1.378-0.901l0,0c0.626,0.131,1.032,0.748,0.9,1.378   C47.079,12.71,46.596,13.086,46.056,13.086z M34.583,12.52L34.583,12.52c-0.588,0-1.091-0.443-1.154-1.043l0,0   c-0.063-0.639,0.401-1.209,1.04-1.272l0,0c0.638-0.067,1.208,0.396,1.272,1.036l0,0c0.068,0.637-0.397,1.208-1.036,1.276   C34.663,12.52,34.62,12.52,34.583,12.52z M42.259,12.508L42.259,12.508c-0.038,0-0.076,0-0.119-0.004l0,0   c-0.638-0.064-1.103-0.634-1.04-1.272l0,0c0.063-0.639,0.634-1.104,1.272-1.041l0,0c0.638,0.063,1.104,0.634,1.04,1.272   C43.354,12.059,42.847,12.508,42.259,12.508z M38.421,12.326L38.421,12.326c-0.643,0-1.163-0.521-1.163-1.163l0,0   c0-0.643,0.52-1.163,1.158-1.163l0,0c0.643-0.004,1.167,0.516,1.167,1.159C39.583,11.801,39.067,12.321,38.421,12.326z"/>
</g>
<path fill="#000000" d="M57.622,88.345l-1.095-8.843c-1.018-8.229,2.818-16.297,12.448-16.297l6.64-0.011  c8.775,0,15.158,7.154,16.262,16.082L93,88.345H57.622z"/>
<path fill="#000000" d="M6.679,88.345l5.749-9.246c0,0,3.66-6.907,8.207-8.863c4.543-1.954,10.468-1.601,10.468-1.601h2.361  c0,0,6.117-0.354,9.581,1.601c3.459,1.956,3.288,8.863,3.288,8.863l0.621,9.246H6.679z"/>
</svg>