<svg xmlns="http://www.w3.org/2000/svg" xmlns:xlink="http://www.w3.org/1999/xlink" version="1.1" id="Layer_1" x="0px" y="0px" width="100px" height="100px" viewBox="0 0 100 100" enable-background="new 0 0 100 100" xml:space="preserve">
<g>
	<path fill="#000000" d="M61.864,59.484c-9.731,0-17.432-4.118-20.601-11.016c-2.49-5.422-1.886-11.84,1.7-18.072   c3.509-6.095,9.478-11.306,16.807-14.671c5.292-2.43,10.927-3.713,16.298-3.713c9.731,0,17.432,4.119,20.599,11.017   c2.49,5.422,1.886,11.841-1.7,18.073C91.46,47.196,85.49,52.406,78.16,55.773C72.87,58.201,67.234,59.484,61.864,59.484   L61.864,59.484z M76.068,14.497c-5.016,0-10.292,1.206-15.26,3.486c-6.865,3.152-12.438,8.001-15.69,13.652   c-3.174,5.515-3.741,11.125-1.596,15.795c2.752,5.992,9.608,9.57,18.342,9.57c5.016,0,10.292-1.206,15.259-3.486   c6.865-3.153,12.438-8.002,15.69-13.653c3.174-5.515,3.74-11.125,1.596-15.796C91.658,18.074,84.802,14.497,76.068,14.497   L76.068,14.497z"/>
</g>
<ellipse fill="#000000" cx="88.316" cy="38.897" rx="2.356" ry="2.156"/>
<ellipse fill="#000000" cx="65.448" cy="21.255" rx="2.356" ry="2.156"/>
<ellipse fill="#000000" cx="73.686" cy="24.277" rx="2.356" ry="2.156"/>
<ellipse fill="#000000" cx="86.946" cy="23.332" rx="2.357" ry="2.155"/>
<ellipse fill="#000000" cx="80.773" cy="29.953" rx="2.355" ry="2.156"/>
<ellipse fill="#000000" cx="79.945" cy="17.941" rx="2.356" ry="2.156"/>
<ellipse fill="#000000" cx="91.956" cy="29.539" rx="2.356" ry="2.156"/>
<g>
	<path fill="#000000" d="M52.632,21.33c-1.094,1.477-1.696,2.296-2.329,4.644c-1.932,7.164,5.535,6.444,10.289,5.883   c3.685-0.435,9.129,0.398,8.991,5.083C69.474,40.687,69.6,42.902,74,43.843c3.273,0.7,9.438-2.928,9.574,2.958   c0.04,1.662-3.321,4.555-2.342,6.057c0.449-0.356,1.295-0.844,2.365-1.783c-1.514-2.322,3.564-6.809,0.807-10.127   c-1.655-1.989-6.486-0.265-8.602-0.226c-3.942,0.073-4.76-3.692-4.397-6.743c0.746-6.292-8.204-5.284-12.029-4.928   c-4.03,0.376-11.084-1.343-6.554-6.707c0.465-0.55,1.656-2.295,1.451-2.053L52.632,21.33z"/>
</g>
<path fill="#000000" d="M21.136,71.275c0,0,25.773-32.26,34.077-25.377c8.306,6.885-28.45,29.371-30.49,29.478  C24.086,76.29,26.192,92.055,9.65,91.659C2.504,91.487-2.573,79.748,6.315,72.952C10.963,69.398,21.136,71.275,21.136,71.275z   M9.222,75.486c-4.04,2.21-5.807,6.759-3.947,10.157c1.861,3.4,6.643,4.363,10.682,2.154c4.038-2.211,5.807-6.759,3.945-10.158  C18.042,74.241,13.261,73.276,9.222,75.486z"/>
</svg>