<svg xmlns="http://www.w3.org/2000/svg" xmlns:xlink="http://www.w3.org/1999/xlink" version="1.1" id="Layer_1" x="0px" y="0px" width="100px" height="100px" viewBox="0 0 100 100" enable-background="new 0 0 100 100" xml:space="preserve">
<g>
	<g>
		<g>
			<g>
				<polygon points="12.439,75.091 52.073,55.275 52.073,51.804 5.496,75.091     "/>
				<g>
					<polygon points="15.913,75.091 44.309,75.091 44.309,60.892      "/>
					<polygon points="59.835,75.091 88.234,75.091 59.835,60.892      "/>
				</g>
				<g>
					<polygon points="98.649,69.882 98.649,59.566 78.017,59.566      "/>
					<polygon points="98.647,33.723 78.012,44.041 98.649,44.041      "/>
				</g>
				<polygon points="42.758,56.46 47.416,56.46 47.416,75.091 56.73,75.091 56.73,56.46 98.649,56.46 98.649,47.146 61.386,47.146           "/>
			</g>
		</g>
	</g>
	<g>
		<g>
			<path d="M1.351,24.908v25.305h34.212V24.908H1.351z M29.661,28.294l0.394,1.215h1.278l-1.034,0.75l0.396,1.215l-1.033-0.75     l-1.034,0.75l0.396-1.215l-1.033-0.75h1.276L29.661,28.294z M30.693,36.415l-1.033-0.751l-1.034,0.751l0.396-1.214l-1.033-0.752     h1.277l0.395-1.215l0.394,1.215h1.278l-1.034,0.752L30.693,36.415z M30.693,41.324l-1.033-0.75l-1.034,0.75l0.396-1.215     l-1.033-0.75h1.277l0.395-1.215l0.394,1.215h1.278l-1.034,0.75L30.693,41.324z M27.92,43.705l-1.032-0.75l-1.033,0.75     l0.395-1.215l-1.033-0.752h1.276l0.396-1.214l0.395,1.214h1.276l-1.032,0.752L27.92,43.705z M25.03,41.324l-1.033-0.75     l-1.033,0.75l0.396-1.215l-1.034-0.75h1.277l0.395-1.215l0.396,1.215h1.276l-1.032,0.75L25.03,41.324z M22.198,43.705     l-1.033-0.75l-1.034,0.75l0.396-1.215l-1.033-0.752h1.277l0.395-1.214l0.394,1.214h1.277l-1.033,0.752L22.198,43.705z      M19.275,41.324l-1.033-0.75l-1.033,0.75l0.396-1.215l-1.034-0.75h1.277l0.395-1.215l0.395,1.215h1.278l-1.034,0.75     L19.275,41.324z M16.474,43.705l-1.034-0.75l-1.032,0.75l0.395-1.215l-1.033-0.752h1.277l0.394-1.214l0.396,1.214h1.276     l-1.033,0.752L16.474,43.705z M13.643,41.324l-1.034-0.75l-1.034,0.75l0.396-1.215l-1.033-0.75h1.278l0.394-1.215l0.395,1.215     h1.277l-1.033,0.75L13.643,41.324z M10.75,43.705l-1.032-0.75l-1.033,0.75l0.395-1.215l-1.033-0.752h1.277l0.395-1.214     l0.395,1.214h1.277l-1.033,0.752L10.75,43.705z M7.918,41.324l-1.033-0.75l-1.033,0.75l0.395-1.215l-1.034-0.75h1.278     l0.395-1.215l0.396,1.215h1.277l-1.034,0.75L7.918,41.324z M5.212,34.449h1.278l0.395-1.215l0.396,1.215h1.277l-1.034,0.752     l0.395,1.214l-1.033-0.751l-1.033,0.751l0.395-1.214L5.212,34.449z M27.92,33.917l-1.032-0.75l-1.033,0.75l0.395-1.215     l-1.033-0.752h1.276l0.396-1.213l0.395,1.213h1.276l-1.032,0.752L27.92,33.917z M27.92,38.779l-1.032-0.752l-1.033,0.752     l0.395-1.217l-1.033-0.75h1.276l0.396-1.215l0.395,1.215h1.276l-1.032,0.75L27.92,38.779z M25.668,34.449l-1.032,0.752     l0.394,1.214l-1.033-0.751l-1.033,0.751l0.396-1.214l-1.034-0.752h1.277l0.395-1.215l0.396,1.215H25.668z M22.198,38.779     l-1.033-0.752l-1.034,0.752l0.396-1.217l-1.033-0.75h1.277l0.395-1.215l0.394,1.215h1.277l-1.033,0.75L22.198,38.779z      M21.802,32.703l0.396,1.215l-1.033-0.75l-1.034,0.75l0.396-1.215l-1.033-0.752h1.277l0.395-1.213l0.394,1.213h1.277     L21.802,32.703z M19.915,34.449l-1.034,0.752l0.395,1.214l-1.033-0.751l-1.033,0.751l0.396-1.214l-1.034-0.752h1.277l0.395-1.215     l0.395,1.215H19.915z M16.474,38.779l-1.034-0.752l-1.032,0.752l0.395-1.217l-1.033-0.75h1.277l0.394-1.215l0.396,1.215h1.276     l-1.033,0.75L16.474,38.779z M16.079,32.703l0.396,1.215l-1.034-0.75l-1.032,0.75l0.395-1.215l-1.033-0.752h1.277l0.394-1.213     l0.396,1.213h1.276L16.079,32.703z M14.282,34.449l-1.033,0.752l0.396,1.214l-1.034-0.751l-1.035,0.751l0.396-1.214l-1.033-0.752     h1.278l0.394-1.215l0.395,1.215H14.282z M10.75,38.779l-1.032-0.752l-1.033,0.752l0.395-1.217l-1.033-0.75h1.277l0.395-1.215     l0.395,1.215h1.277l-1.033,0.75L10.75,38.779z M10.356,32.849l0.394,1.215l-1.032-0.75l-1.033,0.75l0.395-1.215l-1.033-0.75     h1.277l0.395-1.215l0.395,1.215h1.277L10.356,32.849z M26.493,27.008l0.396-1.214l0.395,1.214h1.276l-1.032,0.751l0.394,1.214     l-1.032-0.75l-1.033,0.75l0.395-1.214l-1.033-0.751H26.493z M23.997,28.294l0.396,1.215h1.276l-1.032,0.75l0.394,1.215     l-1.033-0.75l-1.033,0.75l0.396-1.215l-1.034-0.75h1.277L23.997,28.294z M20.77,27.008l0.395-1.214l0.394,1.214h1.277     l-1.033,0.751l0.396,1.214l-1.033-0.75l-1.034,0.75l0.396-1.214l-1.033-0.751H20.77z M18.242,28.294l0.395,1.215h1.278     l-1.034,0.75l0.395,1.215l-1.033-0.75l-1.033,0.75l0.396-1.215l-1.034-0.75h1.277L18.242,28.294z M15.046,27.008l0.394-1.214     l0.396,1.214h1.276l-1.033,0.751l0.396,1.214l-1.034-0.75l-1.032,0.75l0.395-1.214l-1.033-0.751H15.046z M12.609,28.294     l0.395,1.215h1.277l-1.033,0.75l0.396,1.215l-1.034-0.75l-1.034,0.75l0.396-1.215l-1.033-0.75h1.278L12.609,28.294z      M9.323,27.008l0.395-1.214l0.395,1.214h1.277l-1.033,0.751l0.394,1.214l-1.032-0.75l-1.033,0.75l0.395-1.214l-1.033-0.751H9.323     z M6.885,28.294l0.396,1.215h1.277l-1.034,0.75l0.395,1.215l-1.033-0.75l-1.033,0.75l0.395-1.215l-1.034-0.75h1.278L6.885,28.294     z M3.689,27.008l0.395-1.214l0.395,1.214h1.278l-1.034,0.751l0.395,1.214l-1.033-0.75l-1.033,0.75l0.395-1.214l-1.032-0.751     H3.689z M3.689,31.951l0.395-1.213l0.395,1.213h1.278l-1.034,0.752l0.395,1.215l-1.033-0.75l-1.033,0.75l0.395-1.215     l-1.032-0.752H3.689z M3.689,36.812l0.395-1.215l0.395,1.215h1.278l-1.034,0.75l0.395,1.217l-1.033-0.752L3.05,38.779     l0.395-1.217l-1.032-0.75H3.689z M3.689,41.738l0.395-1.214l0.395,1.214h1.278L4.722,42.49l0.395,1.215l-1.033-0.75l-1.033,0.75     l0.395-1.215l-1.032-0.752H3.689z M5.117,48.645l-1.033-0.751L3.05,48.645l0.395-1.216L2.413,46.68h1.276l0.395-1.216     l0.395,1.216h1.278l-1.034,0.749L5.117,48.645z M6.885,45.388l-1.033,0.751l0.395-1.215l-1.034-0.751h1.278l0.395-1.214     l0.396,1.214h1.277l-1.034,0.751l0.395,1.215L6.885,45.388z M10.75,48.645l-1.032-0.751l-1.033,0.751l0.395-1.216L8.045,46.68     h1.277l0.395-1.216l0.395,1.216h1.277l-1.033,0.749L10.75,48.645z M12.609,45.388l-1.034,0.751l0.396-1.215l-1.033-0.751h1.278     l0.394-1.214l0.395,1.214h1.277l-1.033,0.751l0.396,1.215L12.609,45.388z M16.474,48.645l-1.034-0.751l-1.032,0.751l0.395-1.216     l-1.033-0.749h1.277l0.394-1.216l0.396,1.216h1.276l-1.033,0.749L16.474,48.645z M18.242,45.299l-1.033,0.751l0.396-1.215     l-1.034-0.752h1.277l0.395-1.214l0.395,1.214h1.278l-1.034,0.752l0.395,1.215L18.242,45.299z M22.198,48.735l-1.033-0.751     l-1.034,0.751l0.396-1.216l-1.033-0.75h1.277l0.395-1.215l0.394,1.215h1.277l-1.033,0.75L22.198,48.735z M23.997,45.388     l-1.033,0.752l0.396-1.216l-1.034-0.751h1.277l0.395-1.214l0.396,1.214h1.276l-1.032,0.751l0.394,1.216L23.997,45.388z      M27.92,48.645l-1.032-0.751l-1.033,0.751l0.395-1.216l-1.033-0.749h1.276l0.396-1.216l0.395,1.216h1.276l-1.032,0.749     L27.92,48.645z M29.661,45.388l-1.034,0.752l0.396-1.216l-1.033-0.751h1.276l0.396-1.214l0.394,1.214h1.278l-1.034,0.751     l0.396,1.216L29.661,45.388z M33.525,48.645l-1.034-0.751l-1.034,0.751l0.396-1.216l-1.033-0.749h1.278l0.394-1.216l0.395,1.216     h1.277l-1.033,0.749L33.525,48.645z M33.129,42.49l0.396,1.215l-1.034-0.75l-1.034,0.75l0.396-1.215l-1.033-0.752h1.278     l0.394-1.214l0.395,1.214h1.277L33.129,42.49z M33.129,37.562l0.396,1.217l-1.034-0.752l-1.034,0.752l0.396-1.217l-1.033-0.75     h1.278l0.394-1.215l0.395,1.215h1.277L33.129,37.562z M33.129,32.703l0.396,1.215l-1.034-0.75l-1.034,0.75l0.396-1.215     l-1.033-0.752h1.278l0.394-1.213l0.395,1.213h1.277L33.129,32.703z M33.129,27.759l0.396,1.214l-1.034-0.75l-1.034,0.75     l0.396-1.214l-1.033-0.751h1.278l0.394-1.214l0.395,1.214h1.277L33.129,27.759z"/>
			<polygon points="8.01,68.148 1.351,68.148 1.351,71.478    "/>
			<polygon points="1.351,60.974 1.351,64.589 15.127,64.589 22.357,60.974    "/>
			<polygon points="1.351,53.8 1.351,57.416 29.473,57.416 36.704,53.8    "/>
			<polygon points="35.584,46.597 35.584,50.212 43.88,50.212 51.109,46.597    "/>
			<polygon points="35.579,39.256 35.579,42.872 58.561,42.872 65.791,39.256    "/>
			<polygon points="35.579,32.083 35.579,35.697 72.909,35.697 80.139,32.083    "/>
		</g>
	</g>
	<polygon points="87.259,28.522 94.489,24.908 35.579,24.908 35.579,28.522  "/>
</g>
</svg>