<svg xmlns="http://www.w3.org/2000/svg" xmlns:xlink="http://www.w3.org/1999/xlink" version="1.1" id="Calque_1" x="0px" y="0px" width="100.0px" height="100px" viewBox="0 0 283.46 283.46" enable-background="new 0 0 283.46 283.46" xml:space="preserve">
<circle cx="221.545" cy="43.31" r="5.46"/>
<circle cx="214.125" cy="55.412" r="5.46"/>
<g>
	<path d="M222.866,12.558c-1.906-1.169-4.854-2.977-4.854-2.977s-2.916-1.788-4.821-2.956c-1.908-1.169-9.092,7.279-11.562,10.549   c-2.467,3.27,0.245,4.635,0.245,4.635l-4.785,7.302l-6.148-3.771c0.738-2.488-0.36-4.509-2.366-5.742   c-2.478-1.518-5.725-0.73-7.244,1.749c-1.519,2.477-0.793,5.798,1.685,7.318c1.75,1.072,3.853,1.04,5.464,0.068l6.203,3.802   l-5.03,7.702l-5.872-3.599c0.183-1.85-0.574-4.155-2.415-5.282c-2.478-1.519-5.692-0.778-7.212,1.699   c-1.52,2.478-0.688,5.626,1.789,7.145c2.01,1.232,4.38,1.181,6.263-0.607l5.722,3.509c0,0-22.841,36.493-37.536,58.954   c-23.201-8.207-34.751-3.718-44.583,5.526c-9.834,9.245-9.284,27.208-15.014,32.026c4.808-0.293,8.023,7.273-2.146,24.614   c-10.169,17.34-23.221,15.936-27.909,10.749c0.639,11.036-17.548,12.965-25.25,26.751c-19.941,40.071,27.146,61.296,27.146,61.296   s40.291,32.348,66.958-3.602c8.792-13.118,2.265-30.192,12.392-34.629c-6.75-1.826-13.922-12.813-3.079-29.741   c10.842-16.929,19.036-17.485,20.958-13.067c1.693-7.292,17.943-14.931,21.721-27.889c3.777-12.957,2.562-25.32-15.275-42.275   C179.655,88.529,201.82,51.62,201.82,51.62l6.555,4.02l1.749-2.849l-6.536-4.007l4.583-7.976l6.758,4.144l2.186-3.563l-6.983-4.282   l4.402-7.684c0,0,2.386,1.895,4.182-1.789C220.508,23.952,224.771,13.726,222.866,12.558z M95.717,200.07   c-0.996,1.625-4.089,1.814-4.916-0.48c-1.189-3.296,3.212-3.541,3.212-3.541s-0.199-4.292-4.189-3.612   c-4.809,0.821-12.789,16.733-14.574,18.915c-1.784,2.181-13.652,22.754-24.884,15.568c-4.963-2.596-4.197-7.486-4.197-7.486   s0.444-7.77,6.677-6.033c4.288,2.48,0.18,8.451-2.833,7.051c-3.014-1.401,1.508,6.284,5.464,4.692   c3.956-1.598,7.413-3.352,15.466-16.729c8.055-13.378,16.654-21.316,23.146-17.335C97.873,193.397,97.045,197.908,95.717,200.07z    M101.597,253.203c0.372,4.249,9.273,4.791,6.658,2.741c-2.614-2.049,0.844-8.418,4.998-5.724c4.374,4.768-2.349,8.688-2.349,8.688   s-4.012,2.902-8.576-0.342c-11.497-6.752,1.454-26.66,2.588-29.241c1.135-2.58,11.693-16.911,10.244-21.569   c-1.204-3.863-5.119-2.094-5.119-2.094s1.778,4.033-1.696,4.468c-2.421,0.308-3.657-2.537-2.661-4.16   c1.327-2.167,4.971-4.95,8.753-2.63c6.494,3.979,3.321,15.243-4.95,28.49C101.217,245.078,101.224,248.95,101.597,253.203z"/>
</g>
</svg>