<svg xmlns="http://www.w3.org/2000/svg" xmlns:xlink="http://www.w3.org/1999/xlink" version="1.1" id="Layer_1" x="0px" y="0px" width="100px" height="100px" viewBox="0 0 100 100" enable-background="new 0 0 100 100" xml:space="preserve">
<path display="none" d="M67.318,52.734v25.869c-7.67-1.406-16.271-2.194-25.353-2.194c-7.506,0-14.681,0.538-21.272,1.521V52.734  v-0.756c6.593-0.981,13.768-1.521,21.272-1.521c9.082,0,17.683,0.789,25.353,2.195V52.734z"/>
<path display="none" d="M17.74,49.375c0.228-0.04,0.646-0.076,1.221-0.107c7.246-1.561,15.831-2.467,25.046-2.467  c9.621,0,18.563,0.986,26.002,2.675c7.156-2.876,12.273-10.482,12.273-19.42c0-11.408-8.33-20.655-18.604-20.655  c-0.729,0-1.445,0.046-2.15,0.137c-2.922-2.118-6.41-3.349-10.16-3.349c-2.613,0-5.102,0.599-7.359,1.679  c-2.258-1.081-4.745-1.679-7.359-1.679c-3.748,0-7.238,1.231-10.159,3.349C25.781,9.446,25.063,9.4,24.336,9.4  c-10.274,0-18.604,9.248-18.604,20.655C5.731,38.885,10.721,46.42,17.74,49.375z"/>
<path display="none" d="M25.011,54.609c0,0,0.411-0.019,0.632,0c0.221,0.02,0.602,0.043,0.602,0.043s0.228-0.189,0.264-0.207  c0,0,0.246-0.24,0.283-0.289c0.036-0.049,0.062-0.625-0.03-0.582c-0.093,0.041-0.355,0.063-0.626,0.251  c-0.271,0.19-1.024,0.43-1.024,0.43s-0.344,0.122-0.239,0.245C24.975,54.623,25.011,54.609,25.011,54.609z"/>
<path display="none" d="M24.876,56.15l-0.024,0.022l0.835-0.022c0,0,0.123-0.159,0.184-0.215c0.063-0.057,1.203-0.166,1.233-0.18  c0.03-0.012,0.289-0.122,0.375-0.251c0.085-0.129,0.029-0.354,0.066-0.417s0.031-0.381-0.073-0.398  c-0.104-0.019-0.185,0.104-0.282,0.104c-0.099,0-0.607-0.02-0.945,0s-0.375,0.109-0.546,0.208c-0.171,0.101-0.393,0.021-0.822,0.603  C24.447,56.188,24.858,56.125,24.876,56.15z"/>
<path display="none" d="M24.588,56.714l-0.004,0.015C24.631,56.753,24.588,56.714,24.588,56.714z"/>
<path display="none" d="M24.263,57.078h0.221l0.101-0.35c-0.006-0.004-0.012-0.008-0.021-0.016c-0.08-0.049-0.08-0.281-0.08-0.281  s0.104-0.416,0.061-0.447c-0.042-0.03,0.006-0.367-0.386-0.318c-0.393,0.05-0.834,0.318-0.89,0.398  c-0.057,0.08-0.092,0.306-0.092,0.306s0.281,0.144,0.539,0.405C23.975,57.041,24.263,57.078,24.263,57.078z"/>
<path display="none" d="M40.91,25.292c0.063-0.191,0.229-0.382,0.229-0.382s0.331,0.013,0.406-0.051  c0.076-0.063,0.09-0.814,0.09-0.814l0.063,0.36c0,0,0.179,0.276,0.209,0.225c0.033-0.05,0.338-0.165,0.427-0.225  c0.089-0.061,0.396-0.055,0.434-0.08c0.038-0.025,0.179-0.267,0.254-0.356c0.077-0.089,0.396-0.484,0.432-0.56  c0.039-0.077,0.346-0.624,0.346-0.624s-0.039-0.229-0.102-0.255c-0.065-0.025-0.396,0.038-0.676,0.063  c-0.28,0.025-0.331,0.242-0.331,0.242s-0.42-0.025-0.572,0c-0.152,0.025-0.152,0.433-0.255,0.484  c-0.104,0.051-0.088,0.267-0.088,0.267s-0.396,0.051-0.509,0.077c-0.116,0.025-0.141,0.483-0.141,0.483l-0.217-0.115l-0.166,0.102  c0,0-0.102,0.153-0.267,0.344c-0.166,0.191-0.127,0.471-0.127,0.471s-0.18,0.343-0.229,0.445c-0.049,0.102-0.102,0.891-0.102,0.891  l0.42-0.305C40.438,25.979,40.846,25.483,40.91,25.292z"/>
<path display="none" d="M39.776,27.073c0-0.089-0.292-0.063-0.313,0c-0.019,0.064-0.312,0.509-0.312,0.509l0.344-0.077  C39.497,27.506,39.776,27.163,39.776,27.073z"/>
<path display="none" d="M38.083,28.066c-0.012,0.064-0.088,0.471-0.088,0.471l0.369-0.343  C38.364,28.194,38.097,28.002,38.083,28.066z"/>
<path display="none" d="M44.854,23.485c0.051-0.115,0.216-0.624,0.267-0.598c0.051,0.025,0.128,0.458,0,0.585  c-0.126,0.126-0.089,0.433-0.089,0.483c0,0.05,0.318-0.268,0.471-0.42c0.081-0.081,0.143-0.304,0.181-0.494l-0.04,0.24  c0,0,0.19,0.089,0.37,0.012c0.178-0.076,0.229-0.395,0.229-0.395l0.217-0.585c0,0,0.318-0.025,0.089,0.21  c-0.229,0.236,0.104,0.388,0.104,0.388l0.42-0.166l0.267,0.318c0,0,0.369-0.292,0.396-0.471c0.024-0.178,0.179-0.687,0.179-0.687  l0.242,0.318c0,0,0.343-0.153,0.354-0.191c0.015-0.039,0.064-0.407,0.104-0.624c0.038-0.216,0.406-0.343,0.547-0.395  c0.139-0.051,0.317-0.216,0.317-0.216s0.317-0.419,0.486-0.649c0.168-0.229,0.035-0.675-0.027-0.726  c-0.064-0.051,0.089-0.42,0-0.458c-0.09-0.038-0.357-0.254-0.572-0.318c-0.217-0.063-0.293-0.14-0.331-0.102  c-0.038,0.038-0.014,0.356-0.153,0.509c-0.141,0.153-0.382,0.839-0.382,0.839l-0.521,0.726l0.189-0.547l0.331-0.776l-0.09-0.904  c0,0-0.139-0.458-0.215-0.458c-0.077,0-0.318-0.051-0.509,0c-0.191,0.051-0.383,0.242-0.383,0.394c0,0.153,0.013,0.624-0.204,0.777  c-0.216,0.153-0.164,0.992-0.164,0.992l0.164,0.42c0,0-0.179,0.077-0.28,0.127c-0.103,0.051-0.343,0.318-0.533,0.521  c-0.19,0.204,0.14,0.331,0.14,0.331s-0.051,0.204-0.229,0.153c-0.178-0.051-0.42,0.063-0.42,0.063l-0.33,0.14h-0.229l-0.368,0.114  c0,0-0.307,0.178-0.407,0.242c-0.104,0.064-0.127,0.548-0.127,0.548s-0.19,0.343-0.407,0.458c-0.217,0.114,0.165,0.611,0.165,0.611  C44.295,23.395,44.804,23.599,44.854,23.485z"/>
<path display="none" d="M49.652,18.547c0.217-0.039,0.497-0.153,0.611-0.191c0.113-0.038,0.268-0.254,0.15-0.305  C50.3,18,49.981,17.968,49.981,17.913c0-0.054,0.06-0.358,0.06-0.358h-0.556l-0.383,0.358l0.205,0.367  C49.31,18.28,49.437,18.585,49.652,18.547z"/>
<path display="none" d="M50.594,17.554c0,0,0.471-0.318,0.356-0.191c-0.116,0.127-0.015,0.458,0.024,0.458  c0.037,0,0.508,0.091,0.508,0.091s-0.012-0.46,0.039-0.676c0.051-0.217,0.572-0.611,0.572-0.611s0.164,0.216,0.458,0.102  c0.294-0.115,0.699-0.306,0.699-0.585c0-0.28,0.142-1.362,0.114-1.4c-0.024-0.039,0-0.738,0-0.738l-0.217-0.216l-0.14-0.424  l-0.28,0.208c0,0,0.039-0.191,0-0.207c-0.037-0.017-0.203,0.104-0.293,0.104c-0.088,0-0.293-0.063-0.396-0.102  c-0.103-0.039-0.151,0.267-0.218,0.331c-0.063,0.063-0.139,0.242-0.432,0.521c-0.293,0.28,0.139,0.497,0.139,0.497  s-0.215-0.013-0.547,0c-0.33,0.012-0.344,0.432-0.344,0.432l0.332,0.204l-0.384,0.217l0.511,0.369l-0.408,0.115l-0.051,0.381  l0.648,0.115c0,0-0.355,0.179-0.42,0.204c-0.063,0.025-0.256,0.102-0.418,0.318C50.294,17.287,50.594,17.554,50.594,17.554z"/>
<polygon display="none" points="51.891,17.669 52.234,17.338 51.994,17.16 "/>
<path display="none" d="M67.102,2.959c0,0,0.269-0.035,0.346-0.147C67.525,2.7,67.543,2.19,67.533,2.13  c-0.008-0.061-0.061-0.233-0.215-0.329c-0.156-0.095,0-0.285,0-0.285s-0.227-0.069-0.424-0.043  c-0.199,0.026-0.063,0.346-0.146,0.415c-0.087,0.069-0.12,0.259-0.164,0.345c-0.043,0.086,0.164,0.285,0.241,0.415  S67.102,2.959,67.102,2.959z"/>
<path display="none" d="M62.965,5.706c0,0-0.025,0.319-0.025,0.354s0.063,0.26,0.146,0.319c0.086,0.061,0.206,0.182,0.206,0.182  s0.13-0.199,0.392-0.311c0.26-0.112,0.596-0.492,0.596-0.492l0.303,0.121l0.361-0.26l0.252-0.225l0.24-0.302  c0,0,0.078-0.268,0.131-0.423c0.052-0.156,0.154-0.216,0.199-0.293c0.041-0.078-0.035-0.389-0.035-0.492  c0-0.104,0.047-0.579,0.047-0.579S65.35,3.451,65.333,3.59c-0.017,0.139-0.319,0.302-0.319,0.302s-0.139,0.293-0.111,0.311  c0.025,0.017-0.387-0.018-0.387-0.018s-0.398-0.052-0.398,0.078c0,0.13,0.139,0.466,0.164,0.484c0.025,0.017-0.389-0.19-0.389-0.19  s-0.175,0.009-0.338,0.147c-0.164,0.138-0.535,0.328-0.535,0.328s-0.14-0.095-0.285-0.052c-0.146,0.042-0.311,0.104-0.311,0.104  s0.129,0.622,0.153,0.622S62.965,5.706,62.965,5.706z"/>
<path display="none" d="M61.997,7.494c0.207,0.017,0.295-0.363,0.295-0.363h-0.438C61.852,7.131,61.79,7.476,61.997,7.494z"/>
<path display="none" d="M84.865,8.818c0-0.131-0.025-0.625-0.025-0.625l-0.182-0.234l-0.965,0.078l-0.234-0.313l-0.363-0.079  L82.68,7.958l-0.471-0.443l-0.441-0.026l-0.131,0.183l-0.234-0.365c0,0-1.354-0.365-1.536-0.365c-0.183,0-0.782-0.13-0.782-0.13  l-0.13-0.313c0,0,1.853-0.104,2.137,0c0.286,0.104,0.99,0.234,1.226,0.183c0.233-0.052,0.287-0.417,0.6-1.146  s0.572-0.625,0.572-0.625l0.574-0.182l0.362-0.183c0,0,0.185-0.755-0.104-0.938c-0.286-0.182-0.834-0.365-0.834-0.365l-0.233,0.183  l-0.104-0.6h-0.572L81.87,3.217l0.394-0.729l-0.55-0.339l-0.417-0.443L80.75,2.383l-0.232-0.677l-0.81,0.808l-0.052-0.495  l0.104-0.313l-1.328-0.729l-0.47,0.234v0.625l-0.208,0.99l-0.023,0.99l0.154,0.286l-0.261,0.469l-0.208-0.469l-0.418,0.157  l-0.023-0.547l0.26-0.208V2.54l-0.338,0.417L76.712,2.54l0.104-0.313c0,0,0.207-0.13,0.285-0.156  c0.078-0.026,0.313-0.469,0.313-0.469l-0.024-0.99l-0.496-0.156L76.634,0.05l-0.756,0.249L75.436,0.05c0,0-0.494,0.405-0.47,0.718  c0.025,0.313-0.678-0.026-0.678-0.026l0.13,0.521l-0.076,0.443l0.6,0.443l-0.234,0.547l-0.262,0.573c0,0,0.209,0.261,0.313,0.417  c0.104,0.156-0.13,0.156-0.231,0.234c-0.105,0.078-0.262,0.625-0.262,0.625l0.209,0.208l-0.55,0.104l-0.362,0.807l-0.024-1.927  l-0.442-0.13l0.572-0.391l-0.13-0.729l-0.079-0.469l-0.104-0.625l-0.68,0.234l-0.73,2.033l-0.313,0.547c0,0-0.338,1.719-0.441,1.771  s-0.156,0.833-0.156,0.833l-0.156,0.521L70.773,8.14l-0.209,0.104l-0.131-0.573l-0.338,0.26l0.076-0.677l0.287-0.703V5.744  l-0.13-0.729l0.313-0.677l0.521-0.912l0.286-0.574l0.025-0.547L70.8,2.409l-0.131-0.182l0.392-0.208l0.549-0.156l0.363-0.234  l0.286-0.417l-0.286-0.417L71.529,1.42l0.104-0.729c0,0-0.391-0.079-0.572-0.079c-0.183,0-0.729-0.156-0.729-0.156l-0.6,0.729  l0.182,0.833l0.313,0.833l-0.572-0.495l-0.129-0.443l-0.157-0.677L69.105,1.68L69.08,2.253l-0.157-0.417l-0.13-1.016L68.43,0.846  L68.247,1.68l0.155,1.016l0.025,0.391l-0.416-0.156L67.75,3.295l0.104,0.573l0.679,0.157l0.182,0.338l-0.702-0.078l-0.313,0.651  l-0.286-0.782L66.475,3.92l-0.262,0.391l0.079,0.704l-0.364,0.026V5.38l-0.156,0.416l-0.729,0.131l-0.184,0.39l-0.025,0.599  l0.546,0.313l0.341,0.469l1.016-1.85l-0.26-0.39h0.571l0.078,0.338c0,0-0.287,0.834-0.362,0.912c-0.08,0.078-0.861,1.38-0.861,1.38  l0.156,0.625l0.364,0.677l0.365,0.13l-0.757,0.391l-0.313-0.547l-0.26-0.469l-0.183-0.573l-0.26-0.287l0.416-0.365L64.57,6.941  l-0.598,0.026L63.659,7.54l0.104,0.521l0.051,0.287l0.156,0.365l-0.34,0.026L63.45,7.723l-0.81-0.13l-0.156,0.183L61.837,7.75  l-0.416,0.495l-0.78,0.26l0.547,0.391l0.783,0.625h0.648c0,0,0.208,0.183,0.208,0.469c0,0.287,0.209,0.833,0.261,1.042  c0.053,0.209,0.366,0.547,0.366,0.547l-0.938-0.495L62.1,10.537c0,0-0.313-0.833-0.47-0.729c-0.155,0.104-0.626,0.338-0.626,0.338  l-0.13,0.833l-0.313,0.651l-0.156-0.703L59.52,10.77l-0.025,0.865c0.009,0.085,0.012,0.143,0.012,0.146l0.107,1.229  c0,0,0.184,0.311,0.433,0.396c0.251,0.086,0.063,0.354,0.063,0.354l-0.623-0.354c0,0-0.182,0.078-0.188,0.372  c-0.01,0.293-0.044,0.786-0.252,0.993c-0.207,0.208-0.56,0.509-0.532,0.509c0,0-0.156,0-0.166-0.207  c-0.009-0.208,0.361-0.432,0.459-0.587c0.094-0.155,0.26-0.501,0.231-0.656c-0.026-0.155,0.026-0.337,0.043-0.57  c0.019-0.233,0.164-0.544,0.104-0.717c-0.062-0.172,0.018-0.639-0.069-0.881c-0.05-0.141-0.007-0.394,0.063-0.562l-0.412-0.722  L57.88,11.5l0.026,0.495l-0.36-0.494l-1.348,0.467l-0.233,0.337l-0.154-0.596l-0.83-0.544l-0.904,0.57l-0.156,0.57l-0.337,0.518  c0,0-0.312,0.7-0.231,0.751c0.078,0.052,0.438,0.415,0.438,0.415l0.41-0.129l0.545-0.207l0.491-0.052l0.232-0.623l0.232,0.596  c0,0,0.313,0.104,0.337,0.208c0.026,0.104-0.129,0.595-0.129,0.595l0.415,0.726l-0.7-0.726l-0.078-0.518l-0.905,0.129v0.466  l0.776,0.596l-0.312,0.311l-0.597-0.57L54.2,14.3l-0.466,0.156l-0.207,1.166l0.13,0.777l-0.699,0.519l-0.83,1.037l-0.024,0.622  h0.231l-0.284,0.57l-0.467-0.104l-0.26,0.544l-0.207-0.596l-0.646,0.648l0.052,0.232l-0.465,0.544l-0.184,0.389l-0.232,0.363  l0.078,0.647l1.062-0.129l0.413-0.181l0.209,0.595l0.699-0.751l0.024,0.44l-0.519,0.7l-0.025,0.155c0,0-0.45-0.865-0.881-0.311  c-0.396,0.512,0.258-0.434-0.983-0.104c-0.112,0.03-0.597,0.233-0.597,0.233l0.784,0.759c0,0-0.862-0.163-0.862,0.252  c0,0.414-0.052,0.725-0.052,0.725l0.026,0.648l-0.286-0.259l-0.104-0.803c0,0-0.024-0.57-0.207-0.57  c-0.181,0-0.361,0.674-0.518,0.751c-0.156,0.078-0.44-0.104-0.44-0.104l-0.752,0.311l-0.283,0.674c0,0-0.492,0.285-0.622,0.44  c-0.129,0.156-0.597,1.226-0.597,1.226s0.129,0.354,0.026,0.536c-0.104,0.182-0.13,0.673-0.13,0.673l0.492,0.311l-0.778,0.933  c0,0-0.232,0.829-0.337,0.958c-0.104,0.13-0.466,0.156-0.466,0.519c0,0.363-0.312,0.389-0.622,0.595  c-0.312,0.208-0.492,0.57-0.492,0.57v0.519l-1.321,0.388c0,0,0.604,0.104,0.432,0.388c-0.173,0.286-1.208,1.115-1.208,1.115  L40.521,35l-0.259-0.44L39.407,35c0,0-0.57-0.233-0.57-0.104c0,0.13,0.468,1.192,0.468,1.192l0.544,0.233l0.259,0.596l-0.183,0.311  l-0.413-0.363l-0.415,0.259l-0.363,0.44c0,0-0.674,0.259-0.57,0.648c0.104,0.388-0.258,0.854-0.258,0.854l0.518,0.155  c0,0-0.839,0.551-0.673,0.7c0.166,0.148,0.466,0.622,0.466,0.622l0.026,0.181l-0.439,0.441c0,0,0,0.985,0.104,0.985  s-0.44,0.622-0.44,0.622s-0.229,0.596-0.309,0.7c-0.081,0.104-0.132,1.087-0.236,1.113s-1.605,0.752-1.605,0.752  s0.156,0.439,0.156,0.543s-0.363,0.674-0.363,0.674l-0.466,0.052c0,0-1.399,2.165-1.399,2.417s-0.674,0.744-0.674,0.744  s-0.581,0.519-0.777,0.777c-0.195,0.259-0.984,1.528-1.373,1.763c-0.389,0.231-0.232,0.666-0.232,0.666l0.181,0.266  c0,0-1.322,0.105-1.374,0.598c-0.052,0.493-0.285,0.934-0.285,0.934h0.415l1.088-0.272c0,0-0.674,0.661-0.44,0.974  c0.232,0.311,0.518,0.854,0.518,0.854s0.507-0.569,0.907-0.597c0.4-0.024,1.684-0.934,1.684-0.934l0.52-0.415  c0,0,0.791-0.181,0.641-0.153c-0.148,0.025-0.615-0.545-0.849-0.545c-0.234,0-0.751,0.104-0.751,0.104s0.389-0.183,0.854-0.492  c0.467-0.31,1.063-0.622,1.063-0.622s0.025,0.313,0.337,0.232c0.311-0.078-1.088,0.441-0.958,0.623  c0.13,0.181,0.958,0.57,0.958,0.57s-0.673,0.543-0.881,0.594c-0.207,0.053-1.373,0.752-1.373,0.881c0,0.131,0.129,0.752,0.129,0.752  s-0.495,0.025-0.973,0c-0.479-0.025-1.125,0.182-1.125,0.26s-0.312,0.26-0.312,0.26s-1.037-1.166-0.854-1.426  c0.182-0.26-0.155-0.285-0.467-0.207c-0.311,0.077-1.243,0.854-1.243,0.854v0.777c0,0-0.313-0.725-0.648-0.621  c-0.335,0.104-1.735,0.338-1.735,0.338l-0.439,0.621c0,0-0.156,0.674,0,0.674c0.129,0,0.348,0.178,0.417,0.238  c-0.042-0.023-0.158-0.052-0.486,0.021c-0.475,0.104-0.345,0.673-0.216,0.724c0.129,0.054,0.881,0.079,0.958,0.338  c0.077,0.259-0.777-0.622-0.7,0c0.078,0.622,0.622,1.063,0.622,1.063s-0.647-0.077-0.751-0.467  c-0.104-0.391-0.493-0.777-0.519-0.959c-0.026-0.183,0.13-0.479,0-0.523s0.544-0.952,0.208-0.928  c-0.336,0.025-1.063,0.57-1.063,0.57l-0.414,0.355c0,0-1.011-0.031-1.088,0c-0.077,0.029-1.451,0.781-1.684,0.964  s-0.544,0.959-0.26,0.983c0.285,0.025,0.958,0.598,1.141,0.545c0.181-0.053,0.518-0.311,0.518-0.311s-0.389,0.518-0.104,0.674  c0.285,0.153,0.519,0.933,0.519,0.933s-1.114-0.933-1.218-0.854c-0.104,0.077-0.285,0.232-0.285,0.232L19.9,61.143l0.104-0.439  c0,0-0.233-0.262-0.596-0.156c-0.363,0.105-0.7,0.391-0.7,0.391l-0.362,0.024v-0.337c0,0-0.519,0.154-0.57,0.439  c-0.051,0.285-0.389,0.699-0.389,0.699s-0.622,0.465-0.233,0.568c0.389,0.104,1.062,0,1.062,0s0.52,0.016,0.882,0.047  c0.361,0.031,0.751,0.551,0.88,0.73c0.129,0.182-0.078,0.597-0.078,0.597s-0.183-0.44-0.312-0.569  c-0.129-0.131-1.27-0.675-1.477-0.494c-0.208,0.185-0.544-0.023-0.958,0.233c-0.415,0.261-0.855,0.521-0.647,0.83  c0.207,0.312,0.078,0.698,0.078,0.698s-0.285-0.725-0.492-0.698c-0.208,0.024-0.44,0.181-0.751,0.024  c-0.311-0.154-0.284-0.361-0.647-0.414c-0.363-0.051-0.855,0.104-0.855,0.207s0.129,0.752,0.337,0.881  c0.207,0.131,0.26,0.546,0.415,0.699c0.155,0.155,0.544,0.699,0.855,0.752c0.31,0.051,1.088,0.492,1.424,0.467  c0.337-0.025,1.813-0.131,1.813-0.131l-0.026,0.285c0,0-0.311-0.129-0.803,0c-0.492,0.131-1.243,0.025-1.606,0  c-0.362-0.025-1.269-0.467-1.527-0.75c-0.26-0.285-0.492-1.142-0.727-1.063c-0.233,0.078-0.854-0.39-0.854-0.183  s-0.622,1.164-0.648,1.554c-0.026,0.39,0.26,1.348,0.26,1.348s-0.647,1.323-0.647,1.737c0,0.412,0.208,0.438-0.233,0.931  c-0.439,0.493-1.19,1.558-1.087,1.558c0.104,0,1.269-0.26,1.477-0.416c0.207-0.154,0.285-0.312,0.7-0.129s1.373-0.183,1.528-0.207  c0.155-0.026,0.751,0.129,0.751,0.129s0.699,0.104,0.881,0.053c0.181-0.053,0.285,0.439,0.57,0.389  c0.285-0.052,0.518-0.311,0.595-0.518c0.078-0.207,0.104-0.7,0.493-0.777c0.389-0.078,0.285,0.154,0.285,0.154  s-0.519,0.313-0.466,0.52c0.052,0.207,0.698,0.207,0.959,0.467c0.259,0.258,0.439,0.336,0.439,0.336s0.052,0.104,0.129,0  c0.077-0.104,0.336-0.023,0.544-0.078c0.207-0.051,0.57-0.153,0.492-0.674c-0.078-0.518,0.181-1.164,0.363-1.244  c0.181-0.075-0.052,1.66-0.052,1.66s-0.415,0.52-0.7,0.621c-0.285,0.104-0.958,0.183-0.829,0.52  c0.129,0.337-0.648,0.391-0.648,0.391s0.468-0.52,0.337-0.805c-0.13-0.285-0.518-0.83-0.933-0.646  c-0.415,0.182-0.933,0.467-1.036,0.49c-0.104,0.026-0.156-0.23-0.44-0.388c-0.285-0.156-0.855-0.183-1.063-0.132  c-0.208,0.054-1.166,0.132-1.166,0.132s-0.259,0.104-0.646,0c-0.39-0.104-0.727-0.312-1.037,0c-0.312,0.312-0.777,0.467-0.777,0.467  s-0.026,0.259,0.104,0.468c0.13,0.207-0.104,0.414-0.104,0.414s-0.078,0.18,0.285,0.543c0.363,0.362,0.492,0.674,0.492,0.674  l-0.208,0.646c0,0-0.596,0.391,0,0.439c0.596,0.054,1.27-0.699,1.581-0.776s-1.088,0.776-0.829,0.905  c0.259,0.131,0.647,0.469,0.647,0.469s-0.674-0.415-1.037-0.363c-0.362,0.053-0.439,0.57-0.389,0.854  c0.052,0.285,0.233,0.854,0.259,0.934c0.026,0.078-0.154,0.646,0.39,0.52c0.252-0.061,0.425-0.188,0.539-0.307  c-0.088,0.146-0.145,0.309,0.005,0.325c0.285,0.03,0.621,0.267,0.388,0.421c-0.233,0.154-1.036,0.232-1.321,0  S12,77.671,11.664,78.063c-0.337,0.387-0.182,0.697-0.182,0.697s0.674-0.414,0.933-0.205c0.259,0.205,0.183,0.543,0.337,0.672  c0.155,0.131,0.804-0.231,0.804-0.231s0.775-0.13,0.775-0.285s-0.025-0.569-0.025-0.569s-0.104-0.207,0.312-0.57  c0.415-0.362,0.829-0.596,0.829-0.752c0-0.153,0.103-0.465,0.103-0.465s0.337-0.285,0.44-0.285c0.103,0,0.182,0.313,0.363,0.313  s0.544-0.13,0.544-0.13s1.01-0.414,1.166-0.414c0.155,0,0.415,0.231,0.415,0.231s-1.348,0.26-1.502,0.597  c-0.054,0.114-0.137,0.313-0.224,0.521c0.081-0.254,0.119-0.475,0.016-0.492c-0.26-0.053-0.57-0.155-0.674-0.104  c-0.104,0.052-1.191,1.14-1.113,1.319c0.078,0.183,0.285,0.39,0.285,0.39s-0.233,0.026-0.44,0.208s-0.493,0.549-0.881,0.753  c-0.388,0.205-0.595,0.283-0.595,0.542c0,0.26-0.648,0.803-0.648,0.803s1.218-0.205,1.71-0.258c0.492-0.052,0.751-0.078,0.751-0.078  s-1.632,0.207-1.632,0.492c0,0.284-0.104,0.596-0.104,0.596s-0.466-0.336-0.544-0.336c-0.076,0-0.337-0.416-0.491-0.26  c-0.155,0.154-0.829,0.569-0.907,0.803c-0.078,0.234-0.312,0.752-0.312,0.752s0.026,0.104,0,0.414  c-0.025,0.313-0.104,0.648-0.208,0.701c-0.103,0.051-0.354,0.957-0.189,0.982s0.476,0.181,0.683,0.154  c0.208-0.024,0.492-0.519,0.622-0.543c0.129-0.025,0.104-0.336-0.156-0.336c-0.258,0-0.439-0.57-0.439-0.57s0.466,0.313,0.569,0.389  c0.104,0.077,0.208,0.232,0.39,0.154c0.181-0.077,0.751,0.025,1.088-0.104c0.336-0.129,0.466-0.545,0.803-0.828  c0.337-0.285,0.596-0.521,0.596-0.623c0-0.104,0.078-0.414,0.078-0.414s0.183,0.492,0.414,0.519  c0.233,0.026-0.051-0.024-0.336,0.284c-0.285,0.313-0.907,1.064-0.907,1.064s0.053,0.438,0.182,0.465  c0.129,0.025-0.259,0.447-0.415,0.549c-0.155,0.1-0.726,0.332-0.673,0.437c0.052,0.104-0.053,0.468,0.052,0.492  c0.103,0.026,0.336,0.286,0.362,0.467c0.025,0.181,0.052,0.44,0.052,0.44S14,86.07,14.414,85.994c0.415-0.078,1.088-0.26,1.088-0.26  s-1.01,0.285-1.217,0.519c-0.207,0.231-0.544,0.545-0.544,0.545s-0.207,0.024-0.337-0.26c-0.129-0.285-0.44-0.468-0.466-0.622  c-0.026-0.155-0.026-0.439-0.026-0.439s-0.57-0.597-0.622-0.338c-0.052,0.26-0.337,0.596-0.363,1.114  c-0.025,0.519-0.673,1.011-0.543,1.243c0.129,0.232,0.543,0.621,0.621,1.035s0.7,1.193,0.985,1.426  c0.286,0.232,1.659,1.193,1.866,1.297s0.568,0.207,0.568,0.207s-0.854,0.387-0.568,0.88c0.284,0.492,0.725,0.597,0.725,0.597  s-0.388-1.27,0.078-1.063c0.466,0.207-0.052,0.391,0.259,0.699c0.313,0.312,0.337,0.597,0.337,0.597l0.673-0.183  c0,0,0.467,0.207,0.467,0.312s0.776,0.261,0.776,0.261l0.493-0.439c0,0,0.958-0.232,1.063-0.232c0.104,0,0.414,0.104,0.414,0.104  l0.053-0.57l0.518,0.391l1.088-0.752c0,0,0.312-0.621,0.466-0.621c0.156,0,0.647-0.545,0.647-0.545s0.933-0.621,1.037-0.828  c0.104-0.209,0.596-0.647,0.596-0.647s0.44-0.597,0.647-0.544c0.208,0.052,0.467-0.104,0.389-0.414  c-0.078-0.313-0.337-0.363-0.337-0.363s1.425-0.259,1.555-0.466c0.13-0.207,0.026-0.751,0.026-0.751s0.389,0.829,0.466,0.829  c0.078,0,0.727-0.647,0.727-0.647s0.518,0.362,0.646,0.184c0.13-0.184,0.337-0.52,0.337-0.648c0-0.128,0-0.621,0-0.621l0.493-0.285  c0,0,0.311,0.078,0.181-0.597c-0.129-0.674-0.466-1.112-0.466-1.112l-0.13-0.156l0.312-0.545c0,0-0.025-0.438-0.182-0.518  c-0.157-0.078-0.259,0-0.259-0.232s0.025-0.596,0.025-0.596l0.129-0.104c0,0,0.259,0.261,0.259,0.44  c0,0.183,0.208,0.881,0.208,0.881s-0.052,0.468-0.026,0.623c0.026,0.154,0.129,0.414,0.129,0.414s0.26-0.338,0.337-0.569  c0.078-0.231,0.078-0.854-0.025-0.882c-0.104-0.024-0.519-0.414-0.312-0.621c0.208-0.209,0.337-0.752,0.337-0.752  s0.08-0.021,0.129-0.313c0.081-0.468,0.103-0.324,0.388-0.428c0.285-0.104,0.462-0.434,0.702-0.059  c0.103,0.156-0.013,0.58-0.104,0.953c-0.093,0.381-0.222,0.528-0.222,0.528l-0.168-1.01c0,0-0.039,0.437-0.366,0.92  c-0.137,0.203-0.229,1.503-0.15,1.503c0.078,0,0.078,0.52,0.078,0.52s-0.259,0.957-0.13,1.088c0.13,0.129,0.336,0.285,0.362,0.674  c0.025,0.39,0.208,0.726,0.363,0.775c0.154,0.055,1.243-0.076,1.32,0.209c0.077,0.284,0.207,0.104,0.312,0.467  c0.104,0.361,0.155,1.217,0.155,1.217l0.727-0.025c0,0,0.155-0.104,0.207-0.568c0.052-0.467,0.311-1.349,0.337-1.813  c0.026-0.468-0.104-1.271-0.104-1.505c0-0.229-0.439-0.466,0.078-0.931c0.519-0.467,0.829-1.09,0.829-1.09l-0.26-0.492l0.156-0.646  l0.569,0.024c0,0,0.233,0.13,0.312,0.105c0.079-0.025,0.467-0.338,0.467-0.338l0.388-0.545l0.363-0.62l0.078-0.674l0.208-0.854  l0.104-0.184l0.053-0.414l-0.129-1.063l-0.338-1.217l-0.104-0.908l-0.519-0.207l0.077-0.674l0.362-0.313l0.933-0.13l0.804-1.14  l-0.026-1.112l-0.983-1.22L36.181,68.9l0.129-1.141l0.441-1.451l0.155-1.604l-0.285-1.012l-0.363-0.777l0.078-1.111l-0.052-1.427  l0.259-0.698c0,0-0.104-0.623-0.129-0.701c-0.026-0.078-0.155-0.371-0.155-0.679c0-0.306,0.155-0.745,0.155-0.745l0.311-0.597  l0.182-1.218l0.674-1.479l1.01-1.088l1.142-0.96c0,0,0.466,0.104,0.543,0.156c0.076,0.052,1.373,0.282,1.373,0.282l0.823,0.332  l0.545-1.018v-1.876v-0.208l-0.754-0.287l-0.416-0.563l-0.104-0.396l1.12-1.882l1.459-2.833v-2.534c0,0,0.418-0.807,0.339-1.458  c-0.077-0.651-0.233-1.277-0.233-1.277l0.025-0.495h1.459l1.016-1.224c0,0,0.156-0.183,0-0.521  c-0.155-0.339-0.155-0.886-0.155-0.886l0.859-0.704l0.286-1.276l0.391-0.573l0.965-1.015l0.339-0.469v-1.172L49.3,29.798  l-0.416-0.703c0,0-0.13-0.469,0.104-0.573c0.234-0.104,1.226-1.225,1.226-1.225s0.26-0.912,0.182-1.068  c-0.077-0.156,0.016-0.417,0.016-0.417s0.896-0.782,1.025-1.042c0.131-0.26,0.34-0.521,0.34-0.521h0.625c0,0,0.47,0.339,0.679,0.599  c0.208,0.261,0.495,0,0.495,0l0.339-0.963c0,0,0.313-0.599,0.208-0.912c-0.104-0.313-0.313-1.172-0.313-1.172  s-0.078-0.703,0.131-0.782c0.207-0.078,1.197,0.157,1.197,0.157s0.6,0.208,0.989,0.208s1.328,0.052,1.535,0.234  c0.209,0.182,0.601,0.495,0.729,0.495c0.127,0,0.729-0.495,0.729-0.495l0.184-0.615c0,0-0.232-0.323-0.287-0.531  c-0.053-0.208,0.287-0.651,0.287-0.651s0.418-0.599,0.262-1.068s0.035-1.094,0.035-1.094l-0.453-0.313l0.453-0.365h0.692  c0,0,0-0.052,0.209-0.182c0.208-0.131,0.495,0.104,0.651,0.156c0.154,0.052,0.313-0.195,0.313-0.195v-0.691l-0.183-0.443  c0,0,0.286-0.443,0.416-0.443c0.131,0,1.043,0,1.043,0s0.989,1.381,1.146,1.693c0.156,0.313,0.678,1.199,0.756,1.199  s0.209,0.885,0.209,0.885l1.771-0.078l0.313,0.495l0.65-0.443l0.625-0.391V18.23l0.441-0.521h0.287l0.572,0.417v0.313l0.678,0.156  l0.601,0.052l0.495,0.443l0.26,0.078l0.235-0.182c0,0,0.313-0.651,0.233-0.729c-0.078-0.079-0.156-0.651-0.156-0.651l0.548-0.678  l0.625-0.313l0.209-0.573v-1.225l-0.472-1.015l0.313-1.459l-0.157-0.338l0.184-0.912l0.132-0.417l0.521-0.599l0.262-0.599  l0.184-0.547l0.91-0.156l0.285,0.156l0.313-0.156l0.443-0.729l0.442-0.443l0.521-0.287l0.313,0.156l0.338,0.729L78.62,8.77  l1.095,0.469L80.523,9.5l0.363,0.442l0.313,0.73l0.155,0.573l-0.391,0.651l-0.548,1.016l0.104,1.068c0,0,0.441,0.13,0.494,0.235  c0.053,0.104,0.887,0.052,0.887,0.052v-1.146l-0.286-0.729l1.067-1.068l0.729-0.703c0,0-0.104-0.625-0.131-0.808  c-0.025-0.183-0.286-0.521-0.286-0.521l0.261-0.183l0.625,0.677c0,0,0.573,0.026,0.782,0.026c0.207,0,0.522,0,0.522,0V9.078  C85.182,9.078,84.865,8.948,84.865,8.818z"/>
<path display="none" d="M11.43,79.447c-0.068,0.103-0.189,0.142-0.214,0.273c-0.023,0.129-0.072,0.518,0.023,0.586  c0.098,0.066,0.021,0.377-0.009,0.475s-0.015,0.48-0.015,0.48l0.301-0.373c0,0-0.15-0.089-0.048-0.238  c0.102-0.149,0.28-0.143,0.28-0.143s0.169,0.189,0.232,0.063s0.044-0.367,0-0.45c-0.043-0.082,0.136-0.06,0.169-0.026  c0.034,0.026,0.165,0.197,0.262,0.158c0.098-0.039,0.339-0.188,0.316-0.346c-0.024-0.154-0.151-0.566-0.199-0.684  c-0.048-0.117-0.262-0.422-0.349-0.422c-0.089,0-0.403,0.18-0.395,0.291c0.01,0.11,0.087,0.479,0.087,0.479l0.073,0.302  c0,0-0.262-0.325-0.286-0.354C11.639,79.492,11.498,79.348,11.43,79.447z"/>
<path display="none" d="M12.257,67.596c0,0,0.18-0.223,0.049-0.322c-0.131-0.101-0.326,0.111-0.271,0.199  C12.091,67.563,12.257,67.596,12.257,67.596z"/>
<path display="none" d="M21.383,92.695c0,0,2.479-3.498,4.188-4.248c1.709-0.752,3.912-2.771,3.912-2.771s0.137-3.367,1.278,0.736  c0.063,0.23,0.979-0.139,1.396,0.244c0.94,0.865-0.243,0.941,0.685,1.732c0,0,0.506,0.736,0.896-1.295  c0.077-0.4-0.174-2.121,0.099-2.611c1.685-3.03,4.589-3.854,2.305-10.487c-0.135-0.39,2.095-1.442,2.122-2.017  c0.119-2.513-2.008-1.754-2.08-3.224c-0.061-1.209,0.792-2.78,0.71-4.063c-0.161-2.539-1.189-4.752-0.647-6.405  c1.322-4.036,3.472-6.084,3.472-6.084s2.599,1.741,3.014-1.05c0.311-2.086-0.556-3.277-0.556-3.277s2.86-7.094,3.721-9.725  c0.859-2.631,3.075-8.336,4.299-10.863c0.87-1.795,2.485-3.041,3.928-4.181c-0.596-1.334-0.438-2.041-0.438-2.041  s3.967,0.67,4.767,1.012c1.337,0.571,0.599-4.178,1.437-4.917c0.688-0.606,1.396,0.165,1.563-0.41  c1.266-4.361,3.387,2.201,3.387,2.201l4.663-0.521l3.728-2.397c0,0-2.16-3.62,0-5.366s6.483-1.433,6.483-1.433  s0.313,4.506,0.81,4.741c0.494,0.235,3.021-2.553,2.892-3.36c-0.13-0.807-1.095-3.934-1.095-3.934l2.007-3.074  c-9.716-5.042-6.841-3.218-9.589-3.54c-0.452-0.053-0.521,4.142-0.879,4.188c-0.434,0.055-3.027-4.166-3.563-3.897  c-0.63,0.317-1.055-0.035-1.777,0.483c-0.261,0.185,0.067,1.263-0.063,1.555c-0.307,0.692-0.118,1.381-0.525,2.07  c-0.117,0.199-1.021-0.229-1.211-0.076c-0.875,0.707-1.427,2.029-2.26,2.655c-1.311,0.986-1.622-0.158-3.814,1.46  c-0.355,0.263,1.979,1.016,0.269,1.626c-0.813,0.291-1.795,1.533-5.093,0.996c-2.43-0.396-4.985,2.593-5.221,4.442  c-0.559,4.371-2.752,0.284-3.295,2.761c-0.92,4.194-1.482,2.201-2.822,3.621c-0.575,0.609-1.744,0.28-2.358,0.884  c-2.308,2.272-2.654,4.238-2.654,4.238s4.768-4.8,7.604-4.327c0.886,0.147,1.782,1.111,0.836,1.217  c-3.65,0.409-2.341,3.781-2.525,4.331c-0.454,1.358-0.965,1.732-1.36,2.146c-1.114,1.166-3.989,5.596-4.922,6.684  c-0.934,1.088-3.059,7.065-4.457,9.482c-1.399,2.417-4.572,6.621-7.167,8.082C21.007,59.8,11.007,62.8,10.778,71.607  c-0.049,0.697,1.228,2.154,1.179,2.748c-0.19,2.313-1,3.807-0.74,6.906c0.181,2.148-1.118,3.315-0.033,5.551  c1.17,2.412,3.02,4.586,3.663,5.521C16.384,94.568,21.383,92.695,21.383,92.695z"/>
<path d="M93.442,52.744c0.321-0.181,1.194-0.844,1.889-0.98C97.707,49.049,99,45.657,99,41.237c0-12.161-6.351-17.955-18.588-17.955  c-7.277,0-11.653,0.478-20.913,3.027c-7.153,2.309-12.199,5.46-21.097,14.005c-1.611,2.165-8.623,6.791-13.294,6.791  c-6.096,0-8.58-5.971-8.58-9.19v-1.797c0.002,0,0.004,0,0.006-0.001c0.048-0.725,0.791-1.339,1.835-1.598  c-0.001-0.003-0.004-0.005-0.005-0.008c5.423-1.469,9.357-5.839,9.357-11.007c0-0.074-0.004-0.148-0.005-0.222  c-1.706,0.86-1.946,1.542-5.001,1.936c-3.355,0-5.486,5.883-8.354,5.883c-2.868,0-4.764-5.883-8.354-5.883  c-3.056-0.393-3.296-1.076-5.001-1.936C1.004,23.356,1,23.431,1,23.505c0,5.075,3.796,9.382,9.069,10.926  c0.843,0.276,1.44,0.793,1.545,1.402c0.001,0.071,0.002,0.14,0.003,0.213v1.859c-0.032,1.762-0.178,4.172-0.683,7.458  c-1.395,9.062,5.925,19.381,34.646,19.381c1.319,0,2.803-0.021,4.404-0.072c-0.296,1.057-0.649,2.074-0.924,2.129  c-0.581,0.117-3.137,3.369,1.743,1.744c2.646-0.883,6.831-2.928,10.108-4.614c4.44-0.473,9.012-1.188,13.115-2.246  c9.051-2.332,16.183-4.828,20.468-9.037c-1.089,0.591-2.592,1.37-4.421,2.217c-3.951,1.829-10.574,3.34-10.574,3.34s0,0,6.803-2.44  C91.338,53.958,92.226,53.429,93.442,52.744z M83.011,50.618c0.515,0.097,1.132,0.123,1.804,0.078  c-0.006,0.074-0.005,0.148,0.012,0.224c0.087,0.383,0.469,0.622,0.851,0.536c0.383-0.087,0.622-0.469,0.535-0.852  c-0.007-0.032-0.02-0.062-0.031-0.093c0.102-0.021,0.203-0.039,0.306-0.063c0.29-0.066,0.57-0.143,0.84-0.226  c-0.102,0.874-0.774,1.64-1.724,1.856C84.445,52.344,83.307,51.692,83.011,50.618z"/>
</svg>