<svg xmlns="http://www.w3.org/2000/svg" xmlns:xlink="http://www.w3.org/1999/xlink" version="1.1" id="Layer_2" x="0px" y="0px" width="100px" height="100px" viewBox="0 0 100 100" enable-background="new 0 0 100 100" xml:space="preserve">
<g>
	<path fill="none" d="M59.098,84.132c-0.626,0-1.286-0.017-1.944-0.032c-0.109,0.499-0.132,1.043,0.065,1.284   c0.203,0.25,0.825,0.305,1.663,0.154c3.984-0.728,6.509-0.931,6.995-0.965c0.808-0.188,1.674-0.543,2.007-0.807   c-0.12-0.109-0.369-0.292-0.839-0.524C65.068,83.903,62.309,84.132,59.098,84.132z"/>
	<path fill="none" d="M41.174,79.299c-0.007-0.295-0.013-0.634-0.016-1c-0.398,0.153-0.838,0.222-1.307,0.222   c-1.098,0-2.342-0.35-3.515-0.725c-1.532-0.49-2.78-1.358-3.729-2.587c-0.036,1.02,0.101,1.959,0.538,2.647   c0.208,0.327,0.841,1.324,3.486,1.324C38.066,79.181,39.604,79.23,41.174,79.299z"/>
	<path fill="none" d="M36.63,83.121c-0.114,0-0.208-0.015-0.318-0.018c-0.26,0.438-0.517,1.052-0.351,1.426   c0.202,0.455,1.153,0.772,2.542,0.851c5.617,0.312,7.614,0.013,7.632,0.01l0.153-0.012c0.28-0.005,1.11-0.129,1.495-0.637   c0.2-0.264,0.273-0.639,0.235-1.106c-0.036-0.002-0.071-0.005-0.107-0.007C44.039,83.379,40.033,83.121,36.63,83.121z"/>
	<path fill="none" d="M71.739,72.616l0.971,0.745c-0.368-1.941-0.188-5.112-0.041-6.9c-0.75,0.325-1.705,0.843-2.573,1.4   l0.852,1.479C71.266,70.278,71.554,71.41,71.739,72.616z"/>
	<path fill="none" d="M61.021,63.443c-0.284,1.162-0.674,2.755-0.84,3.793c0.269,0.179,0.439,0.38,0.52,0.489   c0.621,0.837,0.464,1.676,0.115,2.412c0.038-0.012,0.077-0.023,0.118-0.037c1.039-0.332,1.764-0.965,2.28-1.992   c1.4-2.785,0.791-7.528,0.017-10.898c-0.4,0.255-0.787,0.484-1.161,0.688C62.039,59.188,61.633,60.943,61.021,63.443z"/>
	<path fill="none" d="M18.887,39.8c-0.062,0-0.124-0.004-0.186-0.013c-0.898-0.119-1.488-1.004-2.234-2.124   c-0.542-0.813-1.362-2.042-1.925-2.127c-0.04-0.004-0.167-0.025-0.417,0.176c-1.313,1.066-2.507,1.351-3.469,1.265   c-1.414,2.646-2.341,5.65-2.83,7.73c0.299,0.211,0.568,0.458,0.771,0.767c0.033,0.049,0.063,0.1,0.092,0.151   c0.397-0.09,0.859-0.109,1.384-0.037c1.395,0.195,3.237,1.044,3.957,2.431c0.007,0,0.015,0.001,0.021,0.001   c0.107,0.007,0.22,0.014,0.336,0.023c0.331-1.854,0.798-4.02,2.336-5.019c0.724-0.471,1.599-0.612,2.461-0.396   c0.215,0.054,0.417,0.115,0.611,0.18c-0.07-0.981-0.151-2.054-0.243-3.201C19.342,39.721,19.121,39.8,18.887,39.8z"/>
	<path fill="none" d="M37.492,59.234c-0.529-0.135-1.071-0.279-1.627-0.437c-0.924,3.031-2.38,9.733-0.606,13.256   c0.516,1.023,1.24,1.655,2.278,1.987c0.041,0.014,0.08,0.026,0.119,0.039c-0.35-0.738-0.506-1.576,0.114-2.413   c0.081-0.11,0.251-0.311,0.519-0.49c-0.166-1.037-0.555-2.628-0.839-3.791c-1.13-4.62-1.572-6.717-0.205-7.979   C37.321,59.337,37.41,59.293,37.492,59.234z"/>
	<path fill="none" d="M14.836,33.587c1.425,0.216,2.405,1.687,3.27,2.983c0.232,0.349,0.553,0.83,0.788,1.106   c0.163-0.11,0.322-0.196,0.476-0.264c-0.166-1.963-0.35-4.038-0.542-6.085c-1.472-0.229-2.806,0.034-4.053,0.792   c-1.005,0.612-1.895,1.521-2.685,2.583c0.245-0.128,0.503-0.285,0.791-0.52C13.646,33.562,14.368,33.518,14.836,33.587z"/>
	<path fill="none" d="M78.61,27.257c-1.284,0.213-2.396,0.648-3.168,1.023c0.243,1.021,0.439,1.972,0.613,2.889   c0.548-0.197,1.594-0.719,1.878-1.319c0.088-0.183,0.09-0.352,0.008-0.564c-0.302-0.787-0.027-1.337,0.165-1.596   C78.24,27.51,78.415,27.374,78.61,27.257z"/>
	<path fill="none" d="M60.729,80.165h-1.164v-5.664c-0.322,0.047-0.64,0.078-0.945,0.078c-0.972,0-1.828-0.274-2.42-1.047   c-0.781-1.023-0.562-2.131-0.104-3.105c-0.859-0.588-2.16-1.729-2.021-3.187c-0.438-0.065-1.203-0.087-1.847-0.105   c-1.559-0.044-3.695-0.104-6.033-0.631c-0.366-0.083-0.641-0.018-0.921,0.221c-1.806,1.521-2.25,8.169-2.126,12.668   c1.664,0.091,3.351,0.195,5.019,0.303C52.455,79.972,57.086,80.268,60.729,80.165z"/>
	<path fill="none" d="M61.535,74.037v6.098c1.995-0.095,3.64-0.327,4.664-0.784c3.015-1.343,1.383-7.49,1.066-8.579l-0.526-0.901   c-0.001,0.003-0.002,0.007-0.004,0.01c-0.995,1.979-2.543,3.315-4.601,3.975C61.937,73.918,61.736,73.978,61.535,74.037z"/>
	<path fill="none" d="M53.985,59.162c-1.266-0.247-1.962-0.384-3.151,0.272c-1.277,0.706-2.948,1.059-5.034,1.059   c-1.816,0-3.954-0.273-6.414-0.809l-0.987,2.986c0.314,0.102,0.815,0.108,1.285-0.188c0.485-0.307,0.643-0.755,0.659-0.888   c-0.085,0.68,0.554,3.294,0.936,4.855c0.276,1.128,0.502,2.086,0.677,2.93c0.428-1.801,1.074-3.342,2.047-4.162   c0.752-0.636,1.661-0.855,2.625-0.637c2.151,0.485,4.093,0.54,5.656,0.584c1.856,0.053,2.978,0.084,3.554,0.864   c0.158,0.213,0.394,0.668,0.212,1.326c-0.036,0.128,0.018,0.287,0.124,0.457c0.047-1.245,0.439-2.929,1.021-5.306   c0.218-0.893,0.517-2.122,0.72-3.145C56.505,59.557,55.25,59.407,53.985,59.162z"/>
	<path fill="none" d="M84.696,16.412c-4.632-0.61-10.414,3.024-12.257,4.477l-1.204,0.949l-1.215-0.934   c-16.958-13.022-44.512,2.9-44.789,3.062l-0.929,0.546l-0.961-0.487c-0.933-0.467-9.286-4.342-13.447,3.85   c-3.768,7.416-5.258,12.443-5.617,14.81c1.058-3.959,3.545-10.948,8.449-13.931c2.58-1.57,5.45-1.868,8.529-0.884l1.238,0.396   l0.124,1.293c0.586,6.099,1.506,16.347,1.312,18.789c0.33,0.655,1.863,2.148,3.407,3.314c6.521,2.771,17.96,6.33,21.593,4.324   c2.441-1.347,4.308-0.984,5.808-0.691c1.081,0.21,2.274,0.438,4.113-0.258l-0.016-0.048c0.095-0.031,0.188-0.036,0.282-0.057   c2.553-1.057,6.318-3.871,12.599-10.744l0.188-0.205c0.4-0.575,2.438-4.254-0.642-16.182l-0.339-1.316l1.109-0.785   c0.224-0.159,5.581-3.882,11.636-1.979c3.832,1.205,6.956,4.329,9.318,9.292c0.649-0.469,1.486-0.971,2.564-1.505   c-0.44-2.011-1.842-6.391-6.239-12.294C88.093,17.577,86.584,16.661,84.696,16.412z M37.594,45.75   c-0.389,0.914-1.678,1.187-3.081,1.187c-0.623,0-1.267-0.053-1.866-0.129c-3.865-0.488-4.042-1.646-4.1-2.027   c-0.06-0.395,0.012-1.138,1.176-1.669l0.004,0.008c0.12-0.087,0.256-0.178,0.412-0.274c1.2-0.742,3.647-1.634,6.563,0.721   C37.822,44.472,37.805,45.254,37.594,45.75z M38.516,39.511c-1.435,0-2.292-1.521-2.292-2.989c-0.001-0.662,0.165-1.257,0.48-1.72   c0.416-0.614,1.058-0.951,1.809-0.951v1.971c-0.108,0-0.137,0.025-0.178,0.084c-0.088,0.131-0.141,0.36-0.141,0.615   c0,0.556,0.216,0.72,0.322,0.802c0.106-0.082,0.323-0.246,0.323-0.802c0-0.255-0.052-0.484-0.14-0.615   c-0.041-0.06-0.069-0.084-0.179-0.084v-1.971c0.752,0,1.395,0.337,1.81,0.951c0.314,0.463,0.48,1.059,0.48,1.72   C40.81,37.99,39.951,39.511,38.516,39.511z M49.211,54.365c-0.017,0-0.035,0-0.051,0c-2.068,0-3.61-1.517-3.675-1.582l1.39-1.396   c0.01,0.01,1.044,1.008,2.284,1.008c0.013,0,0.027,0,0.04,0c0.692-0.013,1.331-0.335,1.952-0.987l1.426,1.359   C51.582,53.812,50.449,54.35,49.211,54.365z M48.233,50.422c-3.143,0-5.7-3.046-5.7-6.789s2.557-6.789,5.7-6.789   c3.144,0,5.7,3.046,5.7,6.789S51.377,50.422,48.233,50.422z M56.084,39.511c-1.435,0-2.292-1.521-2.293-2.989   c-0.001-0.662,0.166-1.257,0.48-1.72c0.416-0.614,1.059-0.951,1.809-0.951v1.971c-0.108,0-0.138,0.025-0.178,0.084   c-0.088,0.131-0.141,0.36-0.141,0.615c0,0.556,0.217,0.72,0.322,0.802c0.106-0.082,0.323-0.246,0.323-0.802   c0-0.255-0.052-0.484-0.141-0.615c-0.04-0.06-0.069-0.084-0.179-0.084v-1.971c0.753,0,1.396,0.337,1.81,0.951   c0.315,0.463,0.48,1.059,0.48,1.72C58.378,37.99,57.52,39.511,56.084,39.511z M66.605,44.881c-0.389,0.914-1.678,1.187-3.081,1.187   c-0.622,0-1.267-0.054-1.865-0.129c-3.866-0.488-4.042-1.646-4.1-2.026c-0.061-0.395,0.011-1.138,1.176-1.669l0.003,0.008   c0.12-0.087,0.257-0.178,0.411-0.274c1.2-0.743,3.646-1.635,6.564,0.721C66.833,43.603,66.817,44.384,66.605,44.881z"/>
	<path fill="none" d="M84.955,28.76c-0.447,0.244-1.108,0.201-2.271,0.117c-0.683-0.051-2.154-0.156-2.813-0.025   c0.175,0.638,0.12,1.268-0.159,1.851c-0.504,1.052-1.638,1.727-2.404,2.081c0.028,0.756-0.055,1.729-0.58,2.288   c-0.021,0.022-0.046,0.038-0.067,0.058c0.153,1.43,0.211,2.686,0.202,3.807c1.22-1.055,2.979-1.933,4.501-2.559l0.803-0.331   l0.786,0.37c0.065,0.03,0.136,0.061,0.207,0.091c0.396-0.479,1.566-1.568,6.366-1.579C88.224,32.129,86.7,30.053,84.955,28.76z"/>
	<path fill="none" d="M60.186,43.653c-0.003,0.002-0.007,0.004-0.01,0.006c1.126,0.318,3.021,0.511,4.093,0.411   C62.841,43.002,61.469,42.862,60.186,43.653z"/>
	<path fill="none" d="M48.233,38.815c-2.057,0-3.729,2.162-3.729,4.818c0,2.657,1.673,4.819,3.729,4.819   c2.056,0,3.729-2.162,3.729-4.819C51.962,40.977,50.289,38.815,48.233,38.815z"/>
	<path fill="none" d="M31.175,44.522c-0.003,0.002-0.006,0.004-0.01,0.006c1.126,0.317,3.021,0.509,4.092,0.411   C33.83,43.871,32.458,43.73,31.175,44.522z"/>
	<path d="M99.69,32.616c-0.007-0.258-0.26-6.419-7.219-15.758c-1.86-2.498-4.303-3.962-7.258-4.354   c-5.601-0.737-11.491,2.713-13.989,4.406c-7.845-5.362-18.459-6.492-30.826-3.256c-7.801,2.042-14.034,5.2-16.276,6.417   c-1.213-0.478-3.404-1.182-5.927-1.258c-3.635-0.102-8.659,1.063-11.814,7.276C5.009,28.79-1.705,42.444,0.844,46.011   c1.092,1.528,2.544,1.779,3.505,1.651c0.19,0.019,0.404,0.049,0.602,0.087c0.036,0.639,0.277,1.247,0.708,1.744   c0.699,0.805,1.808,1.18,2.828,0.953c0.573-0.127,1.068-0.426,1.44-0.85c0.186,0.067,0.378,0.158,0.522,0.247   c0.252,1.274,1.375,1.984,3.347,2.111c0.203,0.013,0.49,0.032,0.654,0.06c0.378,0.286,0.831,0.437,1.287,0.437   c0.214,0,0.429-0.032,0.637-0.101c1.333-0.436,1.551-1.675,1.826-3.245c0.103-0.587,0.316-1.806,0.573-2.478   c0.647,0.264,0.765,0.563,0.767,0.567c0,0-0.019-0.051-0.032-0.181l0.523-0.053c0.013,0.443,0.012,0.772-0.007,0.933   c-0.379,1.895,1.354,4.274,5.152,7.073l0.183,0.135l0.208,0.089c0.145,0.062,2.864,1.225,6.527,2.447   c-0.543,1.772-1.659,5.945-1.616,10.087c-0.783,1.792-3.248,8.162-0.667,12.238c0.705,1.113,2.026,2.382,4.419,2.906   c-0.286,0.709-0.453,1.598-0.076,2.452c0.536,1.218,1.962,1.898,4.238,2.024c1.963,0.11,3.502,0.146,4.685,0.146   c2.04,0,3.022-0.109,3.293-0.146c0.409-0.014,2.009-0.151,2.968-1.396c0.462-0.6,0.663-1.341,0.645-2.191   c1.778,0.112,3.511,0.207,5.181,0.275c-0.125,0.799-0.11,1.812,0.52,2.59c0.522,0.646,1.316,0.969,2.368,0.969   c0.362,0,0.757-0.039,1.182-0.117c4.229-0.771,6.819-0.939,6.846-0.941l0.151-0.021c1.062-0.234,3.549-0.954,3.703-2.58   c0.068-0.724-0.319-1.29-0.866-1.741c1.597-1.191,2.407-2.959,2.717-4.888c0.318,0.095,0.64,0.152,0.963,0.152   c0.712,0,1.427-0.229,2.085-0.69c1.015-0.711,2.308-2.422,1.861-3.84l-0.186-0.546c-0.101-1.226-0.085-4.343,0.2-6.802   c0.216-1.855-0.827-2.706-1.285-2.985c-1.513-0.922-3.971-0.284-7.296,1.852l-0.15-0.261c0.106-3.646-0.724-7.362-1.322-9.516   c2.212-1.848,4.797-4.356,7.899-7.748c0.313-0.292,0.817-0.887,1.276-1.952c1.237,0.032,2.537-0.224,3.238-1.237   c0.375-0.541,0.502-1.193,0.379-1.85c0.529-0.424,1.585-1.03,2.679-1.538c2.347,0.868,3.262,0.117,3.583-0.149   c0.346-0.284,0.59-0.648,0.722-1.058c0.71-0.144,1.903-0.254,2.991-0.266c2.294,0.388,3.892,0.12,4.753-0.799   c0.396-0.423,0.62-0.95,0.653-1.512c0.607-0.523,2.205-1.436,3.681-2.083l1.217-0.534L99.69,32.616z M19.184,42.629   c-0.863-0.216-1.737-0.074-2.461,0.396c-1.538,1-2.005,3.165-2.336,5.019c-0.116-0.009-0.229-0.016-0.336-0.023   c-0.007,0-0.014-0.001-0.021-0.001c-0.719-1.387-2.562-2.235-3.957-2.431c-0.525-0.073-0.987-0.053-1.384,0.037   c-0.029-0.051-0.06-0.102-0.092-0.151c-0.203-0.309-0.472-0.556-0.771-0.767c0.489-2.08,1.417-5.085,2.83-7.73   c0.962,0.086,2.156-0.198,3.469-1.265c0.25-0.202,0.377-0.181,0.417-0.176c0.563,0.085,1.383,1.314,1.925,2.127   c0.747,1.12,1.336,2.005,2.234,2.124c0.062,0.008,0.125,0.013,0.186,0.013c0.234,0,0.456-0.08,0.665-0.192   c0.092,1.147,0.173,2.22,0.243,3.201C19.6,42.744,19.399,42.683,19.184,42.629z M12.09,34.703c0.79-1.062,1.679-1.972,2.685-2.583   c1.247-0.758,2.581-1.02,4.053-0.792c0.192,2.047,0.377,4.122,0.542,6.085c-0.154,0.068-0.313,0.154-0.476,0.264   c-0.235-0.277-0.556-0.758-0.788-1.106c-0.865-1.297-1.845-2.768-3.27-2.983c-0.468-0.069-1.189-0.025-1.955,0.596   C12.593,34.418,12.335,34.575,12.09,34.703z M66.735,69.88c0.002-0.003,0.003-0.007,0.004-0.01l0.526,0.901   c0.316,1.089,1.948,7.236-1.066,8.579c-1.024,0.457-2.669,0.689-4.664,0.784v-6.098c0.201-0.06,0.401-0.119,0.6-0.183   C64.192,73.195,65.74,71.859,66.735,69.88z M48.165,79.695c-1.668-0.107-3.354-0.212-5.019-0.303   c-0.125-4.499,0.32-11.147,2.126-12.668c0.28-0.238,0.556-0.304,0.921-0.221c2.338,0.527,4.474,0.587,6.033,0.631   c0.644,0.019,1.408,0.04,1.847,0.105c-0.139,1.458,1.162,2.599,2.021,3.187c-0.457,0.975-0.677,2.082,0.104,3.105   c0.592,0.772,1.448,1.047,2.42,1.047c0.306,0,0.623-0.031,0.945-0.078v5.664h1.164C57.086,80.268,52.455,79.972,48.165,79.695z    M57.193,62.507c-0.581,2.377-0.974,4.061-1.021,5.306c-0.106-0.17-0.16-0.329-0.124-0.457c0.182-0.658-0.054-1.113-0.212-1.326   c-0.576-0.78-1.697-0.812-3.554-0.864c-1.562-0.044-3.505-0.099-5.656-0.584c-0.964-0.219-1.873,0.001-2.625,0.637   c-0.973,0.82-1.619,2.361-2.047,4.162c-0.174-0.844-0.4-1.802-0.677-2.93c-0.382-1.562-1.021-4.176-0.936-4.855   c-0.017,0.133-0.174,0.581-0.659,0.888c-0.47,0.297-0.971,0.29-1.285,0.188l0.987-2.986c2.46,0.535,4.598,0.809,6.414,0.809   c2.086,0,3.757-0.353,5.034-1.059c1.189-0.656,1.886-0.52,3.151-0.272c1.265,0.245,2.52,0.395,3.928,0.2   C57.71,60.385,57.411,61.614,57.193,62.507z M37.45,67.386c0.284,1.163,0.673,2.754,0.839,3.791c-0.268,0.18-0.438,0.38-0.519,0.49   c-0.62,0.837-0.464,1.675-0.114,2.413c-0.039-0.013-0.079-0.025-0.119-0.039c-1.038-0.332-1.762-0.964-2.278-1.987   c-1.774-3.522-0.318-10.225,0.606-13.256c0.556,0.157,1.098,0.302,1.627,0.437c-0.082,0.059-0.171,0.103-0.246,0.172   C35.878,60.669,36.32,62.766,37.45,67.386z M33.145,77.856c-0.437-0.688-0.574-1.628-0.538-2.647   c0.949,1.229,2.198,2.097,3.729,2.587c1.173,0.375,2.417,0.725,3.515,0.725c0.469,0,0.909-0.068,1.307-0.222   c0.003,0.366,0.008,0.705,0.016,1c-1.57-0.068-3.108-0.118-4.543-0.118C33.985,79.181,33.353,78.184,33.145,77.856z M47.785,84.741   c-0.385,0.508-1.215,0.632-1.495,0.637l-0.153,0.012c-0.019,0.003-2.016,0.302-7.632-0.01c-1.39-0.078-2.34-0.396-2.542-0.851   c-0.167-0.374,0.09-0.987,0.351-1.426c0.11,0.003,0.205,0.018,0.318,0.018c3.402,0,7.408,0.258,11.282,0.507   c0.036,0.002,0.071,0.005,0.107,0.007C48.058,84.103,47.985,84.478,47.785,84.741z M65.877,84.573   c-0.486,0.034-3.011,0.237-6.995,0.965c-0.838,0.15-1.46,0.096-1.663-0.154c-0.197-0.241-0.175-0.785-0.065-1.284   c0.658,0.016,1.318,0.032,1.944,0.032c3.211,0,5.971-0.229,7.947-0.89c0.47,0.232,0.719,0.415,0.839,0.524   C67.551,84.03,66.685,84.385,65.877,84.573z M72.669,66.461c-0.147,1.788-0.327,4.959,0.041,6.9l-0.971-0.745   c-0.186-1.206-0.474-2.338-0.792-3.275l-0.852-1.479C70.964,67.304,71.919,66.786,72.669,66.461z M63.215,68.108   c-0.517,1.027-1.241,1.66-2.28,1.992c-0.041,0.014-0.08,0.025-0.118,0.037c0.349-0.736,0.506-1.575-0.115-2.412   c-0.08-0.109-0.251-0.311-0.52-0.489c0.166-1.038,0.556-2.631,0.84-3.793c0.611-2.5,1.018-4.256,1.049-5.546   c0.374-0.203,0.761-0.433,1.161-0.688C64.006,60.58,64.615,65.323,63.215,68.108z M77.941,29.286   c0.082,0.212,0.08,0.381-0.008,0.564c-0.284,0.6-1.33,1.122-1.878,1.319c-0.174-0.917-0.37-1.868-0.613-2.889   c0.771-0.375,1.884-0.811,3.168-1.023c-0.195,0.117-0.37,0.253-0.504,0.434C77.914,27.949,77.64,28.499,77.941,29.286z    M83.158,36.508c-0.071-0.03-0.142-0.061-0.207-0.091l-0.786-0.37l-0.803,0.331c-1.521,0.626-3.281,1.504-4.501,2.559   c0.009-1.121-0.049-2.376-0.202-3.807c0.021-0.02,0.046-0.036,0.067-0.058c0.525-0.559,0.608-1.532,0.58-2.288   c0.767-0.354,1.9-1.029,2.404-2.081c0.279-0.583,0.334-1.213,0.159-1.851c0.659-0.131,2.131-0.026,2.813,0.025   c1.163,0.083,1.824,0.127,2.271-0.117c1.745,1.293,3.269,3.37,4.569,6.17C84.725,34.94,83.554,36.029,83.158,36.508z    M92.987,33.012c-2.362-4.963-5.486-8.087-9.318-9.292c-6.055-1.903-11.412,1.819-11.636,1.979l-1.109,0.785l0.339,1.316   c3.079,11.928,1.042,15.607,0.642,16.182l-0.188,0.205c-6.28,6.873-10.046,9.688-12.599,10.744   c-0.095,0.021-0.188,0.025-0.282,0.057l0.016,0.048c-1.839,0.696-3.032,0.468-4.113,0.258c-1.5-0.293-3.367-0.655-5.808,0.691   c-3.633,2.006-15.072-1.554-21.593-4.324c-1.544-1.167-3.078-2.66-3.407-3.314c0.194-2.441-0.726-12.689-1.312-18.789l-0.124-1.293   l-1.238-0.396c-3.079-0.983-5.949-0.686-8.529,0.884c-4.904,2.983-7.391,9.972-8.449,13.931c0.359-2.366,1.85-7.394,5.617-14.81   c4.161-8.192,12.514-4.317,13.447-3.85l0.961,0.487l0.929-0.546c0.276-0.163,27.831-16.084,44.789-3.062l1.215,0.934l1.204-0.949   c1.843-1.452,7.625-5.087,12.257-4.477c1.888,0.249,3.396,1.166,4.616,2.801c4.397,5.903,5.799,10.284,6.239,12.294   C94.474,32.041,93.637,32.543,92.987,33.012z"/>
	<path d="M65.714,42.698c-2.918-2.356-5.364-1.464-6.564-0.721c-0.154,0.096-0.291,0.187-0.411,0.274l-0.003-0.008   c-1.165,0.531-1.236,1.274-1.176,1.669c0.058,0.38,0.233,1.539,4.1,2.026c0.599,0.075,1.243,0.129,1.865,0.129   c1.403,0,2.692-0.273,3.081-1.187C66.817,44.384,66.833,43.603,65.714,42.698z M60.176,43.659c0.003-0.001,0.007-0.004,0.01-0.006   c1.283-0.792,2.655-0.651,4.083,0.417C63.196,44.17,61.302,43.977,60.176,43.659z"/>
	<path d="M36.702,43.567c-2.916-2.355-5.363-1.463-6.563-0.721c-0.155,0.096-0.292,0.188-0.412,0.274l-0.004-0.008   c-1.164,0.531-1.236,1.274-1.176,1.669c0.058,0.38,0.235,1.539,4.1,2.027c0.599,0.076,1.243,0.129,1.866,0.129   c1.403,0,2.691-0.273,3.081-1.187C37.805,45.254,37.822,44.472,36.702,43.567z M31.165,44.528c0.003-0.002,0.006-0.004,0.01-0.006   c1.283-0.792,2.655-0.651,4.082,0.417C34.186,45.038,32.291,44.846,31.165,44.528z"/>
	<path d="M49.199,52.395c-0.013,0-0.027,0-0.04,0c-1.24,0-2.273-0.998-2.284-1.008l-1.39,1.396c0.065,0.065,1.606,1.582,3.675,1.582   c0.017,0,0.034,0,0.051,0c1.238-0.016,2.371-0.553,3.366-1.599l-1.426-1.359C50.53,52.06,49.891,52.382,49.199,52.395z"/>
	<path d="M38.52,33.851v1.971c0.11,0,0.139,0.025,0.179,0.084c0.088,0.131,0.14,0.36,0.14,0.615c0,0.556-0.217,0.72-0.323,0.802   c-0.106-0.082-0.322-0.246-0.322-0.802c0-0.255,0.053-0.484,0.141-0.615c0.041-0.06,0.069-0.084,0.178-0.084v-1.971   c-0.75,0-1.393,0.337-1.809,0.951c-0.315,0.463-0.481,1.059-0.48,1.72c0,1.468,0.858,2.989,2.292,2.989   c1.436,0,2.294-1.521,2.294-2.989c0-0.662-0.166-1.257-0.48-1.72C39.915,34.188,39.272,33.851,38.52,33.851z"/>
	<path d="M57.897,34.802c-0.414-0.614-1.057-0.951-1.81-0.951v1.971c0.109,0,0.139,0.025,0.179,0.084   c0.089,0.131,0.141,0.36,0.141,0.615c0,0.556-0.217,0.72-0.323,0.802c-0.105-0.082-0.322-0.246-0.322-0.802   c0-0.255,0.053-0.484,0.141-0.615c0.04-0.06,0.069-0.084,0.178-0.084v-1.971c-0.75,0-1.393,0.337-1.809,0.951   c-0.314,0.463-0.481,1.059-0.48,1.72c0.001,1.468,0.858,2.989,2.293,2.989c1.436,0,2.294-1.521,2.294-2.989   C58.378,35.86,58.213,35.265,57.897,34.802z"/>
	<path d="M48.233,36.844c-3.143,0-5.7,3.046-5.7,6.789s2.557,6.789,5.7,6.789c3.144,0,5.7-3.046,5.7-6.789   S51.377,36.844,48.233,36.844z M48.233,48.452c-2.057,0-3.729-2.162-3.729-4.819c0-2.657,1.673-4.818,3.729-4.818   c2.056,0,3.729,2.162,3.729,4.818C51.962,46.291,50.289,48.452,48.233,48.452z"/>
</g>
</svg>