<svg xmlns="http://www.w3.org/2000/svg" xmlns:xlink="http://www.w3.org/1999/xlink" version="1.1" id="Layer_1" x="0px" y="0px" width="50px" height="50px" viewBox="0 0 50 50" enable-background="new 0 0 50 50" xml:space="preserve">
<g>
	<path fill="#000000" d="M44.145,20.452c-0.838-2.115-2.365-3.733-3.977-5.148c-1.25-1.102-2.602-1.791-3.977-2.179   c-2.207-0.775-4.672-0.802-6.963-0.086c-1.881,0.587-2.826,1.376-4.228,1.595c-1.403-0.219-2.35-1.008-4.229-1.595   c-2.29-0.716-4.759-0.689-6.963,0.086c-1.377,0.388-2.727,1.077-3.978,2.179c-1.611,1.415-3.138,3.033-3.975,5.148   c-0.738,1.861-1.113,3.705-1.205,5.522V27.8c0.223,4.525,2.054,8.896,4.215,13.036c1.493,2.854,3.44,5.889,5.925,7.105   c2.973,1.459,4.677,0.273,7.437-0.987c0.911-0.417,1.845-0.629,2.773-0.66c0.924,0.031,1.858,0.243,2.771,0.66   c2.76,1.262,4.465,2.446,7.438,0.987c2.482-1.219,4.434-4.252,5.922-7.105c2.162-4.141,3.996-8.511,4.217-13.036v-1.823   C45.258,24.157,44.883,22.313,44.145,20.452z"/>
	<path fill="#000000" d="M24.285,12.515c0,0-0.121-5.018,2.165-7.584c2.282-2.568,6.368-3.545,6.368-3.545   c-0.284,3.738-1.004,8.418-4.774,10.126C26.281,12.312,24.285,12.515,24.285,12.515z"/>
	<path fill="#000000" d="M24.399,12.515c0,0-2.781-0.987-3.712-2.824c-0.932-1.84-0.61-4.363-0.61-4.363   c1.994,0.948,4.418,2.34,4.562,4.842C24.708,11.34,24.399,12.515,24.399,12.515z"/>
</g>
</svg>